<?xml version="1.0" encoding="UTF-8"?>
<svg id="Layer_1" data-name="Layer 1" xmlns="http://www.w3.org/2000/svg" viewBox="0 0 2000 2000">
  <defs>
    <style>
      .cls-1 {
        fill: #893630;
      }

      .cls-1, .cls-2, .cls-3, .cls-4, .cls-5, .cls-6, .cls-7, .cls-8, .cls-9, .cls-10, .cls-11, .cls-12, .cls-13, .cls-14, .cls-15, .cls-16, .cls-17, .cls-18, .cls-19, .cls-20, .cls-21, .cls-22, .cls-23, .cls-24, .cls-25, .cls-26, .cls-27, .cls-28, .cls-29, .cls-30, .cls-31, .cls-32, .cls-33, .cls-34, .cls-35, .cls-36, .cls-37, .cls-38, .cls-39, .cls-40, .cls-41, .cls-42, .cls-43, .cls-44, .cls-45, .cls-46, .cls-47, .cls-48 {
        stroke-width: 0px;
      }

      .cls-2 {
        fill: #4aa2d2;
      }

      .cls-3 {
        fill: #f1604c;
      }

      .cls-4 {
        fill: #a8d9bf;
      }

      .cls-5 {
        fill: #d2e4f6;
      }

      .cls-6 {
        fill: #7f7b7a;
      }

      .cls-7 {
        fill: #7c6e2c;
      }

      .cls-8 {
        fill: #a14039;
      }

      .cls-9 {
        fill: #a39e9a;
      }

      .cls-10 {
        fill: #3e5c7a;
      }

      .cls-11 {
        fill: #c4b52f;
      }

      .cls-12 {
        fill: #cd7594;
      }

      .cls-13 {
        fill: #898483;
      }

      .cls-14 {
        fill: #83baa1;
      }

      .cls-15 {
        fill: #5e386d;
      }

      .cls-16 {
        fill: #6e9683;
      }

      .cls-17 {
        fill: #f9f9fa;
      }

      .cls-18 {
        fill: #995ea6;
      }

      .cls-19 {
        fill: #45668d;
      }

      .cls-20 {
        fill: #eebed5;
      }

      .cls-21 {
        fill: #367199;
      }

      .cls-22 {
        fill: #e45d44;
      }

      .cls-23 {
        fill: #dbc735;
      }

      .cls-24 {
        fill: #8d4f9f;
      }

      .cls-49 {
        fill: none;
        stroke: #d2e4f6;
        stroke-miterlimit: 10;
        stroke-width: 2px;
      }

      .cls-25 {
        fill: #98908e;
      }

      .cls-26 {
        fill: #c24d3e;
      }

      .cls-27 {
        fill: #673e77;
      }

      .cls-28 {
        fill: #ae9e33;
      }

      .cls-29 {
        fill: #f38bb1;
      }

      .cls-30 {
        fill: #e57fa0;
      }

      .cls-31 {
        fill: #8ecfb2;
      }

      .cls-32 {
        fill: #9a9694;
      }

      .cls-33 {
        fill: #070505;
      }

      .cls-34 {
        fill: #4390c4;
      }

      .cls-35 {
        fill: #ada7a3;
      }

      .cls-36 {
        fill: #5a7a6a;
      }

      .cls-37 {
        fill: #a0607b;
      }

      .cls-38 {
        fill: #f9a21b;
      }

      .cls-39 {
        fill: #ad71b0;
      }

      .cls-40 {
        fill: #b9b2ac;
      }

      .cls-41 {
        fill: #2c5c77;
      }

      .cls-42 {
        fill: #f8e692;
      }

      .cls-43 {
        fill: #3d7fb6;
      }

      .cls-44 {
        fill: #d17898;
      }

      .cls-45 {
        fill: #fff;
      }

      .cls-46 {
        fill: #efd2a8;
      }

      .cls-47 {
        fill: #968530;
      }

      .cls-48 {
        fill: #cebfb2;
      }
    </style>
  </defs>
  <polygon class="cls-40" points="854.14 1459.26 158.02 1029.21 1135.79 462.08 1841.98 878.21 854.14 1459.26"/>
  <polygon class="cls-9" points="853.21 1756.62 158.02 1315.07 158.02 1029.21 854.14 1459.26 853.21 1756.62"/>
  <polygon class="cls-35" points="1836.97 1113.82 853.21 1756.62 854.14 1459.26 1841.98 878.21 1836.97 1113.82"/>
  <path class="cls-25" d="M526.07,814.16s-189.76,114.37-106.58,158.56c83.18,44.19,275.53,72.78,275.53,72.78,0,0,132.56-7.8,98.77,137.76s207.24,187,207.24,187l715.02-420.58-706.19-416.14-483.8,280.62Z"/>
  <path class="cls-19" d="M634.82,750.62s-172.58,106.44-89.4,150.63,275.53,72.78,275.53,72.78c0,0,132.56-7.8,98.77,137.76s207.24,187,207.24,187l715.02-420.58-706.19-416.14-500.97,288.54Z"/>
  <polygon class="cls-10" points="1126.96 1298.79 1126.96 1579.84 1836.97 1113.82 1841.98 878.21 1126.96 1298.79"/>
  <polygon class="cls-13" points="1001.03 1370.26 1001.03 1660.7 1126.96 1579.84 1126.96 1298.79 1001.03 1370.26"/>
  <path class="cls-5" d="M540.9,805.55s-30.17,28.3-16.57,85.96,102.97,46.13,102.97,46.13c0,0,83.6,95.13,191.71,53.33,0,0,41.08,100.18,85.04,113.87,0,0-16.96,96.91,27.22,124.19,0,0,73.24,74.94,168.57,80.75v285.94l27.11-15.88v-281.05s-41.49-47.76-91.55-52.89c0,0-49.42-78.94-86.64-87.28,0,0,19.69-108.93-7.7-124.51,0,0-143.76-116.16-181.62-112.31,0,0-102.04-53.91-138.62-52.63,0,0,21.73-102.79-1.97-108.84"/>
  <ellipse class="cls-32" cx="450.14" cy="1135.34" rx="72.62" ry="8.87"/>
  <ellipse class="cls-32" cx="377.52" cy="1112.84" rx="72.62" ry="8.87"/>
  <ellipse class="cls-32" cx="411.03" cy="1005.05" rx="72.62" ry="8.87"/>
  <g>
    <path class="cls-7" d="M421.21,1050.94s11.09,13.46,22.67,15.46c0,0,16.75,17.41,34.48,16.28,0,0,16.06,14.42,33.5,13.17,0,0,3.19,4.77,15.51,10.11,0,0-10.56-14.81-11.17-20.43,0,0-27.96-5.91-42.39-25.68,0,0-32.99-6.28-42.31-14.02l-10.3,5.11Z"/>
    <polygon class="cls-48" points="433.27 1139.92 439.34 1139.92 482.34 1065.52 478.88 1064.05 433.27 1139.92"/>
    <path class="cls-11" d="M485.82,1042.56s-9.97,6.81-12,17.3c0,0,17.14,24.55,42.39,25.68,0,0,8.4-21.1-30.38-42.97Z"/>
    <path class="cls-28" d="M485.82,1042.56s-10.93,9-12,17.3c0,0-22.53,7.65-42.31-14.02,0,0,20.32-17.54,54.31-3.27Z"/>
    <path class="cls-47" d="M431.5,1045.84s-4.46,6.03-10.31,5.11c0,0,12.13-6.81,15.31-8.34l-5,3.24Z"/>
    <path class="cls-23" d="M516.2,1085.54s3.11,12.05,11.17,20.43c0,0,3.2-1.29,4.31-5.97,0,0-12.89-30.71-23.94-40.6,0,0,9.24,18.93,8.46,26.13Z"/>
  </g>
  <g>
    <path class="cls-37" d="M411.03,910.74s-15.34,12.07-28.5,11.5c0,0-22.47,15.03-41.64,9.6,0,0-21.02,11.93-39.83,6.43,0,0-4.62,4.45-19.39,7.36,0,0,15.07-13.67,17.07-19.66,0,0,32.03.19,52.52-17.97,0,0,37.63.98,49.68-5.27l10.09,8.02Z"/>
    <polygon class="cls-48" points="376.74 1005.05 370.09 1003.61 340.58 912.14 344.73 911.36 376.74 1005.05"/>
    <path class="cls-44" d="M342.21,886.25s9.32,9.81,9.06,21.73c0,0-24.59,22.74-52.52,17.97,0,0-4.21-25.03,43.46-39.71Z"/>
    <path class="cls-30" d="M342.21,886.25s9.84,12.42,9.06,21.73c0,0,22.87,13.7,49.68-5.27,0,0-18.12-23.97-58.74-16.47Z"/>
    <path class="cls-29" d="M400.95,902.72s3.47,7.64,10.08,8.03c0,0-11.68-10.32-14.79-12.74l4.71,4.72Z"/>
    <path class="cls-12" d="M298.75,925.96s-6.26,12.41-17.07,19.66c0,0-3.2-2.17-3.31-7.54,0,0,21.4-30.48,35.84-38.65,0,0-14.61,18.47-15.46,26.52Z"/>
  </g>
  <ellipse class="cls-32" cx="644.05" cy="1144.21" rx="72.62" ry="8.87"/>
  <g>
    <path class="cls-36" d="M614.69,1041.89c12.04,6.25,49.68,5.27,49.68,5.27,20.49,18.16,52.52,17.97,52.52,17.97,2,5.99,17.07,19.66,17.07,19.66-14.77-2.91-19.39-7.36-19.39-7.36-18.81,5.5-39.83-6.43-39.83-6.43-19.17,5.44-41.64-9.6-41.64-9.6-13.16.57-28.5-11.5-28.5-11.5l10.09-8.02Z"/>
    <polygon class="cls-48" points="670.9 1050.53 675.04 1051.31 645.53 1142.78 638.88 1144.21 670.9 1050.53"/>
    <path class="cls-31" d="M716.88,1065.12c-27.93,4.77-52.52-17.97-52.52-17.97-.26-11.92,9.06-21.73,9.06-21.73,47.67,14.68,43.46,39.71,43.46,39.71Z"/>
    <path class="cls-14" d="M614.68,1041.88c26.8,18.97,49.68,5.27,49.68,5.27-.78-9.31,9.06-21.73,9.06-21.73-40.62-7.5-58.74,16.47-58.74,16.47Z"/>
    <path class="cls-16" d="M619.39,1037.17c-3.11,2.42-14.79,12.74-14.79,12.74,6.61-.38,10.08-8.03,10.08-8.03l4.71-4.72Z"/>
    <path class="cls-4" d="M701.42,1038.6c14.44,8.17,35.84,38.65,35.84,38.65-.11,5.37-3.31,7.54-3.31,7.54-10.82-7.25-17.07-19.66-17.07-19.66-.85-8.05-15.46-26.53-15.46-26.52Z"/>
  </g>
  <g>
    <path class="cls-41" d="M359.14,1018.75c-9.31,7.75-42.31,14.02-42.31,14.02-14.43,19.77-42.39,25.68-42.39,25.68-.61,5.63-11.17,20.43-11.17,20.43,12.32-5.33,15.51-10.11,15.51-10.11,17.44,1.25,33.5-13.17,33.5-13.17,17.74,1.13,34.48-16.28,34.48-16.28,11.58-2,22.67-15.46,22.67-15.46l-10.3-5.11Z"/>
    <polygon class="cls-48" points="311.76 1036.97 308.3 1038.44 351.31 1112.84 357.37 1112.84 311.76 1036.97"/>
    <path class="cls-43" d="M274.45,1058.46c25.25-1.13,42.39-25.68,42.39-25.68-2.03-10.48-12-17.3-12-17.3-38.78,21.87-30.38,42.97-30.38,42.97Z"/>
    <path class="cls-34" d="M359.14,1018.76c-19.78,21.67-42.31,14.02-42.31,14.02-1.08-8.29-12-17.3-12-17.3,33.99-14.26,54.31,3.27,54.31,3.27Z"/>
    <path class="cls-2" d="M354.14,1015.52c3.17,1.53,15.31,8.34,15.31,8.34-5.84.92-10.31-5.11-10.31-5.11l-5-3.24Z"/>
    <path class="cls-21" d="M282.91,1032.32c-11.04,9.89-23.94,40.6-23.94,40.6,1.11,4.68,4.31,5.97,4.31,5.97,8.06-8.39,11.17-20.43,11.17-20.43-.78-7.2,8.47-26.13,8.46-26.13Z"/>
  </g>
  <ellipse class="cls-32" cx="677.22" cy="1297.15" rx="72.62" ry="8.87"/>
  <ellipse class="cls-32" cx="845.76" cy="1379.13" rx="72.62" ry="8.87"/>
  <ellipse class="cls-6" cx="844.16" cy="1210.98" rx="40.54" ry="8.87"/>
  <g>
    <path class="cls-15" d="M710.38,1203.98s-15.34,12.07-28.5,11.5c0,0-22.47,15.03-41.64,9.6,0,0-21.02,11.93-39.83,6.43,0,0-4.62,4.45-19.39,7.36,0,0,15.07-13.67,17.07-19.66,0,0,32.03.19,52.52-17.97,0,0,37.63.98,49.68-5.27l10.09,8.02Z"/>
    <polygon class="cls-48" points="676.09 1298.28 669.44 1296.85 639.93 1205.38 644.08 1204.6 676.09 1298.28"/>
    <path class="cls-24" d="M641.56,1179.48s9.32,9.81,9.06,21.73c0,0-24.59,22.74-52.52,17.97,0,0-4.21-25.03,43.46-39.71Z"/>
    <path class="cls-18" d="M641.56,1179.48s9.84,12.42,9.06,21.73c0,0,22.87,13.7,49.68-5.27,0,0-18.12-23.97-58.74-16.47Z"/>
    <path class="cls-39" d="M700.3,1195.96s3.47,7.64,10.08,8.03c0,0-11.68-10.32-14.79-12.74l4.71,4.72Z"/>
    <path class="cls-27" d="M598.1,1219.2s-6.26,12.41-17.07,19.66c0,0-3.2-2.17-3.31-7.54,0,0,21.4-30.48,35.84-38.65,0,0-14.61,18.47-15.46,26.52Z"/>
  </g>
  <g>
    <path class="cls-1" d="M845.76,1288.68s11.09,13.46,22.67,15.46c0,0,16.75,17.41,34.48,16.28,0,0,16.06,14.42,33.5,13.17,0,0,3.19,4.77,15.51,10.11,0,0-10.56-14.81-11.17-20.43,0,0-27.96-5.91-42.39-25.68,0,0-32.99-6.28-42.31-14.02l-10.3,5.11Z"/>
    <polygon class="cls-48" points="857.83 1377.66 863.89 1377.66 906.9 1303.26 903.44 1301.8 857.83 1377.66"/>
    <path class="cls-22" d="M910.37,1280.31s-9.97,6.81-12,17.3c0,0,17.14,24.55,42.39,25.68,0,0,8.4-21.1-30.38-42.97Z"/>
    <path class="cls-26" d="M910.37,1280.31s-10.93,9-12,17.3c0,0-22.53,7.65-42.31-14.02,0,0,20.32-17.54,54.31-3.27Z"/>
    <path class="cls-8" d="M856.06,1283.58s-4.46,6.03-10.31,5.11c0,0,12.13-6.81,15.31-8.34l-5,3.24Z"/>
    <path class="cls-3" d="M940.76,1323.28s3.11,12.05,11.17,20.43c0,0,3.2-1.29,4.31-5.97,0,0-12.89-30.71-23.94-40.6,0,0,9.24,18.93,8.46,26.13Z"/>
  </g>
  <g>
    <path class="cls-45" d="M836.72,1078.69s7.38-2.87,12.91-1.84l-4.3-34.84.27-4.72c.22-3.89,2.15-7.49,5.27-9.83h0s.59.32.59.32c2.84,1.54,5.23,3.79,6.93,6.54l.07.11,1.46,3.58c.58,1.42,1.01,2.9,1.3,4.41,1.08,5.76,3.3,20.83.73,36.27l4.04,2.64c3.89,2.54,6.81,6.31,8.3,10.7l.43,1.28c.9,2.67,1.36,5.46,1.36,8.27v.71c0,4.59-.71,9.16-2.09,13.53h0c-.37,1.17-1.08,2.21-2.03,2.99l-7.35,5.98s-26.23,6.76-36.88-7.58c0,0-8.2-11.48-1.84-24.38,0,0,1.53-4.3-2.41-7.17l-7.83-14.96-1.84-16.6v-12.43c0-.6.04-1.19.13-1.78l1.1-7.31h0c2.53-.67,5.21-.52,7.66.41l.54.21,2.87,4.92,1.64,5.12,4.3,13.52,4.71,21.93Z"/>
    <path class="cls-46" d="M831.42,1120.98s12.32,8.25,33.17,3.82c0,0,4.36,28.47-3.33,45.36-1.97,4.33-6.03,7.31-10.76,7.83-3.72.41-8.76.43-14.52-.95-6.14-1.47-11-6.17-12.67-12.26-2.54-9.29-3.61-25,8.11-43.8Z"/>
    <path class="cls-45" d="M831.41,1120.98l-24.47,18.01c-1.15.84-2.05,1.97-2.62,3.27l-.41.93c-.61,1.39-.22,3.01.97,3.96h0c1.45,1.16,3.5,1.15,4.94-.02l14.82-12.07,6.78-14.08Z"/>
    <path class="cls-45" d="M864.58,1124.8l15.13,25.09c1.06,1.76,1.46,3.84,1.13,5.88l-.18,1.1c-.34,2.1-2.35,3.49-4.44,3.08l-1.01-.2c-2.42-.48-4.38-2.24-5.1-4.59l-4.31-13.93-1.22-16.43Z"/>
    <path class="cls-45" d="M829.06,1174.55v25.95c0,3.99,1.15,7.89,3.31,11.24l.31.48c1.42,2.2,4.65,2.15,6-.09h0c2.12-3.53,3.16-7.61,2.96-11.72l-1.04-22.28c-.01-.27-.19-.5-.44-.59l-10.23-3.61c-.43-.15-.88.17-.88.62Z"/>
    <path class="cls-45" d="M845.66,1177.58l11.95-3.42,3.12,35.68c.13,1.47-.45,2.91-1.57,3.88h0c-2.44,2.12-6.11,1.98-8.38-.32l-.65-.66c-2.13-2.15-3.37-5.02-3.48-8.04l-1-27.12Z"/>
    <ellipse class="cls-33" cx="848.57" cy="1100.65" rx="1.91" ry="3.51"/>
    <ellipse class="cls-33" cx="866.05" cy="1100.65" rx="1.91" ry="3.51"/>
    <ellipse class="cls-20" cx="860.75" cy="1104.09" rx="2.74" ry="1.34"/>
    <rect class="cls-17" x="843.74" y="1140.14" width="2.71" height="2.27" rx=".75" ry=".75"/>
    <path class="cls-17" d="M847.19,1139.49l2.94-2.58c.49-.43,1.25-.06,1.22.58l-.32,7.46c-.04.94-1.21,1.34-1.82.64l-1.99-2.3c-.49-.57-.76-1.3-.76-2.05v-.12c0-.62.27-1.22.74-1.63Z"/>
    <path class="cls-17" d="M842.85,1139.33l-2.41-2.22c-.3-.28-.79-.06-.79.35v7.22c0,.42.49.65.81.39l2.46-1.99c.52-.42.83-1.06.83-1.74h0c0-.77-.32-1.5-.89-2.02Z"/>
    <path class="cls-17" d="M843.69,1142.59l-2.78,11.26c-.06.25.25.41.42.21l1.09-1.31c.12-.14.35-.1.41.07l.54,1.45c.09.24.44.19.47-.06l1.05-11.54c.01-.14-.1-.26-.24-.26h-.72c-.11,0-.21.08-.23.18Z"/>
    <path class="cls-17" d="M844.95,1142.7l1.36,10.39c.03.27.4.3.49.05l.41-1.18c.07-.19.32-.23.44-.07l1,1.3c.17.22.52.05.45-.22l-2.6-10.37c-.03-.11-.13-.19-.25-.19h-1.05c-.15,0-.27.14-.25.29Z"/>
  </g>
  <path class="cls-42" d="M819.56,829.07l1.58-30.67c.49-9.58,5.52-18.35,13.54-23.62h0c9.3-6.11,20.19-9.36,31.32-9.36h15.69c9.09,0,17.82,3.56,24.31,9.91h0c6.62,6.47,10.35,15.34,10.35,24.59v29.14h-96.79Z"/>
  <circle class="cls-33" cx="838.08" cy="790.63" r="1.96"/>
  <circle class="cls-33" cx="868.62" cy="790.63" r="1.96"/>
  <ellipse class="cls-38" cx="853.63" cy="792.19" rx="9.11" ry="1.55"/>
  <path class="cls-49" d="M812.39,805.95l-4.44,3.9c-11.33,9.95-10.74,27.77,1.22,36.95l5.45,4.19"/>
  <path class="cls-49" d="M796.69,788.67h0c-25.56,20.67-25.25,59.74.63,80l2.49,1.95"/>
  <path class="cls-49" d="M856.11,750.79h0c-42.62-3.02-96.94,32.2-111.22,72.11l-1.37,3.84"/>
  <path class="cls-49" d="M823.88,851h0c28.96,9.53,60.31,8.93,88.88-1.7l6.22-2.31"/>
  <path class="cls-49" d="M927.8,844.25l3.41-7.34c5.07-10.92,1.68-23.91-8.08-30.96h0"/>
  <path class="cls-49" d="M926.6,870.27l9.78-8.63c22.37-19.73,23.06-54.37,1.49-74.97h0"/>
  <path class="cls-49" d="M874.14,911.35h0c42.72-1.02,93.47-41.21,103.91-82.3l1-3.95"/>
  <path class="cls-42" d="M819.56,829.07l22.76,7.99c18.24,6.4,38.17,6.05,56.17-.99l17.87-6.99h-96.79Z"/>
</svg>