<?xml version="1.0" encoding="UTF-8"?>
<svg id="Layer_1" data-name="Layer 1" xmlns="http://www.w3.org/2000/svg" viewBox="0 0 2000 2000">
  <defs>
    <style>
      .cls-1 {
        fill: #e74a9a;
      }

      .cls-1, .cls-2, .cls-3, .cls-4, .cls-5, .cls-6, .cls-7, .cls-8, .cls-9, .cls-10, .cls-11, .cls-12, .cls-13, .cls-14, .cls-15, .cls-16, .cls-17, .cls-18, .cls-19, .cls-20, .cls-21, .cls-22, .cls-23, .cls-24, .cls-25, .cls-26, .cls-27, .cls-28, .cls-29, .cls-30, .cls-31, .cls-32, .cls-33, .cls-34, .cls-35, .cls-36, .cls-37, .cls-38, .cls-39, .cls-40 {
        stroke-width: 0px;
      }

      .cls-2 {
        fill: #b3e3f5;
      }

      .cls-3 {
        fill: #2a6836;
      }

      .cls-4 {
        fill: #69ac45;
      }

      .cls-5 {
        fill: #a7ced8;
      }

      .cls-6 {
        fill: #f4d7c1;
      }

      .cls-7 {
        fill: #82a93f;
      }

      .cls-8 {
        fill: #5653a3;
      }

      .cls-9 {
        fill: #f9ede4;
      }

      .cls-10 {
        fill: #5e386d;
      }

      .cls-11 {
        fill: #d8a982;
      }

      .cls-12 {
        fill: #995ea6;
      }

      .cls-13 {
        fill: #8d4f9f;
      }

      .cls-14 {
        fill: #bee6f6;
      }

      .cls-15 {
        fill: #bbaed5;
      }

      .cls-16 {
        fill: #c19778;
      }

      .cls-17 {
        fill: #673e77;
      }

      .cls-18 {
        fill: #4c6f35;
      }

      .cls-19 {
        fill: #8f2a6a;
      }

      .cls-20 {
        fill: #8aaab2;
      }

      .cls-21 {
        fill: #eae1da;
      }

      .cls-22 {
        fill: #b0327f;
      }

      .cls-23 {
        fill: #f3c191;
      }

      .cls-24 {
        fill: #c6e5f8;
      }

      .cls-25 {
        fill: #9a9694;
      }

      .cls-26 {
        fill: #70983f;
      }

      .cls-27 {
        fill: #97bc3d;
      }

      .cls-28 {
        fill: #fefefd;
      }

      .cls-29 {
        fill: #e53a95;
      }

      .cls-30 {
        fill: #f47920;
      }

      .cls-31 {
        fill: #7da2bc;
      }

      .cls-32 {
        fill: #ad71b0;
      }

      .cls-33 {
        fill: #52a07f;
      }

      .cls-34 {
        fill: #599c45;
      }

      .cls-35 {
        fill: #89c345;
      }

      .cls-36 {
        fill: #cd3a8e;
      }

      .cls-37 {
        fill: #357a3c;
      }

      .cls-38 {
        fill: #80523b;
      }

      .cls-39 {
        fill: #cebfb2;
      }

      .cls-40 {
        fill: #799399;
      }
    </style>
  </defs>
  <polygon class="cls-23" points="918.15 1372.33 222.03 942.27 1199.8 375.14 1905.99 791.27 918.15 1372.33"/>
  <polygon class="cls-11" points="917.22 1669.68 222.03 1228.13 222.03 942.27 918.15 1372.33 917.22 1669.68"/>
  <polygon class="cls-16" points="1900.98 1026.88 917.22 1669.68 918.15 1372.33 1905.99 791.27 1900.98 1026.88"/>
  <path class="cls-31" d="M694.68,668.12s200.94,16.25,184.69,162.51,60.94,142.2,60.94,142.2c0,0,182.82-12.19,174.7,77.19s175.65,103.19,175.65,103.19l615.33-361.94-706.19-416.14-505.13,292.99Z"/>
  <path class="cls-24" d="M679.58,676.88s43.27,26.93,91.96,35.22c6.12,1.04,11.81,2.64,17.08,4.65,31.58,12,49.67,44.94,44.61,78.34-2.79,18.42-1.31,40.35,17.04,51.68,35.22,21.75,7.25,89.09,7.25,89.09,0,0,0,61.12,68.37,76.65s88.05-19.68,88.05-19.68c0,0,53.87-31.08,75.62,61.12s85.98,85.98,85.98,85.98c0,0,67.74-1.38,73.75,37.64v277.27l46.26-32.34v-269.27s-28.85-52.66-72.36-55.77-106.7-23.83-96.34-82.87-87.94-82.87-126.84-63.19-115.55,43.51-103.12-53.87c4.91-38.44,3.03-70.91-1.03-96.14-5.65-35.05-26.89-65.64-57.63-83.39l-115.02-66.42"/>
  <polygon class="cls-31" points="1295.54 1150.34 1295.54 1422.48 1900.98 1026.88 1905.99 791.27 1295.54 1150.34"/>
  <g>
    <ellipse class="cls-25" cx="767.62" cy="1039.11" rx="72.62" ry="8.87"/>
    <g>
      <path class="cls-40" d="M734.46,945.94s15.34,12.07,28.5,11.5c0,0,22.47,15.03,41.64,9.6,0,0,21.02,11.93,39.83,6.43,0,0,4.62,4.45,19.39,7.36,0,0-15.07-13.67-17.07-19.66,0,0-32.03.19-52.52-17.97,0,0-37.63.98-49.68-5.27l-10.09,8.02Z"/>
      <polygon class="cls-39" points="768.74 1040.24 775.39 1038.81 804.9 947.34 800.76 946.56 768.74 1040.24"/>
      <path class="cls-5" d="M803.28,921.45s-9.32,9.81-9.06,21.73c0,0,24.59,22.74,52.52,17.97,0,0,4.21-25.03-43.46-39.71Z"/>
      <path class="cls-2" d="M803.28,921.45s-9.84,12.42-9.06,21.73c0,0-22.87,13.7-49.68-5.27,0,0,18.12-23.97,58.74-16.47Z"/>
      <path class="cls-14" d="M744.54,937.92s-3.47,7.64-10.08,8.03c0,0,11.68-10.32,14.79-12.74l-4.71,4.72Z"/>
      <path class="cls-20" d="M846.73,961.16s6.26,12.41,17.07,19.66c0,0,3.2-2.17,3.31-7.54,0,0-21.4-30.48-35.84-38.65,0,0,14.61,18.47,15.46,26.52Z"/>
    </g>
  </g>
  <g>
    <ellipse class="cls-25" cx="468.31" cy="868.33" rx="72.62" ry="8.87"/>
    <g>
      <path class="cls-19" d="M501.47,775.16s-15.34,12.07-28.5,11.5c0,0-22.47,15.03-41.64,9.6,0,0-21.02,11.93-39.83,6.43,0,0-4.62,4.45-19.39,7.36,0,0,15.07-13.67,17.07-19.66,0,0,32.03.19,52.52-17.97,0,0,37.63.98,49.68-5.27l10.09,8.02Z"/>
      <polygon class="cls-39" points="467.18 869.47 460.53 868.03 431.02 776.56 435.17 775.78 467.18 869.47"/>
      <path class="cls-36" d="M432.65,750.67s9.32,9.81,9.06,21.73c0,0-24.59,22.74-52.52,17.97,0,0-4.21-25.03,43.46-39.71Z"/>
      <path class="cls-29" d="M432.65,750.67s9.84,12.42,9.06,21.73c0,0,22.87,13.7,49.68-5.27,0,0-18.12-23.97-58.74-16.47Z"/>
      <path class="cls-1" d="M491.38,767.14s3.47,7.64,10.08,8.03c0,0-11.68-10.32-14.79-12.74l4.71,4.72Z"/>
      <path class="cls-22" d="M389.19,790.38s-6.26,12.41-17.07,19.66c0,0-3.2-2.17-3.31-7.54,0,0,21.4-30.48,35.84-38.65,0,0-14.61,18.47-15.46,26.52Z"/>
    </g>
    <path class="cls-9" d="M432.65,750.67s25.49,6.06,27.88,26.52c0,0,4.45.73,10.56-.96,0,0-5.14-20.99-38.44-25.56Z"/>
    <path class="cls-9" d="M406.2,790.19s11.52-1.86,16.82-5.56c0,0-5.78-24.24,9.62-33.96,0,0-26.14,10.98-26.45,39.52Z"/>
    <path class="cls-21" d="M377.34,805.87s4.59-5.38,6.85-8.15c0,0,.61-15.52,20.45-33.87,0,0-24.04,19.08-27.31,42.01Z"/>
  </g>
  <polygon class="cls-30" points="606.91 869.15 548.63 834.47 676.31 757.27 735.64 790.49 606.91 869.15"/>
  <polygon class="cls-8" points="644.35 949.47 586.07 914.79 713.75 837.59 773.09 870.81 644.35 949.47"/>
  <polygon class="cls-33" points="1030.25 1234.06 985.7 1182.92 1131.1 1149.43 1177.1 1199.51 1030.25 1234.06"/>
  <polygon class="cls-6" points="557.12 839.52 560.35 841.42 686.57 762.58 682.41 760.36 557.12 839.52"/>
  <polygon class="cls-6" points="569.15 846.68 572.42 848.54 698.65 769.71 694.48 767.49 569.15 846.68"/>
  <polygon class="cls-6" points="581.95 854.29 584.92 856.35 711.7 777.17 707.54 774.95 581.95 854.29"/>
  <polygon class="cls-6" points="594.17 861.57 596.97 863.23 723.82 784.01 719.66 781.79 594.17 861.57"/>
  <g>
    <ellipse class="cls-25" cx="1024.41" cy="1231.05" rx="72.62" ry="7.63"/>
    <g>
      <path class="cls-10" d="M1057.57,1150.93s-15.34,10.38-28.5,9.89c0,0-22.47,12.93-41.64,8.25,0,0-21.02,10.26-39.83,5.53,0,0-4.62,3.82-19.39,6.33,0,0,15.07-11.75,17.07-16.91,0,0,32.03.16,52.52-15.45,0,0,37.63.84,49.68-4.53l10.09,6.89Z"/>
      <polygon class="cls-39" points="1023.28 1232.03 1016.63 1230.79 987.12 1152.13 991.27 1151.46 1023.28 1232.03"/>
      <path class="cls-13" d="M988.75,1129.87s9.32,8.44,9.06,18.69c0,0-24.59,19.55-52.52,15.45,0,0-4.21-21.52,43.46-34.14Z"/>
      <path class="cls-12" d="M988.75,1129.87s9.84,10.68,9.06,18.69c0,0,22.87,11.78,49.68-4.53,0,0-18.12-20.61-58.74-14.16Z"/>
      <path class="cls-32" d="M1047.49,1144.03s3.47,6.57,10.08,6.9c0,0-11.68-8.88-14.79-10.96l4.71,4.06Z"/>
      <path class="cls-17" d="M945.29,1164.02s-6.26,10.67-17.07,16.91c0,0-3.2-1.86-3.31-6.48,0,0,21.4-26.21,35.84-33.23,0,0-14.61,15.89-15.46,22.81Z"/>
    </g>
  </g>
  <path class="cls-15" d="M729.97,866.41l.5-.81-.62-.72c-.72-.85.06-2.12,1.14-1.86l.92.22.5-.81c.58-.95,2.04-.6,2.13.51l.07.95.92.22c1.08.26,1.2,1.75.17,2.18l-.88.36.07.95c.09,1.11-1.3,1.68-2.02.84l-.62-.72-.88.36c-1.03.43-2-.71-1.42-1.66Z"/>
  <path class="cls-15" d="M708.68,865.29l.5-.81-.62-.72c-.72-.85.06-2.12,1.14-1.86l.92.22.5-.81c.58-.95,2.04-.6,2.13.51l.07.95.92.22c1.08.26,1.2,1.75.17,2.18l-.88.36.07.95c.09,1.11-1.3,1.68-2.02.84l-.62-.72-.88.36c-1.03.43-2-.71-1.42-1.66Z"/>
  <path class="cls-15" d="M725.8,884.04l.5-.81-.62-.72c-.72-.85.06-2.12,1.14-1.86l.92.22.5-.81c.58-.95,2.04-.6,2.13.51l.07.95.92.22c1.08.26,1.2,1.75.17,2.18l-.88.36.07.95c.09,1.11-1.3,1.68-2.02.84l-.62-.72-.88.36c-1.03.43-2-.71-1.42-1.66Z"/>
  <path class="cls-15" d="M700.34,885.79l.5-.81-.62-.72c-.72-.85.06-2.12,1.14-1.86l.92.22.5-.81c.58-.95,2.04-.6,2.13.51l.07.95.92.22c1.08.26,1.2,1.75.17,2.18l-.88.36.07.95c.09,1.11-1.3,1.68-2.02.84l-.62-.72-.88.36c-1.03.43-2-.71-1.42-1.66Z"/>
  <path class="cls-15" d="M680.08,870.14l.5-.81-.62-.72c-.72-.85.06-2.12,1.14-1.86l.92.22.5-.81c.58-.95,2.04-.6,2.13.51l.07.95.92.22c1.08.26,1.2,1.75.17,2.18l-.88.36.07.95c.09,1.11-1.3,1.68-2.02.84l-.62-.72-.88.36c-1.03.43-2-.71-1.42-1.66Z"/>
  <path class="cls-15" d="M673.29,891.68l.5-.81-.62-.72c-.72-.85.06-2.12,1.14-1.86l.92.22.5-.81c.58-.95,2.04-.6,2.13.51l.07.95.92.22c1.08.26,1.2,1.75.17,2.18l-.88.36.07.95c.09,1.11-1.3,1.68-2.02.84l-.62-.72-.88.36c-1.03.43-2-.71-1.42-1.66Z"/>
  <path class="cls-15" d="M683.26,908.41l.5-.81-.62-.72c-.72-.85.06-2.12,1.14-1.86l.92.22.5-.81c.58-.95,2.04-.6,2.13.51l.07.95.92.22c1.08.26,1.2,1.75.17,2.18l-.88.36.07.95c.09,1.11-1.3,1.68-2.02.84l-.62-.72-.88.36c-1.03.43-2-.71-1.42-1.66Z"/>
  <path class="cls-15" d="M643.66,891.03l.5-.81-.62-.72c-.72-.85.06-2.12,1.14-1.86l.92.22.5-.81c.58-.95,2.04-.6,2.13.51l.07.95.92.22c1.08.26,1.2,1.75.17,2.18l-.88.36.07.95c.09,1.11-1.3,1.68-2.02.84l-.62-.72-.88.36c-1.03.43-2-.71-1.42-1.66Z"/>
  <path class="cls-15" d="M648.4,907.48l.5-.81-.62-.72c-.72-.85.06-2.12,1.14-1.86l.92.22.5-.81c.58-.95,2.04-.6,2.13.51l.07.95.92.22c1.08.26,1.2,1.75.17,2.18l-.88.36.07.95c.09,1.11-1.3,1.68-2.02.84l-.62-.72-.88.36c-1.03.43-2-.71-1.42-1.66Z"/>
  <path class="cls-15" d="M648.4,932.63l.5-.81-.62-.72c-.72-.85.06-2.12,1.14-1.86l.92.22.5-.81c.58-.95,2.04-.6,2.13.51l.07.95.92.22c1.08.26,1.2,1.75.17,2.18l-.88.36.07.95c.09,1.11-1.3,1.68-2.02.84l-.62-.72-.88.36c-1.03.43-2-.71-1.42-1.66Z"/>
  <path class="cls-15" d="M627.58,922l.5-.81-.62-.72c-.72-.85.06-2.12,1.14-1.86l.92.22.5-.81c.58-.95,2.04-.6,2.13.51l.07.95.92.22c1.08.26,1.2,1.75.17,2.18l-.88.36.07.95c.09,1.11-1.3,1.68-2.02.84l-.62-.72-.88.36c-1.03.43-2-.71-1.42-1.66Z"/>
  <path class="cls-15" d="M608.62,910.49l.5-.81-.62-.72c-.72-.85.06-2.12,1.14-1.86l.92.22.5-.81c.58-.95,2.04-.6,2.13.51l.07.95.92.22c1.08.26,1.2,1.75.17,2.18l-.88.36.07.95c.09,1.11-1.3,1.68-2.02.84l-.62-.72-.88.36c-1.03.43-2-.71-1.42-1.66Z"/>
  <path class="cls-15" d="M625.7,902.55l.5-.81-.62-.72c-.72-.85.06-2.12,1.14-1.86l.92.22.5-.81c.58-.95,2.04-.6,2.13.51l.07.95.92.22c1.08.26,1.2,1.75.17,2.18l-.88.36.07.95c.09,1.11-1.3,1.68-2.02.84l-.62-.72-.88.36c-1.03.43-2-.71-1.42-1.66Z"/>
  <path class="cls-15" d="M713.95,850.65l.5-.81-.62-.72c-.72-.85.06-2.12,1.14-1.86l.92.22.5-.81c.58-.95,2.04-.6,2.13.51l.07.95.92.22c1.08.26,1.2,1.75.17,2.18l-.88.36.07.95c.09,1.11-1.3,1.68-2.02.84l-.62-.72-.88.36c-1.03.43-2-.71-1.42-1.66Z"/>
  <g>
    <path class="cls-35" d="M326.72,911.08c.67.07,1.07.44,1.18,1.11.12.8.34,1.53,1.24,1.79,0,0-.1-.11-.1-.11-.03.99.17,1.83,1.31,2.09.35-.08.54.06.59.41,1.84,4.72.58,9.31-.81,14.02,2.94-3.27,6.43-5.34,9.9-7.44,4.94.85,9.66,2.42,14.28,4.33,6.44,2.66,9.97,7.67,9.65,13.71-.3,5.67-4.28,10.33-10.76,12.3-1.88.57-3.91.93-5.88.94-33.65.28-67.29.48-100.94.69-.82,0-1.65-.16-2.47-.25,0-.83-.04-1.67.01-2.49.53-8.06,2.87-9.61,10.51-6.97.27.09.6.01.91.01-2.03-10.42-1.53-12.13,4.19-14.44,5.82-2.34,8.66-1.02,13.85,6.49.83-3.19,1.49-6.37,2.5-9.44,2.94-8.92,9.93-12.04,18.38-8.03,2.76,1.31,4.64.92,5.55-1.74,2.24-6.57,7.62-9.09,13.48-11.14,4.01.52,8.28.08,11.64,3.07.59.36,1.19.72,1.78,1.08ZM271.77,941.05c-.67-1.62-1.8-2.88-3.86-2.93-.87-.02-1.82.34-1.5,1.34.6,1.87,2.29,2.67,4.02,3.17,1.01.29,1.4-.45,1.33-1.58ZM295.79,947.85c.82,3.1,2.8,3.77,5.59,4.1-.62-3.33-2.45-4.21-5.59-4.1ZM318.38,929.72c-.67,3.33-.7,5.41,2.12,6.81.81-2.53.37-4.44-2.12-6.81ZM324.29,931.64c1.94-1.28,3.67-2.24,3.36-4.61-.03-.26-.88-.72-1.1-.61-1.88.96-3.07,2.35-2.26,5.22ZM279.45,938.45c.61-3.36.79-5.48-.11-8.3-1.93,2.76-1.79,4.86.11,8.3Z"/>
    <path class="cls-4" d="M313.3,906.93c-5.86,2.05-11.25,4.57-13.48,11.14-.91,2.67-2.79,3.05-5.55,1.74-8.45-4.02-15.44-.9-18.38,8.03-1.01,3.07-1.67,6.25-2.5,9.44-5.19-7.51-8.03-8.83-13.85-6.49-5.72,2.3-6.22,4.01-4.19,14.44-.31,0-.64.08-.91-.01-7.63-2.64-9.97-1.09-10.51,6.97-.05.83-.01,1.66-.01,2.49-1.02.02-2.03.04-3.05.06-.28-.44-.57-.44-.85,0-3.06,0-6.11,0-9.17.01-.24-.43-.51-.48-.8-.04-.84-.21-1.69-.42-2.53-.63,0,0,.19.01.19.01-4.64-2.09-5.9-5.99-5.66-10.65.18-3.39,1.39-6.9,4.9-7.22,4.57-.41,7.9-.95,9.04-6.3.42-1.95,3.52-2.52,5.7-2.08,2.96.6,3.08-.81,3.3-3.15.83-8.51,6.52-14.68,14.62-16.98,5.1-1.45,8.89,1.26,13.33,3.66,0-1.16.08-1.78-.01-2.37-1.65-9.98,4.19-18.85,14.8-20.71,10.47-1.84,20.97,4.04,24.37,13.8.54,1.56.79,3.22,1.18,4.83Z"/>
    <path class="cls-4" d="M340.03,922.95c-3.48,2.09-6.97,4.17-9.9,7.44,1.39-4.7,2.65-9.3.81-14.02,4.23.54,7.7,2.12,9.09,6.58Z"/>
    <path class="cls-4" d="M326.72,911.08c-.59-.36-1.19-.72-1.78-1.08.82,0,1.43.32,1.78,1.08Z"/>
    <path class="cls-4" d="M329.15,913.98c-.9-.26-1.12-.99-1.24-1.79.84.3,1.18.95,1.24,1.79Z"/>
    <path class="cls-4" d="M330.35,915.96c-1.14-.26-1.33-1.1-1.31-2.09.9.41,1.11,1.24,1.31,2.09Z"/>
    <path class="cls-35" d="M227.71,954.09s-.19-.01-.19-.01c0,0,.19.01.19.01Z"/>
    <path class="cls-35" d="M230.06,954.71c.29-.43.56-.39.8.04,0,0-.41.17-.41.17l-.39-.21Z"/>
    <path class="cls-35" d="M240.02,954.74c.28-.44.56-.45.85,0,0,0-.42.18-.42.18l-.42-.18Z"/>
    <path class="cls-4" d="M271.77,941.05c.07,1.12-.32,1.87-1.33,1.58-1.73-.5-3.43-1.31-4.02-3.17-.32-1,.62-1.36,1.5-1.34,2.05.05,3.18,1.31,3.86,2.93Z"/>
    <path class="cls-4" d="M295.79,947.85c3.14-.11,4.97.77,5.59,4.1-2.79-.33-4.77-1-5.59-4.1Z"/>
    <path class="cls-4" d="M318.38,929.72c2.49,2.37,2.93,4.28,2.12,6.81-2.82-1.4-2.78-3.48-2.12-6.81Z"/>
    <path class="cls-4" d="M324.29,931.64c-.81-2.87.38-4.26,2.26-5.22.22-.11,1.07.35,1.1.61.31,2.37-1.42,3.33-3.36,4.61Z"/>
    <path class="cls-4" d="M279.45,938.45c-1.91-3.45-2.04-5.54-.11-8.3.91,2.83.72,4.94.11,8.3Z"/>
  </g>
  <g>
    <path class="cls-4" d="M841.7,1303.7c-.09-.65-.1-1.33-.3-1.95-2.43-7.93-1.36-11.74,3.97-13.93,7.06-2.91,11.46-1.19,15.49,6.02.15.26.46.43,1.08.98,1.12-2.34,1.34-4.7,1.59-7.05.7-1.86,1.3-3.77,2.12-5.58,2.38-5.26,5.84-9.34,12.04-9.92,7.37-.69,11.61,3.71,14.92,9.49,1.18,4.62,2.35,9.23,3.69,14.45,1.75-6.27,4.95-10.02,11.39-9.7,1.31.13,2.62.25,3.92.38,6.52,4.17,7.32,6.23,5.45,13.91-.23.96-.32,1.95-.47,2.92-.84.44-.98,1.2-.95,2.04-.09.12-.18.24-.26.36.07-.13.15-.27.22-.4.82-.39,1.07-1.1,1.05-1.94,8.05-2.33,11.17-.87,12.8,5.94,1.38,5.77-2.19,9.26-5.8,12.73-8.89,2.96-18.1,1.91-27.19,1.96-17.28.08-34.56-.09-51.84-.17-3.88-.02-7.61-.59-10.92-2.84-5.47-3.71-6.79-11.41-2.86-16.71,3.21-4.32,6.72-2,10.2-.51.37.63.73,1.26,1.09,1.9.47-.91.57-1.75-.43-2.39ZM848.08,1297.15c3.31-.71,4.36-2.93,4.44-5.83.02-.78-.66-1.4-1.26-1.11-2.45,1.21-3.52,3.35-3.53,6.04,0,.15.11.3.35.9ZM913.7,1317.26c3.43.58,5.23-.87,6.38-3.54.29-.67.3-1.54-.37-1.68-2.66-.56-3.52,1.95-5.07,3.26-.42.36-.54,1.08-.94,1.95ZM910.04,1321.27c.33-1.76.5-2.38.56-3,.19-2.09-.23-3.94-2.29-4.95-.31-.15-1.09,0-1.24.25-1.11,1.9.24,3.41.98,4.98.32.67.88,1.23,1.99,2.73ZM891.38,1296.4c1.12-.23,1.36-1.08.98-1.85-.81-1.67-.4-4.27-3.06-4.6-1.31-.16-1.8.9-1.44,1.97.63,1.88,1.41,3.74,3.52,4.49ZM849.62,1306.1c-.08-2.14-1.1-3.72-3.33-4.16-.9-.18-1.63.56-1.16,1.55.83,1.73,1.06,4.08,3.15,4.74,1.36.43,1.21-1.12,1.34-2.13Z"/>
    <path class="cls-3" d="M911.61,1286.9c-1.31-.13-2.62-.25-3.92-.38-.8-3.24-3.32-4.42-6.2-4.69-2.93-.28-5.91-.06-8.87-.06-3.31-5.79-7.55-10.18-14.92-9.49-6.2.58-9.66,4.66-12.04,9.92-.82,1.81-1.42,3.72-2.12,5.58-4.78-7.6-1.2-18.9,7.52-23.76,8.37-4.66,19.62-1.84,23.56,5.94.59,1.16.98,2.41,1.47,3.65,4.75-8.84,6.76-8.83,13.02,1,1.53-8.18,4.27-15.36,13.47-14.52,9.2.84,10.06,9.35,12.8,16.67.71-3.8,1.12-7.04,1.94-10.17,3.01-11.46,12.49-14.38,21.61-6.68,1.26,1.06,2.37,2.35,3.33,3.69,2.18,3.05,2.12,7.15,3.76,10.09,1.56,2.78,6.27-.53,9.49,1.45,4,2.46,5.89,5.74,5.51,10.33-.15,1.76-.61,3.49-.93,5.19.52.2.94.51,1.1.41,8.68-5.7,15.81-4.31,21.65,4.24,5.32,7.79,3.45,18.89-4.25,24.5-3.88,2.82-8.19,4.39-13.11,3.62-1.34-.93-3.32-.45-3.32-3.63,0-3.65-4.8-.92-6.89-2.82,8.16-4.45,11.27-8.97,10.25-14.72-1.4-7.91-9.27-16.26-14.59-16.35-4.03-.07-8.35-1.5-12.09,1.17-3.4,2.43-7.12,4.63-8.32,9.4-.9-3.14-1.84-6.36-5.26-6.48-5.23-.19-5.45,5.17-8.05,8.34-.39-6.95-2.55-13.29-4.6-19.66-1.27-3.95-7.24-9.11-10.96-8.78-4.4.39-6.77,3.25-8.47,7.32-1.35,3.23-1.65,6.36-1.58,9.69Z"/>
    <path class="cls-37" d="M911.61,1286.9c-.07-3.32.23-6.46,1.58-9.69,1.69-4.07,4.07-6.93,8.47-7.32,3.73-.33,9.69,4.83,10.96,8.78,2.05,6.37,4.21,12.71,4.6,19.66,2.59-3.17,2.82-8.53,8.05-8.34,3.42.12,4.36,3.34,5.26,6.48,1.2-4.76,4.92-6.97,8.32-9.4,3.75-2.67,8.06-1.24,12.09-1.17,5.32.09,13.19,8.45,14.59,16.35,1.02,5.75-2.09,10.28-10.25,14.72,2.09,1.9,6.89-.84,6.89,2.82,0,3.18,1.98,2.7,3.32,3.63-20.62.42-41.23-.58-61.84-.97,3.62-3.48,7.19-6.97,5.8-12.73-1.63-6.81-4.75-8.27-12.8-5.94,0,0-.06-.05-.06-.05.15-.98.24-1.97.47-2.92,1.87-7.68,1.07-9.74-5.45-13.91Z"/>
    <path class="cls-37" d="M892.61,1281.76c2.96,0,5.94-.21,8.87.06,2.89.27,5.41,1.45,6.2,4.69-6.44-.33-9.64,3.42-11.39,9.7-1.33-5.22-2.51-9.84-3.69-14.45Z"/>
    <path class="cls-34" d="M848.08,1297.15c-.24-.6-.35-.75-.35-.9,0-2.69,1.08-4.83,3.53-6.04.6-.29,1.28.33,1.26,1.11-.09,2.9-1.13,5.12-4.44,5.83Z"/>
    <path class="cls-34" d="M913.7,1317.26c.4-.87.51-1.59.94-1.95,1.55-1.31,2.4-3.82,5.07-3.26.67.14.66,1.01.37,1.68-1.14,2.66-2.95,4.12-6.38,3.54Z"/>
    <path class="cls-34" d="M910.04,1321.27c-1.11-1.49-1.67-2.05-1.99-2.73-.74-1.57-2.09-3.08-.98-4.98.15-.25.93-.4,1.24-.25,2.06,1.02,2.48,2.87,2.29,4.95-.06.62-.23,1.24-.56,3Z"/>
    <path class="cls-34" d="M891.38,1296.4c-2.11-.75-2.89-2.62-3.52-4.49-.35-1.06.13-2.13,1.44-1.97,2.66.34,2.25,2.94,3.06,4.6.38.78.14,1.63-.98,1.85Z"/>
    <path class="cls-34" d="M849.62,1306.1c-.12,1.02.02,2.56-1.34,2.13-2.09-.66-2.32-3.01-3.15-4.74-.48-.99.25-1.73,1.16-1.55,2.23.44,3.25,2.02,3.33,4.16Z"/>
    <path class="cls-28" d="M841.7,1303.7c1,.64.9,1.48.43,2.39-.36-.63-.72-1.27-1.09-1.9.21-.17.44-.33.66-.5Z"/>
    <path class="cls-37" d="M915.64,1305.77c-.03-.84.11-1.6.95-2.04,0,0,.06.05.06.05.02.85-.23,1.55-1.05,1.94l.05.05Z"/>
    <path class="cls-37" d="M915.59,1305.72c-.07.13-.15.27-.22.4.09-.12.18-.24.26-.36,0,0-.05-.05-.05-.05Z"/>
  </g>
  <g>
    <path class="cls-4" d="M506.44,945.32c3.47-1.34,6.03-4.43,10.29-4.4,7.73.06,16.41,7.14,17.99,15.88,1.53,8.48-2.86,16.21-11.23,19.42-3.14,1.2-6.48,2.16-9.76,1.59-13.98-2.41-28.18-2.25-42.22-3.92,6.56-4.03,7.92-7.24,6.1-12.8-1.94-5.91-6.37-4.04-10.52-3.4,3.14-7.74,2.81-11.27-1.12-13.97-4.9-3.36-8.81-2.53-15.49,3.37-.94-1.78.17-3.53,0-5.25,2.89-10.36,12.56-15.81,21.77-8.69,2.79,2.16,2.86-.54,3.7-1.87,5.14-8.16,14.08-11.45,22.4-8.21,7.23,2.81,10.03,7.58,8.94,15.24-.32,2.28-.67,4.57-1.01,6.85-.3.31-.62.61-.88.95-.03.04.29.34.45.52.2-.43.39-.85.59-1.28ZM502.01,968.09c1.03,2.99,2.34,4.78,4.4,5.87.69.36,1.25-.54,1.14-1.16-.44-2.57-2.29-3.74-5.54-4.7ZM503.63,941.25c-2.72,1.82-4.87,2.41-5.15,4.99-.03.29.63.97.85.92,2.35-.55,3.42-2.26,4.3-5.91ZM495.87,949.25c-.61-.99-.31-2.81-1.88-3.51-.87-.39-1.63.44-1.52,1.34.19,1.44.46,3.03,2.07,3.63.76.28,1.09-.46,1.32-1.47ZM525.34,955.18c1.93-1.63,3.03-3.03,1.92-5.81-1.98,1.6-3.02,3.02-1.92,5.81Z"/>
    <path class="cls-35" d="M450.47,941.82c.17,1.72-.93,3.47,0,5.25,6.69-5.89,10.59-6.73,15.49-3.37,3.93,2.7,4.26,6.23,1.12,13.97,4.15-.63,8.58-2.51,10.52,3.4,1.82,5.56.46,8.77-6.1,12.8-3.57,1.1-7.17,1.09-10.87.72-19.02-1.94-38.05-3.8-57.09-5.59-3.57-.34-6.9-1.23-9.88-3.16-5.39-3.49-6.2-10.59-1.83-15.18,1.94-2.04,2.89-2.05,9.35.02-.15-5.12-2.38-11.12,5.07-13.14,6.24-1.69,9.63-.02,13.78,7.12,1.26-3.13,2.23-6.12,3.62-8.9,3.23-6.45,7.48-9.04,13.3-8.52,6.47.57,9.41,4.89,11.36,10.42.51,1.45,0,3.52,2.14,4.16ZM396.91,956.96c.35,3.46,1.87,5.32,4.78,5.98.32.07,1.12-.47,1.09-.65-.36-2.55-2.21-3.9-4.27-5.03-.27-.15-.63-.13-1.6-.3ZM459.81,944.81c-.92.13-1.6.51-1.25,1.59.54,1.72.98,3.63,3.09,4.09.82.18,1.09-.73.96-1.36-.35-1.77-.65-3.64-2.8-4.31ZM460.21,961.52c1.84-1.47,3.91-2.27,3.73-4.95-.05-.79-.59-1.31-1.28-1.02-2.47,1.04-3.27,2.92-2.45,5.97ZM406.08,965.18c1.95-.29,2.44-2,3.12-3.44.33-.69.58-1.96-.35-2.1-2.04-.31-2.85,1.39-3.43,2.95-.32.86-.63,1.96.66,2.59ZM427.18,943.6c-.14-.56.26-1.76-.9-1.74-2.01.04-2.43,1.91-3.04,3.35-.36.84.05,1.84,1.07,1.61,1.49-.34,2.53-1.43,2.87-3.23Z"/>
    <path class="cls-34" d="M502.01,968.09c3.25.97,5.1,2.14,5.54,4.7.11.63-.45,1.53-1.14,1.16-2.07-1.09-3.37-2.88-4.4-5.87Z"/>
    <path class="cls-34" d="M503.63,941.25c-.88,3.65-1.95,5.36-4.3,5.91-.21.05-.88-.63-.85-.92.27-2.58,2.43-3.16,5.15-4.99Z"/>
    <path class="cls-34" d="M495.87,949.25c-.23,1.01-.56,1.75-1.32,1.47-1.61-.6-1.88-2.19-2.07-3.63-.12-.9.64-1.73,1.52-1.34,1.56.7,1.27,2.51,1.88,3.51Z"/>
    <path class="cls-34" d="M525.34,955.18c-1.1-2.79-.07-4.21,1.92-5.81,1.11,2.78,0,4.18-1.92,5.81Z"/>
    <path class="cls-28" d="M506.44,945.32c-.2.43-.39.85-.59,1.28-.16-.18-.48-.48-.45-.52.26-.34.58-.64.88-.95,0,0,.17.19.17.19Z"/>
    <path class="cls-4" d="M396.91,956.96c.97.17,1.33.15,1.6.3,2.06,1.13,3.92,2.48,4.27,5.03.02.17-.78.72-1.09.65-2.91-.65-4.44-2.51-4.78-5.98Z"/>
    <path class="cls-4" d="M459.81,944.81c2.15.67,2.44,2.54,2.8,4.31.13.64-.14,1.54-.96,1.36-2.11-.46-2.54-2.37-3.09-4.09-.34-1.08.33-1.46,1.25-1.59Z"/>
    <path class="cls-4" d="M460.21,961.52c-.82-3.05-.02-4.93,2.45-5.97.69-.29,1.23.23,1.28,1.02.18,2.68-1.89,3.48-3.73,4.95Z"/>
    <path class="cls-4" d="M406.08,965.18c-1.3-.64-.98-1.73-.66-2.59.59-1.57,1.39-3.26,3.43-2.95.94.14.68,1.41.35,2.1-.69,1.44-1.17,3.15-3.12,3.44Z"/>
    <path class="cls-4" d="M427.18,943.6c-.35,1.8-1.38,2.88-2.87,3.23-1.02.23-1.42-.77-1.07-1.61.61-1.45,1.03-3.31,3.04-3.35,1.15-.02.76,1.18.9,1.74Z"/>
  </g>
  <g>
    <path class="cls-37" d="M737.29,1185.36c-2,.68-4.03.58-6.06.2.12-2.17-3.72-4.13-.28-6.49,2.18-1.5,4.88-.76,8.12-1.51-6.1-3.31-11.73-5.6-12.6-12.74-.38-3.08,1.14-5.84.65-8.82,0-.68-.01-1.36-.02-2.04,2.6-1.62,4.05-4.05,4.93-6.9.34-.7.68-1.41,1.02-2.11,3.22-1.64,6.27-3.96,9.68-4.8,11.3-2.77,20.73,2.67,25.04,14.06.21-1.01.3-1.83.55-2.6.92-2.88,1.88-6.19,5.36-6.47,3.6-.28,5.42,2.62,6.81,5.61.87,1.86,1.9,3.66,3.45,6.62.53-11.1,2.63-20.38,7.19-28.98,2.17-4.09,5.82-6.37,10.46-6.37,4.37,0,7.83,1.43,9.82,6.08,1.54,3.59,2.28,7.17,2.66,10.95.11,1.11-.51,2.6.66,3.23,1.59.85,2.19-.99,3.18-1.71.53-.39.95-.93,1.42-1.4,6.07-6,22.39-4.64,27.4,2.31.26.37.22.96.32,1.44-7.96,4.29-10.69,11.56-11.28,20.17-5.69-8.12-9.04-9.68-15.23-6.72-6.82,3.26-4.52,8.82-2.65,14.26-8.36-3.25-12.36-.43-11.98,7.61.1,2.21,1.8,3.51,2.15,5.46-23.32.49-46.64.99-69.96,1.48-.31-.17-.59-.12-.81.17Z"/>
    <path class="cls-4" d="M808.07,1183.71c-.35-1.95-2.05-3.25-2.15-5.46-.37-8.05,3.62-10.87,11.98-7.61-1.87-5.44-4.18-10.99,2.65-14.26,6.19-2.96,9.55-1.41,15.23,6.72.59-8.61,3.32-15.88,11.28-20.17,2.28.24,4.8-.46,6.81.84,4.59,2.96,7.25,2.14,9.36-3.16,1.08-2.72,3.86-4.91,6.84-6.23,1.54-.68,3.04-1.39,3.24-3.36.72.87,1.3,1.44,2.75,1.47,14.61.32,19.36,6.49,16.28,20.8-.14.64-.15,1.3-.28,2.49,3.85-2.71,6.29-6.8,11.34-6.91,8.71-.18,17.08,6.2,19.2,15.09,2.02,8.44-2.22,16.25-10.89,20.1-2.94,1.31-6.02,2.02-9.22,1.89-25.17-1.04-50.25,1.24-75.38,1.75-6.65.14-13.42.77-19.05-4.01ZM882.22,1162c1.41-2.96.19-4.9-1.06-6.65-.42-.59-1.63-.24-1.87.73-.68,2.66,1.23,3.94,2.94,5.91ZM894.11,1178.16c-1.1-.13-1.86.24-1.87,1.21-.02,2.09,1.73,2.57,3.23,3.14.66.25,1.35-.08,1.37-.89.04-1.95-1.33-2.8-2.73-3.45ZM889.82,1151.08c-2.75.78-4.16,2.16-4.6,4.41-.15.75.61,1.35,1.25,1.04,2.08-.98,2.99-2.76,3.35-5.46ZM834.68,1167.9c-1.92-2.65-2.77-4.63-5.32-4.74-.3-.01-.95.68-.89.89.69,2.37,2.58,3.16,6.2,3.85ZM840.81,1156.62c-.38,1.95-1.69,4.04.58,6.21.88-2.43,1.04-4.35-.58-6.21Z"/>
    <path class="cls-3" d="M873.31,1131.02c-.19,1.97-1.7,2.67-3.24,3.36-2.98,1.33-5.76,3.52-6.84,6.23-2.11,5.3-4.77,6.12-9.36,3.16-2.02-1.3-4.53-.6-6.81-.84-.1-.49-.05-1.08-.32-1.44-5.01-6.96-21.33-8.32-27.4-2.31-.47.47-.89,1.01-1.42,1.4-.99.72-1.59,2.57-3.18,1.71-1.17-.63-.55-2.12-.66-3.23-.38-3.77-1.12-7.35-2.66-10.95-1.99-4.64-5.45-6.08-9.82-6.08-4.64,0-8.29,2.27-10.46,6.37-4.56,8.59-6.66,17.88-7.19,28.98-1.55-2.96-2.58-4.75-3.45-6.62-1.4-2.99-3.21-5.89-6.81-5.61-3.48.27-4.44,3.58-5.36,6.47-.25.77-.34,1.59-.55,2.6-4.31-11.38-13.75-16.83-25.04-14.06-3.41.84-6.46,3.16-9.68,4.8-4.21-11.01,1.51-19.22,12.87-17.97,3.58.39,3.85-.85,4.35-3.78,1.53-8.94,6.66-15.09,15.54-17.67,7.95-2.31,13.2.37,16.44,7.95,1.79,4.19,2.08,8.69,3.04,13.07,2.75-.73,2.44-3.36,3.25-5.22,2.32-5.32,4.92-10.4,11.39-11.44,7.92-1.27,14.05,3.58,15.98,12.29.42,1.89-.08,4,1.33,5.84,2.41-3.64,2.54-9.56,8.03-9.74,4.23-.14,5.65,3.95,6.79,9.18,1.79-6.28,4.34-10.23,8.81-12.8,4.39-2.52,9.04-3.3,13.95-2.67,9.33,1.19,16.53,8.66,18.48,19.01Z"/>
    <path class="cls-4" d="M727.12,1156c.5,2.98-1.02,5.74-.65,8.82.87,7.14,6.5,9.43,12.6,12.74-3.24.74-5.94,0-8.12,1.51-3.44,2.37.4,4.33.28,6.49-10.43.82-20.88.57-31.33.38-14.52.08-29.05-.49-43.57.35-3.12.56-6.24.55-9.37.1-.9-.65-1.79-.65-2.69,0-4.69.5-9.38.57-14.08.11.03-1.14-.1-2.32.12-3.43,1.46-7.48,4-8.69,10.83-5.28.28.14.64.12.96.18.15.13.29.26.44.39-.13-.14-.26-.29-.4-.43-.33-1.61-.65-3.22-1.01-4.82-1.42-6.28.57-9.15,7.1-10.19,6.09-.97,7.71.02,11.68,7.3.44-2.26.79-4.36,1.27-6.44,2.72-11.82,11.77-17.6,21.24-11.22,1.11.75,2.11,1.41,2.92-.72,2.6-6.85,7.81-10.88,14.74-12.85,5.42.05,10.6.83,14.7,4.85,1.3,2.24,2.66,4.41,5.49,4.97-.77.21-2.22.49-2.21.61.48,4.69-1.8,9.08-1.77,14.38,3.47-3.54,5.98-7.37,10.82-7.79ZM667.13,1165.31c-.25-1.03.47-2.72-1.15-2.8-1.72-.09-1.81,1.55-1.85,2.88-.03,1.36.16,3.09,1.7,3.06,1.92-.04,1.01-2,1.29-3.13ZM706.39,1167.82c.93-.09,1.66-.52,1.25-1.52-.57-1.41-.27-3.58-2.31-3.87-1.29-.19-1.19,1.23-1.21,2.17-.03,1.61.51,2.86,2.27,3.22ZM658.9,1173.76c-.73-1.46-1.88-2.78-3.54-3.53-.44-.2-1.67.17-1.69.37-.26,2.2,1.6,2.98,2.99,3.98.67.48,1.55.42,2.24-.82ZM711.57,1163.56c1.5-.89,2.14-2.38,2.37-4.05.1-.75-.57-1.4-1.21-1.12-1.68.72-2.21,2.35-2.45,4.01-.11.74.45,1.16,1.3,1.16Z"/>
    <path class="cls-35" d="M642.1,1177.97c-.32-.06-.68-.04-.96-.18-6.83-3.41-9.38-2.2-10.83,5.28-.22,1.11-.09,2.28-.12,3.43-4.31.11-8.62.36-12.93.29-4.16-.07-6.73-2.56-8.04-6.34-1.33-3.83-1.32-7.7,1.57-10.78,2.81-3,6.34-3.45,10-.96.39-7.55,1.37-8.82,8.27-8.97,2.9-.06,2.28-1.84,2.41-3.26.5-5.25,2.8-9.49,6.8-12.86,6.69-5.65,11.82-5.83,20.87-.68.17.2.34.4.51.61.03-.14.07-.29.1-.43-.23-.02-.46-.05-.68-.07.98-3.97-.39-8.12,1.42-12.13,3.41-7.54,9.31-10.86,17.2-11,9.13-.17,15.97,3.83,20.22,11.98,1.15,2.2,1.98,4.57,2.19,7.1-6.93,1.98-12.14,6.01-14.74,12.85-.81,2.13-1.81,1.47-2.92.72-9.47-6.38-18.53-.6-21.24,11.22-.48,2.08-.83,4.19-1.27,6.44-3.97-7.28-5.59-8.27-11.68-7.3-6.53,1.04-8.52,3.9-7.1,10.19.36,1.6.67,3.22,1.01,4.82l-.04.04Z"/>
    <path class="cls-3" d="M720.28,1148.8c-2.83-.55-4.19-2.73-5.49-4.97,6.71-4.03,12.06-.82,17.25,3.23-.88,2.85-2.33,5.28-4.93,6.9-1.89-2.24-3.7-4.57-6.83-5.16Z"/>
    <path class="cls-35" d="M656.33,1186.28c14.52-.84,29.05-.27,43.57-.35-14.52.7-29.04,1.01-43.57.35Z"/>
    <path class="cls-35" d="M644.27,1186.39c.9-.66,1.79-.66,2.69,0-.9.44-1.79.45-2.69,0Z"/>
    <path class="cls-4" d="M737.29,1185.36c.23-.28.5-.34.81-.17-.27.06-.54.11-.81.17Z"/>
    <path class="cls-35" d="M720.28,1148.8c3.13.59,4.94,2.93,6.83,5.16,0,.68.01,1.36.02,2.04-4.84.42-7.35,4.25-10.82,7.79-.03-5.3,2.25-9.69,1.77-14.38-.01-.13,1.44-.41,2.21-.61Z"/>
    <path class="cls-34" d="M882.22,1162c-1.71-1.98-3.61-3.25-2.94-5.91.25-.97,1.45-1.32,1.87-.73,1.26,1.75,2.47,3.69,1.06,6.65Z"/>
    <path class="cls-34" d="M894.11,1178.16c1.39.65,2.77,1.51,2.73,3.45-.02.82-.71,1.15-1.37.89-1.5-.57-3.25-1.05-3.23-3.14.01-.97.77-1.34,1.87-1.21Z"/>
    <path class="cls-34" d="M889.82,1151.08c-.36,2.7-1.27,4.48-3.35,5.46-.65.3-1.4-.29-1.25-1.04.44-2.26,1.86-3.63,4.6-4.41Z"/>
    <path class="cls-34" d="M834.68,1167.9c-3.62-.68-5.52-1.48-6.2-3.85-.06-.21.59-.9.89-.89,2.54.1,3.4,2.09,5.32,4.74Z"/>
    <path class="cls-34" d="M840.81,1156.62c1.62,1.86,1.46,3.78.58,6.21-2.27-2.17-.96-4.26-.58-6.21Z"/>
    <path class="cls-34" d="M667.13,1165.31c-.29,1.14.63,3.1-1.29,3.13-1.55.03-1.74-1.7-1.7-3.06.03-1.33.13-2.97,1.85-2.88,1.62.09.9,1.77,1.15,2.8Z"/>
    <path class="cls-34" d="M706.39,1167.82c-1.76-.37-2.29-1.62-2.26-3.23.02-.93-.08-2.35,1.21-2.17,2.04.3,1.74,2.46,2.31,3.87.41,1-.32,1.43-1.26,1.52Z"/>
    <path class="cls-34" d="M658.9,1173.76c-.69,1.25-1.57,1.3-2.24.82-1.39-1.01-3.26-1.78-2.99-3.98.02-.21,1.25-.57,1.69-.37,1.66.76,2.81,2.07,3.54,3.53Z"/>
    <path class="cls-34" d="M711.57,1163.56c-.85,0-1.41-.42-1.3-1.16.24-1.66.77-3.29,2.45-4.01.65-.28,1.32.37,1.21,1.12-.23,1.67-.87,3.16-2.37,4.05Z"/>
    <path class="cls-35" d="M642.14,1177.93c.13.14.26.29.4.43-.15-.13-.29-.26-.44-.39,0,0,.04-.04.04-.04Z"/>
    <path class="cls-28" d="M659.06,1143.04c.23.02.46.05.68.07-.03.14-.07.29-.1.43-.17-.2-.34-.41-.51-.61,0,0-.08.11-.08.11Z"/>
  </g>
  <g>
    <path class="cls-35" d="M574.15,1058.8c-5.05,1.99-10.4,2.1-15.69,2.26-22.76.67-45.53,1.22-68.29,1.79-.63.02-1.27-.25-1.91-.38-.69-.39-1.33-.93-2.07-1.16-7.47-2.36-8.65-10.96-6.44-16.4,1.91-4.7,3.99-5.03,12.03-2.62.25.35-.42,1.38.77,1.04-.26-.35-.51-.7-.77-1.04-.64-2.21-1.47-4.38-1.88-6.63-.65-3.59-.23-7.1,3.25-9.1,7.97-4.57,15.54-1.36,17.84,7.34.04.16.53.19,1.65.56l-.21-8.85c1.38-2.97,2.59-6.03,4.17-8.88,4.91-8.9,16.56-9.73,22.79-1.68,1,1.3,1.87,2.69,2.81,4.04,1.18,4.38,2.37,8.76,3.88,14.35,1.66-7.46,5.77-10.43,12.21-10.19l3.03.41c6.1,3.24,7.34,5.98,5.83,12.74-.28,1.27-.44,2.57-.65,3.86-.34.25-.76.5-.17.9.03.02.35-.36.53-.56,7.28-3.6,10.83-2.11,12.72,5.38,1.41,5.61-2.04,9.21-5.42,12.82ZM542.29,1033.54c-.84-2.59-.37-5.44-3.18-6.86-.72-.36-1.42-.03-1.49.66-.29,2.89,1.07,4.95,3.53,6.36.11.06.31-.04,1.14-.17ZM557.86,1049.84c-1.23.01-1.89.6-1.67,1.53.51,2.13,1.35,4.24,3.75,4.78.99.22,1.2-1.03,1.03-1.84-.42-1.97-1.02-3.88-3.11-4.48ZM499.64,1047.48c.4-3.15-.14-5.56-2.79-7.05-.63-.35-1.63,0-1.59.59.16,2.37,1.46,4.26,3.06,5.95.19.21.58.23,1.32.51ZM569.79,1050.51c.11-1.23-.3-1.99-1.34-1.71-2.07.55-3.46,1.93-4.01,4.04-.29,1.12.41,1.68,1.32,1.45,2.1-.51,3.22-2.15,4.03-3.79ZM502.08,1029.58c.09-.97-.57-1.7-1.38-1.25-1.73.97-2.85,2.58-3.05,4.63-.08.82.17,1.93,1.18,1.68,2.5-.63,2.63-3.01,3.26-5.06Z"/>
    <path class="cls-3" d="M561.31,1023.66c-1.01-.14-2.02-.28-3.03-.41-4.07-6.37-10.41-4.01-16.1-4.17-.93-1.35-1.8-2.75-2.81-4.04-6.23-8.05-17.88-7.22-22.79,1.68-1.58,2.86-2.79,5.92-4.17,8.89-1.25-3.18-3.04-6.27-1.55-9.87,2.14-11.18,9.19-16.85,20.2-16.49,7.27.24,10.45,5.46,13.79,11.23,2.54-5.09,5.96-8.07,11.64-6.33,1.29.4,1.8-.15,2.28-1.15,2.55-5.33,6.42-8.44,12.69-7.36,6.55,1.13,9.47,5.6,10.61,11.67.02.12.16.22.37.48,9.31-9.17,20.31-10.89,32.15-6.28,10.78,4.2,15.03,12.98,14.84,24.1.54.13.96.37,1.16.25,8.9-5.35,14.82-4.64,20.91,2.55,5.75,6.78,5.76,16.67-.05,23.36-2.55,2.94-5.58,5.22-9.59,5.8-10.84.26-21.68.53-32.52.79,5.77-1.05,11.57-1.12,17.36-1.37,2.05-.09,5.11.92,5.79-1.57.86-3.18-3.11-2.04-4.42-3.51-.18-.2-.2-.55-.3-.82,6.99-5.57,8.8-10.27,6.53-17.5-1.47-4.69-8.75-12.36-14.22-12.4-9.07-.06-14.25-.58-20.25,12.14-.21-3.85-1.42-7.17-4.92-7.3-5.03-.19-5.72,4.84-7.92,9.39-.92-7.97-2.34-14.6-5.24-20.69-1.91-4.01-4.61-7.82-9.69-8.34-5.28-.55-7.4,3.09-9.65,7.08-1.94,3.44-.72,6.82-1.08,10.2Z"/>
    <path class="cls-37" d="M561.31,1023.66c.36-3.38-.86-6.76,1.08-10.2,2.26-3.99,4.38-7.62,9.65-7.08,5.08.52,7.78,4.33,9.69,8.34,2.9,6.1,4.31,12.72,5.24,20.69,2.21-4.55,2.9-9.58,7.92-9.39,3.51.13,4.71,3.45,4.92,7.3,6-12.72,11.18-12.2,20.25-12.14,5.47.04,12.75,7.71,14.22,12.4,2.27,7.22.46,11.93-6.53,17.5.09.28.12.62.3.82,1.31,1.47,5.28.34,4.42,3.51-.67,2.49-3.74,1.49-5.79,1.57-5.79.25-11.59.32-17.36,1.37,10.84-.26,21.68-.53,32.52-.79-4.01,1.58-8.21.95-12.34.98-18.46.13-36.91.18-55.37.25,3.38-3.61,6.83-7.21,5.42-12.82-1.89-7.49-5.44-8.98-12.72-5.38-.12-.12-.24-.23-.36-.35.21-1.29.37-2.58.65-3.86,1.51-6.76.27-9.5-5.83-12.74Z"/>
    <path class="cls-35" d="M436.08,1064.23c-5.13.26-10.27.46-15.4.79-4.59.3-7.7-1.75-9.44-5.84-1.59-3.75-1.61-7.65.97-10.89,2.69-3.4,6.39-3.63,10.27-1.48-.25-7.15.93-8.67,7.55-9.08,2.3-.14,2.68-.95,2.78-2.95.28-5.75,2.71-10.26,7.33-14,6.72-5.44,13.22-4.98,20.05-.65.14.22.28.45.42.67.1-.12.2-.23.31-.35-.2-.15-.41-.29-.61-.44.04-.16.13-.32.12-.48-.74-13.15,4.06-20.74,14.24-22.55,12.24-2.17,22.42,4.26,25.93,16.38.18.64.3,1.3.44,1.95-6.87,2.05-12.15,5.93-14.38,13.02-.73,2.33-1.55,1.69-3.15.88-8.88-4.53-14.25-2.39-18.92,6.54-1.91,3.64-1.02,7.93-3.29,11.62-3.63-7.1-7.2-8.76-14.08-6.89-1.74.47-2.75,1.78-3.8,3.05-3.1,3.73.14,7.48.27,11.29-4.07-.27-8.84-3.93-10.59,3.12-.79,3.2-1.4,5.82,3.02,6.3Z"/>
    <path class="cls-4" d="M436.08,1064.23c-4.42-.48-3.81-3.1-3.02-6.3,1.75-7.05,6.52-3.38,10.59-3.12-.12-3.82-3.37-7.56-.27-11.29,1.05-1.27,2.06-2.57,3.8-3.05,6.89-1.87,10.46-.21,14.08,6.89,2.27-3.69,1.39-7.98,3.29-11.62,4.68-8.93,10.04-11.07,18.92-6.54,1.6.82,2.42,1.45,3.15-.88,2.23-7.1,7.51-10.97,14.38-13.02,3.28.15,6.57.29,9.85.44-1.49,3.61.3,6.7,1.55,9.87.07,2.87.14,5.73.22,8.85-1.12-.37-1.61-.41-1.65-.56-2.3-8.71-9.87-11.92-17.84-7.34-3.48,2-3.9,5.51-3.25,9.1.41,2.25,1.24,4.43,1.88,6.63h0c-8.04-2.4-10.11-2.07-12.03,2.63-2.22,5.44-1.04,14.04,6.44,16.4.74.23,1.38.77,2.07,1.16-17.37,1.11-34.76,1.76-52.17,1.75ZM456.55,1047.23c-.75.17-1.59.56-1.22,1.23.83,1.52,1.46,3.44,3.68,3.52.89.04,1.9-.39,1.47-1.37-.74-1.69-2.08-2.93-3.93-3.39ZM467.37,1046.17c1.44-1.74,2.08-3.49.51-5.4-.46-.55-1.33-.78-1.66-.06-.95,2.01-.45,3.83,1.15,5.46Z"/>
    <path class="cls-37" d="M542.18,1019.08c5.68.15,12.02-2.21,16.1,4.17-6.44-.25-10.56,2.73-12.21,10.19-1.51-5.59-2.7-9.97-3.88-14.35Z"/>
    <path class="cls-4" d="M542.29,1033.54c-.83.13-1.03.23-1.14.17-2.46-1.41-3.82-3.47-3.53-6.36.07-.69.77-1.02,1.49-.66,2.81,1.42,2.34,4.27,3.18,6.86Z"/>
    <path class="cls-4" d="M557.86,1049.84c2.09.6,2.69,2.51,3.11,4.48.17.81-.04,2.06-1.03,1.84-2.4-.54-3.24-2.65-3.75-4.78-.22-.93.44-1.52,1.67-1.53Z"/>
    <path class="cls-4" d="M499.64,1047.48c-.74-.28-1.12-.3-1.32-.51-1.6-1.68-2.9-3.57-3.06-5.95-.04-.59.96-.95,1.59-.59,2.65,1.49,3.19,3.9,2.79,7.05Z"/>
    <path class="cls-4" d="M569.79,1050.51c-.8,1.64-1.93,3.28-4.03,3.79-.91.22-1.62-.33-1.32-1.45.55-2.11,1.94-3.5,4.01-4.04,1.04-.27,1.45.48,1.34,1.71Z"/>
    <path class="cls-4" d="M502.08,1029.58c-.63,2.05-.76,4.44-3.26,5.06-1.01.25-1.26-.86-1.18-1.68.2-2.06,1.32-3.66,3.05-4.63.81-.45,1.47.28,1.38,1.25Z"/>
    <path class="cls-4" d="M491.77,1042.29c.26.35.51.7.77,1.04-1.19.34-.52-.69-.77-1.04,0,0,0,0,0,0Z"/>
    <path class="cls-37" d="M566.84,1040.6c-.18.19-.5.58-.53.56-.58-.4-.17-.65.17-.9.12.11.24.23.36.34Z"/>
    <path class="cls-28" d="M460.29,1019.99c.2.15.41.29.61.44-.1.12-.2.23-.31.35-.14-.22-.28-.45-.42-.67,0,0,.11-.11.11-.11Z"/>
    <path class="cls-34" d="M456.55,1047.23c1.84.46,3.19,1.7,3.93,3.39.43.98-.58,1.41-1.47,1.37-2.22-.09-2.84-2.01-3.68-3.52-.37-.67.47-1.06,1.22-1.23Z"/>
    <path class="cls-34" d="M467.37,1046.17c-1.6-1.63-2.11-3.45-1.15-5.46.34-.71,1.21-.49,1.66.06,1.57,1.91.93,3.66-.51,5.4Z"/>
  </g>
  <g>
    <path class="cls-34" d="M535.25,1120.43c-8.22-1.04-13.31-5.94-15.42-13.61-2.06-7.48.67-13.73,6.55-18.63,5.98-4.98,12.03-5.11,17.83.38,1.52-2.08.16-3.57-.03-5.09-.9-7.14,3.91-12.72,11.04-11.88,3.47.4,4.17-.77,4.73-3.66,1.33-6.9,5.38-11.72,12.1-14.01,7.24-2.47,12.47.01,15.01,7.23,1.1,3.11,1.62,6.42,2.41,9.68,2.16-.52,2.13-2.67,2.82-4.25,3.09-7.13,6.69-9.83,12.55-9.26,5.62.54,9.01,4.29,10.46,11.6.16.79.36,1.56.69,3,2.58-2.61,2.74-6.91,6.38-7.42,3.94-.55,4.87,3.03,6.46,6.18,3.62-8.68,9.91-12.53,18.72-11.49,7.66.9,12.61,5.5,15.19,12.7,2.9,8.08.61,14.23-7.81,18.18,12.41,3.39,16.45,9.28,13.2,18.18-.17-1.41.71-3.58-.67-4.05-1.49-.5-3.58-.15-4.99,1.29-.92.94-1.88,1.86-3.34,1.82h0c1.33-8.27-.4-12.77-5.56-15.3-3.03-1.48-7.01,1-8.87-.87-1.92-1.93-1.71-5.77-4.26-8.09-7.38-6.72-18.34-6.24-25.88,1.38-1.38-2.19-1.23-4.64-1.52-7.07-.56-4.7-2.49-8.77-7.59-9.92-4.88-1.11-8.18,1.45-10.64,5.45-1.47,2.38-2.88,4.77-3.59,7.51-2.1,2.74-3.98,5.61-5.06,8.92-1.32.05-2.55-.09-3.57-1.09-3.38-3.27-4.59-1-5.43,2.16-1.33,0-2.66-.01-3.99-.02-1.18-1.78-2.28-3.52-4.23-4.73-9.17-5.65-15.69-4.72-23.32,3.52-9.45,10.22-9,15.69,2,23.89.35.26.86.46.45,1.05-.78.29-1.56.55-2.32.87-1.29.54-3.41.43-3.12,2.48.32,2.24,2.44,1.81,4.03,1.84,2.82.05,5.64,0,8.46,0,.34.16,1.02-.09.84.69-.02.09-.24.19-.37.19-6.77.09-13.55.17-20.32.25Z"/>
    <path class="cls-35" d="M535.25,1120.43c6.77-.08,13.55-.16,20.32-.25.13,0,.35-.1.37-.19.18-.77-.5-.52-.84-.69-.29-1.1-.9-2.24-.8-3.31.32-3.85-.15-8.31,3.12-10.94,2.75-2.21,5.93-.21,8.71,1.26.14.13.28.27.43.4-.14-.14-.27-.28-.41-.42.2-1.75-.71-3.17-1.3-4.71-1.58-4.15.14-7.88,4.2-9.75,1.34-.62,3.07-.06,4.09-1.47,1.33,0,2.66.01,3.99.02,3.06,1.8,4.8,4.92,7.35,8.1.64-3.55,1.15-6.36,1.66-9.18,1.09-3.32,2.96-6.18,5.06-8.92,5.35-2.12,10.53-3.85,15.61,1.01,4.41,4.22,5.12,10.06,7.3,15.52,3.55-5.64,8.96-7.78,13.78-5.71,5.7,2.44,6.61,5.17,4.39,13.12-.09.32-.11.65-.16.98-.37.36-1.29.56-.36,1.28.12-.43.23-.86.35-1.3.98-.16,1.96-.27,2.92-.5,5.46-1.31,9.51,2.41,8.47,7.86-.4,2.1-.91,4.19-1.36,6.28-5.17,3.48-10.84,4.57-17.05,4.23-16.95-.93-33.91-.25-50.86-.29-12.97-.03-25.93-2.43-38.99-2.45ZM626.08,1097.16c-.07-1.6-.95-2.97-2.7-3.38-1.01-.24-1.21.86-1.18,1.7.05,1.66.99,2.82,2.45,3.35,1.03.37,1.35-.54,1.44-1.67ZM625.57,1109.87c2.26-1.56,3.42-3.23,3.22-5.51-.06-.67-.9-.84-1.55-.4-2.03,1.36-2.52,3.22-1.66,5.91ZM573.63,1113.43c-1.76.38-2.12,1.89-2.39,3.32-.17.91-.19,2.34,1.24,2.06,1.78-.34,1.58-2.31,2.15-3.61.41-.92.1-1.57-1-1.78ZM587.72,1099.08c2.53-.67,3.06-2.52,3.18-4.54.04-.78-.82-1.21-1.41-.71-1.54,1.29-2.74,2.82-1.77,5.25ZM567.78,1116.07c-.53-1.55-1.72-2.68-3.24-3.38-.64-.29-1.33.21-1.26,1.03.14,1.9,1.35,2.95,3.08,3.4.62.16,1.34-.02,1.43-1.06Z"/>
    <path class="cls-4" d="M632.12,1105.31c.05-.33.07-.66.16-.98,2.22-7.96,1.31-10.68-4.39-13.12-4.82-2.07-10.23.07-13.78,5.71-2.18-5.46-2.89-11.3-7.3-15.52-5.07-4.86-10.25-3.12-15.61-1.01.71-2.74,2.12-5.12,3.59-7.51,2.47-4,5.76-6.55,10.64-5.45,5.11,1.16,7.03,5.22,7.59,9.92.29,2.42.15,4.87,1.52,7.07,7.54-7.62,18.49-8.1,25.88-1.38,2.55,2.32,2.34,6.17,4.26,8.09,1.86,1.87,5.84-.62,8.87.87,5.15,2.52,6.89,7.02,5.56,15.3-.39.36-1.28.57-.36,1.3.12-.43.24-.86.36-1.3,1.46.04,2.42-.88,3.34-1.82,1.42-1.44,3.5-1.79,4.99-1.29,1.39.47.51,2.63.67,4.05-2.29,6.22-7.28,8.84-13.35,10.02-.82.14-1.65.29-2.48.43-3.37.82-6.76.51-10.16.24.46-2.09.96-4.18,1.36-6.28,1.03-5.45-3.01-9.17-8.47-7.86-.96.23-1.95.33-2.92.5,0,0,.02.01.02.01Z"/>
    <path class="cls-4" d="M573.14,1090.37c-1.02,1.4-2.75.85-4.09,1.47-4.06,1.88-5.78,5.6-4.2,9.75.59,1.54,1.5,2.96,1.3,4.71l-.02.02c-2.78-1.47-5.96-3.48-8.71-1.26-3.27,2.63-2.8,7.09-3.12,10.94-.09,1.07.52,2.2.8,3.31-2.82,0-5.64.05-8.46,0-1.59-.03-3.71.39-4.03-1.84-.3-2.06,1.83-1.94,3.12-2.48.76-.32,1.54-.58,2.32-.87.41-.59-.1-.78-.45-1.05-10.99-8.2-11.45-13.67-2-23.89,7.63-8.25,14.14-9.17,23.32-3.52,1.95,1.2,3.05,2.95,4.23,4.73Z"/>
    <path class="cls-4" d="M586.13,1089.31c-.51,2.81-1.01,5.62-1.66,9.18-2.55-3.18-4.28-6.3-7.35-8.1.84-3.16,2.05-5.43,5.43-2.16,1.03,1,2.26,1.14,3.57,1.09Z"/>
    <path class="cls-4" d="M626.08,1097.16c-.08,1.13-.41,2.04-1.44,1.67-1.47-.53-2.4-1.69-2.45-3.35-.03-.84.18-1.94,1.18-1.7,1.76.41,2.63,1.79,2.7,3.38Z"/>
    <path class="cls-4" d="M625.57,1109.87c-.86-2.69-.37-4.55,1.66-5.91.65-.44,1.49-.27,1.55.4.2,2.29-.96,3.95-3.22,5.51Z"/>
    <path class="cls-4" d="M573.63,1113.43c1.1.21,1.41.86,1,1.78-.58,1.3-.37,3.26-2.15,3.61-1.43.27-1.41-1.15-1.24-2.06.27-1.43.63-2.94,2.39-3.32Z"/>
    <path class="cls-4" d="M587.72,1099.08c-.97-2.44.23-3.96,1.77-5.25.59-.49,1.45-.06,1.41.71-.11,2.02-.65,3.87-3.18,4.54Z"/>
    <path class="cls-4" d="M567.78,1116.07c-.09,1.04-.81,1.22-1.43,1.06-1.73-.45-2.94-1.5-3.08-3.4-.06-.83.63-1.32,1.26-1.03,1.52.69,2.71,1.82,3.24,3.38Z"/>
    <path class="cls-4" d="M632.1,1105.3c-.12.43-.23.86-.35,1.3-.92-.72-.01-.93.36-1.28,0,0-.02-.01-.02-.01Z"/>
    <path class="cls-4" d="M566.15,1106.3c.14.14.27.28.41.42-.14-.13-.28-.27-.43-.4,0,0,.02-.02.02-.02Z"/>
    <path class="cls-34" d="M659.11,1107.31c-.12.43-.24.86-.36,1.3-.92-.72-.03-.94.36-1.3h0Z"/>
  </g>
  <g>
    <path class="cls-34" d="M746.97,1262.78c-8.22-1.04-13.31-5.94-15.42-13.61-2.06-7.48.67-13.73,6.55-18.63,5.98-4.98,12.03-5.11,17.83.38,1.52-2.08.16-3.57-.03-5.09-.9-7.14,3.91-12.72,11.04-11.88,3.47.4,4.17-.77,4.73-3.66,1.33-6.9,5.38-11.72,12.1-14.01,7.24-2.47,12.47.01,15.01,7.23,1.1,3.11,1.62,6.42,2.41,9.68,2.16-.52,2.13-2.67,2.82-4.25,3.09-7.13,6.69-9.83,12.55-9.26,5.62.54,9.01,4.29,10.46,11.6.16.79.36,1.56.69,3,2.58-2.61,2.74-6.91,6.38-7.42,3.94-.55,4.87,3.03,6.46,6.18,3.62-8.68,9.91-12.53,18.72-11.49,7.66.9,12.61,5.5,15.19,12.7,2.9,8.08.61,14.23-7.81,18.18,12.41,3.39,16.45,9.28,13.2,18.18-.17-1.41.71-3.58-.67-4.05-1.49-.5-3.58-.15-4.99,1.29-.92.94-1.88,1.86-3.34,1.82h0c1.33-8.27-.4-12.77-5.56-15.3-3.03-1.48-7.01,1-8.87-.87-1.92-1.93-1.71-5.77-4.26-8.09-7.38-6.72-18.34-6.24-25.88,1.38-1.38-2.19-1.23-4.64-1.52-7.07-.56-4.7-2.49-8.77-7.59-9.92-4.88-1.11-8.18,1.45-10.64,5.45-1.47,2.38-2.88,4.77-3.59,7.51-2.1,2.74-3.98,5.61-5.06,8.92-1.32.05-2.55-.09-3.57-1.09-3.38-3.27-4.59-1-5.43,2.16-1.33,0-2.66-.01-3.99-.02-1.18-1.78-2.28-3.52-4.23-4.73-9.17-5.65-15.69-4.72-23.32,3.52-9.45,10.22-9,15.69,2,23.89.35.26.86.46.45,1.05-.78.29-1.56.55-2.32.87-1.29.54-3.41.43-3.12,2.48.32,2.24,2.44,1.81,4.03,1.84,2.82.05,5.64,0,8.46,0,.34.16,1.02-.09.84.69-.02.09-.24.19-.37.19-6.77.09-13.55.17-20.32.25Z"/>
    <path class="cls-35" d="M746.97,1262.78c6.77-.08,13.55-.16,20.32-.25.13,0,.35-.1.37-.19.18-.77-.5-.52-.84-.69-.29-1.1-.9-2.24-.8-3.31.32-3.85-.15-8.31,3.12-10.94,2.75-2.21,5.93-.21,8.71,1.26.14.13.28.27.43.4-.14-.14-.27-.28-.41-.42.2-1.75-.71-3.17-1.3-4.71-1.58-4.15.14-7.88,4.2-9.75,1.34-.62,3.07-.06,4.09-1.47,1.33,0,2.66.01,3.99.02,3.06,1.8,4.8,4.92,7.35,8.1.64-3.55,1.15-6.36,1.66-9.18,1.09-3.32,2.96-6.18,5.06-8.92,5.35-2.12,10.53-3.85,15.61,1.01,4.41,4.22,5.12,10.06,7.3,15.52,3.55-5.64,8.96-7.78,13.78-5.71,5.7,2.44,6.61,5.17,4.39,13.12-.09.32-.11.65-.16.98-.37.36-1.29.56-.36,1.28.12-.43.23-.86.35-1.3.98-.16,1.96-.27,2.92-.5,5.46-1.31,9.51,2.41,8.47,7.86-.4,2.1-.91,4.19-1.36,6.28-5.17,3.48-10.84,4.57-17.05,4.23-16.95-.93-33.91-.25-50.86-.29-12.97-.03-25.93-2.43-38.99-2.45ZM837.8,1239.51c-.07-1.6-.95-2.97-2.7-3.38-1.01-.24-1.21.86-1.18,1.7.05,1.66.99,2.82,2.45,3.35,1.03.37,1.35-.54,1.44-1.67ZM837.29,1252.23c2.26-1.56,3.42-3.23,3.22-5.51-.06-.67-.9-.84-1.55-.4-2.03,1.36-2.52,3.22-1.66,5.91ZM785.35,1255.79c-1.76.38-2.12,1.89-2.39,3.32-.17.91-.19,2.34,1.24,2.06,1.78-.34,1.58-2.31,2.15-3.61.41-.92.1-1.57-1-1.78ZM799.44,1241.44c2.53-.67,3.06-2.52,3.18-4.54.04-.78-.82-1.21-1.41-.71-1.54,1.29-2.74,2.82-1.77,5.25ZM779.5,1258.43c-.53-1.55-1.72-2.68-3.24-3.38-.64-.29-1.33.21-1.26,1.03.14,1.9,1.35,2.95,3.08,3.4.62.16,1.34-.02,1.43-1.06Z"/>
    <path class="cls-4" d="M843.84,1247.67c.05-.33.07-.66.16-.98,2.22-7.96,1.31-10.68-4.39-13.12-4.82-2.07-10.23.07-13.78,5.71-2.18-5.46-2.89-11.3-7.3-15.52-5.07-4.86-10.25-3.12-15.61-1.01.71-2.74,2.12-5.12,3.59-7.51,2.47-4,5.76-6.55,10.64-5.45,5.11,1.16,7.03,5.22,7.59,9.92.29,2.42.15,4.87,1.52,7.07,7.54-7.62,18.49-8.1,25.88-1.38,2.55,2.32,2.34,6.17,4.26,8.09,1.86,1.87,5.84-.62,8.87.87,5.15,2.52,6.89,7.02,5.56,15.3-.39.36-1.28.57-.36,1.3.12-.43.24-.86.36-1.3,1.46.04,2.42-.88,3.34-1.82,1.42-1.44,3.5-1.79,4.99-1.29,1.39.47.51,2.63.67,4.05-2.29,6.22-7.28,8.84-13.35,10.02-.82.14-1.65.29-2.48.43-3.37.82-6.76.51-10.16.24.46-2.09.96-4.18,1.36-6.28,1.03-5.45-3.01-9.17-8.47-7.86-.96.23-1.95.33-2.92.5,0,0,.02.01.02.01Z"/>
    <path class="cls-4" d="M784.86,1232.72c-1.02,1.4-2.75.85-4.09,1.47-4.06,1.88-5.78,5.6-4.2,9.75.59,1.54,1.5,2.96,1.3,4.71l-.02.02c-2.78-1.47-5.96-3.48-8.71-1.26-3.27,2.63-2.8,7.09-3.12,10.94-.09,1.07.52,2.2.8,3.31-2.82,0-5.64.05-8.46,0-1.59-.03-3.71.39-4.03-1.84-.3-2.06,1.83-1.94,3.12-2.48.76-.32,1.54-.58,2.32-.87.41-.59-.1-.78-.45-1.05-10.99-8.2-11.45-13.67-2-23.89,7.63-8.25,14.14-9.17,23.32-3.52,1.95,1.2,3.05,2.95,4.23,4.73Z"/>
    <path class="cls-4" d="M797.85,1231.67c-.51,2.81-1.01,5.62-1.66,9.18-2.55-3.18-4.28-6.3-7.35-8.1.84-3.16,2.05-5.43,5.43-2.16,1.03,1,2.26,1.14,3.57,1.09Z"/>
    <path class="cls-4" d="M837.8,1239.51c-.08,1.13-.41,2.04-1.44,1.67-1.47-.53-2.4-1.69-2.45-3.35-.03-.84.18-1.94,1.18-1.7,1.76.41,2.63,1.79,2.7,3.38Z"/>
    <path class="cls-4" d="M837.29,1252.23c-.86-2.69-.37-4.55,1.66-5.91.65-.44,1.49-.27,1.55.4.2,2.29-.96,3.95-3.22,5.51Z"/>
    <path class="cls-4" d="M785.35,1255.79c1.1.21,1.41.86,1,1.78-.58,1.3-.37,3.26-2.15,3.61-1.43.27-1.41-1.15-1.24-2.06.27-1.43.63-2.94,2.39-3.32Z"/>
    <path class="cls-4" d="M799.44,1241.44c-.97-2.44.23-3.96,1.77-5.25.59-.49,1.45-.06,1.41.71-.11,2.02-.65,3.87-3.18,4.54Z"/>
    <path class="cls-4" d="M779.5,1258.43c-.09,1.04-.81,1.22-1.43,1.06-1.73-.45-2.94-1.5-3.08-3.4-.06-.83.63-1.32,1.26-1.03,1.52.69,2.71,1.82,3.24,3.38Z"/>
    <path class="cls-4" d="M843.82,1247.65c-.12.43-.23.86-.35,1.3-.92-.72-.01-.93.36-1.28,0,0-.02-.01-.02-.01Z"/>
    <path class="cls-4" d="M777.86,1248.65c.14.14.27.28.41.42-.14-.13-.28-.27-.43-.4,0,0,.02-.02.02-.02Z"/>
    <path class="cls-34" d="M870.83,1249.66c-.12.43-.24.86-.36,1.3-.92-.72-.03-.94.36-1.3h0Z"/>
  </g>
  <g>
    <path class="cls-7" d="M366.89,825.2c-.34-9.82,2.88-17.9,11.19-23.6.83-.57,1.4-1.61,1.92-2.53.31-.55.15-1.33.4-1.94,2.26-5.57,19.42-10.25,24.05-6.48,1.41,1.14,2.7,2.09,4.57,2.36,6.39.94,8.45,4.83,7.05,10.92-2.08-.68.18-4.49-2.93-4.28-4.46.3-7.95-2.19-11.76-3.79-6.56-2.77-11.65.41-13.2,7.22-1.68,7.4-.03,14.81-1.03,22.18-.52,3.81-.13,7.17-5.47,3.66-3.18-2.09-4.92-.03-5.21,3.29-.41,4.68,4.39,7.94,9.2,5.92,3.07-1.29,5.09-.06,5.83,2.33.89,2.88-2,1.98-3.45,2.22-1.68.28-3.26,1-3.52,2.59-1.4,8.24-13.51,13.98-5.68,24.36.11.14.08.44.04.65-.39,2.22-2.15,5.58,2.07,5.14,2.7-.28,6.34-1.77,5.38-6.08-1.11-5,1.73-6.44,5.78-6.59,4.65-.17,8.99-.67,13.15-3.33,3.54-2.26,7.25.45,10.71,1.5,1.83.56,2.06,3,1.25,4.65-1.53,3.13-3.89,5.16-7.75,5.24-2.82.06-5.61.93-8.44,1.28-5.62.69-6.11,6.09-6.49,9.4-.39,3.42,3.71,5.2,7.76,5.33,3.49.11,5.9-1.71,8.34-3.48,2.34-1.7,5.13-3.09,7.28-1.44,3.34,2.57,7.23,1.63,10.69,2.91,3.69,1.36,5.52-.09,6.45-4.11,1.34-5.76,1.14-11.23.14-17.02-.77-4.5-2.3-5.73-6.45-4.56-4.06,1.15-4.99-.52-3.33-4.13,1.26-2.74,1.77-6.09,5.4-6.97,8.39,4.9,9.81,14.36,14.15,21.9,2.2,3.82,1.47,8.19,1.98,12.32-.18,1.08.05,2.61-.59,3.18-5.22,4.71-2.26,9.71-.74,14.67-.13,1.73-.25,3.46-.38,5.19-1.04.27-2.46.19-3.07.85-4.48,4.88-7.91,5.19-10.69-1.66-.68-1.67-2.55-3.2-4.24-4.01-2.94-1.4-4.52-2.48-.64-4.57,1.48-.8,1.72-1.92,1.03-3.29-.66-1.3-2-2.27-3.24-1.61-2.84,1.5-7.19,3.6-4.18,7.2,3.7,4.44,3.99,11.01,7.91,14.21,5.12,4.19,3.39,7.43,1.38,11.54-2.21.05-4.25.42-5.25,2.78-4.62.92-7.82,6.01-11.78,6.13-5.49.17-10.54-3.26-13.73-8.48-2.71-4.42,1.84-5.62,3.31-8.21.94-1.65,2.83-3.3,1.36-5.36-1.49-2.08-3.22-.95-5.22-.14-5.42,2.2-10.71,6.57-17.03,1.62-1.11-.87-3.61-.65-5.16-.09-5.96,2.14-10.05-.53-14-4.56-3.38-3.44-3.87-6.26.65-8.96,3.76-2.25,4.8-6.15,5.68-10.02.3-1.31.88-3.49-1.19-3.92-2-.41-2.4,1.49-2.63,3.05-.63,4.28-2.37,4.51-5.75,2.16-5.05-3.51-8.86-12.4-7.47-18.39.39-1.66,1.07-3.1,2.8-3.27,4-.39,5.57-2,3.95-6.11-.57-1.46-.08-3.11,1.45-4.07,1.15-.72,2.11-.16,2.96.61,1.37,1.24,2.63,2.71,1.54,4.6-1.11,1.93-2.5,3.67-2.19,6.08-3.48.17-4.53,3.07-6.13,5.4-.88,1.29-2.03,2.42-.75,4.09,1.49,1.93,3.43,2.64,5.81,2.39,2-.21,3.4-1.19,3.57-3.23.2-2.42.11-4.86.14-7.3,2.51.01,5.45-1.39,3.69-3.61-5.36-6.73.1-13.41-.45-20.08-.39-4.78-1.96-10.69,1.81-15.72,1.17-1.56,1.41-5.42-2.58-6.15ZM379.42,887.93c-3.84-1.19-4.12.23-4.31,1.96-.51,4.8,2.41,7.24,6.1,9.18,1.34.71,3.93,1.39,3.91,1.99-.68,15.11,4.55.28,6.63,1.27.53.25,1.56-.63,2.39-.92,2.89-1.03,2.32-2.74.89-4.57-4.38-5.6-10.21-8.56-15.6-8.91ZM417.41,918.74c2.51-.1,5.56-.39,4.82-2.6-.99-2.95-1.83-7.83-5.75-7.49-2.44.21-7.79,1.28-7.33,4.79.48,3.64,5.61,3.75,8.27,5.3ZM414.93,901.58c-1.23-1.63-1.08-5.11-4.05-4.97-3.4.15-6.79,2.59-7.19,5.76-.47,3.74,3.94,3.53,6.37,3.98,2.64.49,4.15-1.81,4.87-4.77ZM434.7,900c1.75-.83,3.8-1.99,4.04-4.84.15-1.8-.63-3.21-2.62-2.93-2.6.37-4.42,2.14-4.93,4.61-.35,1.67,1.08,2.76,3.51,3.16ZM378.59,904.95c-2.46-.64-5.02-1.38-7.6-1.95-1.22-.27-2.53.53-2.17,1.63,1.12,3.39,4.64,2.24,7.06,3.12,1.2.44,2.39-.66,2.71-2.8Z"/>
    <path class="cls-27" d="M430.84,848.02c-3.64.89-4.14,4.23-5.4,6.97-1.66,3.61-.73,5.28,3.33,4.13,4.15-1.17,5.68.07,6.45,4.56.99,5.8,1.19,11.27-.14,17.02-.93,4.02-2.76,5.47-6.45,4.11-3.47-1.28-7.35-.34-10.69-2.91-2.15-1.66-4.94-.26-7.28,1.44-2.44,1.76-4.85,3.59-8.34,3.48-4.05-.13-8.15-1.91-7.76-5.33.38-3.31.87-8.71,6.49-9.4,2.82-.35,5.62-1.22,8.44-1.28,3.86-.08,6.22-2.11,7.75-5.24.81-1.66.59-4.1-1.25-4.65-3.46-1.05-7.17-3.76-10.71-1.5-4.16,2.66-8.5,3.16-13.15,3.33-4.04.15-6.88,1.58-5.78,6.59.95,4.31-2.68,5.8-5.38,6.08-4.21.44-2.46-2.92-2.07-5.14.04-.21.07-.5-.04-.65-7.83-10.38,4.28-16.12,5.68-24.36.27-1.58,1.84-2.31,3.52-2.59,1.45-.24,4.34.66,3.45-2.22-.74-2.39-2.76-3.62-5.83-2.33-4.81,2.02-9.62-1.24-9.2-5.92.29-3.33,2.03-5.39,5.21-3.29,5.34,3.51,4.95.15,5.47-3.66,1-7.37-.65-14.79,1.03-22.18,1.55-6.8,6.64-9.98,13.2-7.22,3.81,1.61,7.29,4.09,11.76,3.79,3.11-.21.84,3.6,2.93,4.28.14.87.28,1.74.42,2.61-1.22,5.03,2.4,7.67,5.22,10.71,8.26,3.72,9.94,7.59,7.6,15.92-1.41,5.02.15,9.98,1.53,14.84Z"/>
    <path class="cls-26" d="M366.89,825.2c3.99.73,3.75,4.59,2.58,6.15-3.77,5.03-2.2,10.94-1.81,15.72.55,6.67-4.92,13.35.45,20.08,1.77,2.22-1.17,3.62-3.68,3.61-.88-.45-1.76-.9-2.64-1.36-.31-2.41,1.08-4.15,2.19-6.08,1.09-1.9-.17-3.36-1.54-4.6-.85-.77-1.81-1.33-2.96-.61-1.53.96-2.03,2.61-1.45,4.07,1.62,4.1.06,5.72-3.95,6.11-1.73.17-2.41,1.61-2.8,3.27-1.39,5.99,2.42,14.89,7.47,18.39,3.38,2.35,5.13,2.12,5.75-2.16.23-1.56.63-3.46,2.63-3.05,2.08.43,1.49,2.6,1.19,3.92-.87,3.87-1.92,7.78-5.68,10.02-4.52,2.7-4.03,5.52-.65,8.96,3.96,4.04,8.04,6.7,14,4.56,1.56-.56,4.06-.77,5.16.09,6.31,4.95,11.6.58,17.03-1.62,1.99-.81,3.72-1.95,5.22.14,1.48,2.06-.42,3.7-1.36,5.36-1.46,2.59-6.02,3.79-3.31,8.21,3.2,5.22,8.24,8.65,13.73,8.48,3.96-.12,7.16-5.21,11.78-6.13,1.08,5.38-1.84,8.78-6.33,10.07-3.54,1.02-4.22,2.56-4.52,5.88-.49,5.41-3.2,6.69-7.36,3.48-2.47-1.9-4.11-1.89-6.31-.15-.3.23-1.11-.19-2.04-.39.41-1.03.58-1.89,1.06-2.53.65-.86,1.7-1.52.35-2.78-.56.05-1.29-.09-1.79.18-6.32,3.51-7,3.27-9.28-3.98-.42-1.32-1.16-1.64-2.3-1.85-4.91-.91-7.68-4.25-9.23-9.77-2.83,4.74-5.51,5.23-6.35.35-.64-3.73-2.93-3.33-5.34-4.32-3.42-1.42-9.04,1.04-10.16-3.06-2.45-8.99-11.2-15.21-10.42-25.6.2-2.68-1.57-5.39,1.04-7.89.95-.92.89-2.69-.16-3.67-4.83-4.51-5.33-9.23-1.11-14.43.58-.72.18-1.68-.67-2.24.47-2.7,2.8-3.79,4.54-5.44,6.49-6.16,11.51-12.95,10.99-22.72-.29-5.39,2.77-9.07,8.03-10.68Z"/>
    <path class="cls-18" d="M343.34,864.04c.85.56,1.26,1.52.67,2.24-4.22,5.21-3.72,9.92,1.11,14.43,1.05.98,1.11,2.75.16,3.67-2.61,2.5-.84,5.21-1.04,7.89-.78,10.39,7.97,16.61,10.42,25.6,1.12,4.1,6.75,1.64,10.16,3.06,2.41,1,4.7.59,5.34,4.32.84,4.88,3.52,4.39,6.35-.35,1.55,5.52,4.32,8.85,9.23,9.77,1.14.21,1.89.53,2.3,1.85,2.28,7.24,2.96,7.48,9.28,3.98.5-.28,1.24-.14,1.79-.18,1.35,1.26.3,1.91-.35,2.78-.48.64-.65,1.5-1.06,2.53.94.2,1.75.62,2.04.39,2.2-1.74,3.85-1.75,6.31.15,4.16,3.22,6.88,1.93,7.36-3.48.3-3.32.98-4.86,4.52-5.88,4.49-1.29,7.41-4.69,6.33-10.07,1-2.36,3.04-2.73,5.25-2.78,1.05-.15,2.83.01,3.05-.5,2.45-5.65,4.3-11.49,11.78-12.73,1.72-.29,1.24-3.46.93-5.44.13-1.73.25-3.46.37-5.2,3.96-1.11,3.16-5.99,6.16-7.86,3.19,2.65,3.44,5.78,1.3,9.14-2.62,4.11-5.16,8.29-8.13,12.13-1.17,1.51-1.93,2.87-1.93,4.69.01,6.39-3.79,9.14-9.5,9.7-4.63.45-7.53,1.87-6.54,7.36.81,4.5-1.51,7.59-5.51,9.24-3.74,1.55-7.25,3.86-9.61,6.76-3.97,4.88-8.87,5.16-14.22,5.09-5.53,1.7-6.47-6.02-11.38-5.59-4.84-1.49-8.9-2.94-10.93-8.98-1.55-4.64-8.02-3.65-12.34-3.84-4.14-.19-6.8-1.53-8.38-5.06-1-2.25-2.57-3.03-4.8-3.83-4.42-1.58-7.77-5-7.17-9.9.77-6.26-3.46-8.92-7.37-11.21-7.18-4.19-9.59-8.44-6.38-16.22,1.68-4.08,3.54-7.37,1.41-12.03-1.32-2.89,1.01-5.92,2.86-8.48,2.57-3.56,6.41-5.29,10.17-7.14ZM342.93,894.57c-1.28-2.17-.59-5.91-4.5-6.35-1.77-.2-3.33.53-2.92,2.52.6,2.88,2.46,5.15,5.18,6.23,1.55.62,2.38-.59,2.24-2.41Z"/>
    <path class="cls-38" d="M386.28,950.74c4.91-.42,5.85,7.29,11.38,5.59-.91,16.4-1.61,32.78,2.01,49,.5,2.25,2.04,5.63-.88,6.42-4.44,1.2-9.18,3.74-13.94.49-2.87-1.96-2.17-4.73-1.48-7.21,3.19-11.53,1.99-23.33,2.58-35.03.32-6.33-3.48-9.57-7.43-13.19-3.79-3.48-8.54-6.45-8.63-12.37,3.14,2.92,6.1,6.06,9.48,8.68,3.06,2.37,6.36,3.54,6.91-2.37Z"/>
    <path class="cls-26" d="M451.8,892.23c-3.01,1.86-2.2,6.75-6.16,7.86-1.51-4.97-4.48-9.96.74-14.67.63-.57.41-2.1.59-3.18,3.54,2.39,1.75,7.38,4.83,10Z"/>
    <path class="cls-7" d="M421.71,817.25c-2.83-3.04-6.44-5.68-5.22-10.71,5.21,1.86,4.18,6.79,5.22,10.71Z"/>
    <path class="cls-26" d="M445.26,905.29c.31,1.98.8,5.15-.93,5.44-7.48,1.24-9.33,7.09-11.78,12.73-.22.52-2,.35-3.05.5,2.01-4.12,3.74-7.35-1.38-11.55-3.91-3.2-4.2-9.77-7.91-14.21-3.01-3.6,1.35-5.7,4.18-7.2,1.24-.66,2.58.3,3.24,1.61.7,1.37.45,2.49-1.03,3.29-3.88,2.09-2.3,3.17.64,4.57,1.69.81,3.57,2.34,4.24,4.01,2.78,6.85,6.21,6.54,10.69,1.66.61-.67,2.03-.59,3.07-.85Z"/>
    <path class="cls-27" d="M379.42,887.93c5.39.35,11.22,3.31,15.6,8.91,1.43,1.82,2,3.54-.89,4.57-.82.29-1.86,1.17-2.39.92-2.08-.99-7.32,13.84-6.63-1.27.03-.6-2.57-1.29-3.91-1.99-3.69-1.94-6.61-4.39-6.1-9.18.19-1.73.47-3.15,4.31-1.96Z"/>
    <path class="cls-27" d="M417.41,918.74c-2.65-1.55-7.79-1.66-8.27-5.3-.46-3.51,4.89-4.58,7.33-4.79,3.92-.34,4.76,4.54,5.75,7.49.74,2.21-2.3,2.51-4.82,2.6Z"/>
    <path class="cls-27" d="M361.78,869.41c.88.45,1.76.9,2.64,1.36-.03,2.43.06,4.88-.14,7.3-.17,2.04-1.57,3.02-3.57,3.23-2.39.25-4.32-.45-5.81-2.39-1.29-1.67-.14-2.8.75-4.09,1.6-2.34,2.66-5.24,6.13-5.4Z"/>
    <path class="cls-27" d="M414.93,901.58c-.71,2.96-2.23,5.25-4.87,4.77-2.43-.45-6.84-.24-6.37-3.98.4-3.17,3.78-5.61,7.19-5.76,2.98-.13,2.83,3.34,4.05,4.97Z"/>
    <path class="cls-27" d="M434.7,900c-2.43-.4-3.86-1.49-3.51-3.16.51-2.47,2.33-4.24,4.93-4.61,1.99-.28,2.77,1.13,2.62,2.93-.24,2.86-2.29,4.01-4.04,4.84Z"/>
    <path class="cls-27" d="M378.59,904.95c-.32,2.14-1.5,3.24-2.71,2.8-2.42-.88-5.94.27-7.06-3.12-.37-1.1.95-1.91,2.17-1.63,2.59.58,5.14,1.31,7.6,1.95Z"/>
    <path class="cls-26" d="M342.93,894.57c.14,1.82-.69,3.03-2.24,2.41-2.72-1.09-4.59-3.35-5.18-6.23-.41-1.99,1.15-2.72,2.92-2.52,3.91.44,3.23,4.18,4.5,6.35Z"/>
  </g>
  <g>
    <path class="cls-7" d="M689.84,1038.54c-.34-9.82,2.88-17.9,11.19-23.6.83-.57,1.4-1.61,1.92-2.53.31-.55.15-1.33.4-1.94,2.26-5.57,19.42-10.25,24.05-6.48,1.41,1.14,2.7,2.09,4.57,2.36,6.39.94,8.45,4.83,7.05,10.92-2.08-.68.18-4.49-2.93-4.28-4.46.3-7.95-2.19-11.76-3.79-6.56-2.77-11.65.41-13.2,7.22-1.68,7.4-.03,14.81-1.03,22.18-.52,3.81-.13,7.17-5.47,3.66-3.18-2.09-4.92-.03-5.21,3.29-.41,4.68,4.39,7.94,9.2,5.92,3.07-1.29,5.09-.06,5.83,2.33.89,2.88-2,1.98-3.45,2.22-1.68.28-3.26,1-3.52,2.59-1.4,8.24-13.51,13.98-5.68,24.36.11.14.08.44.04.65-.39,2.22-2.15,5.58,2.07,5.14,2.7-.28,6.34-1.77,5.38-6.08-1.11-5,1.73-6.44,5.78-6.59,4.65-.17,8.99-.67,13.15-3.33,3.54-2.26,7.25.45,10.71,1.5,1.83.56,2.06,3,1.25,4.65-1.53,3.13-3.89,5.16-7.75,5.24-2.82.06-5.61.93-8.44,1.28-5.62.69-6.11,6.09-6.49,9.4-.39,3.42,3.71,5.2,7.76,5.33,3.49.11,5.9-1.71,8.34-3.48,2.34-1.7,5.13-3.09,7.28-1.44,3.34,2.57,7.23,1.63,10.69,2.91,3.69,1.36,5.52-.09,6.45-4.11,1.34-5.76,1.14-11.23.14-17.02-.77-4.5-2.3-5.73-6.45-4.56-4.06,1.15-4.99-.52-3.33-4.13,1.26-2.74,1.77-6.09,5.4-6.97,8.39,4.9,9.81,14.36,14.15,21.9,2.2,3.82,1.47,8.19,1.98,12.32-.18,1.08.05,2.61-.59,3.18-5.22,4.71-2.26,9.71-.74,14.67-.13,1.73-.25,3.46-.38,5.19-1.04.27-2.46.19-3.07.85-4.48,4.88-7.91,5.19-10.69-1.66-.68-1.67-2.55-3.2-4.24-4.01-2.94-1.4-4.52-2.48-.64-4.57,1.48-.8,1.72-1.92,1.03-3.29-.66-1.3-2-2.27-3.24-1.61-2.84,1.5-7.19,3.6-4.18,7.2,3.7,4.44,3.99,11.01,7.91,14.21,5.12,4.19,3.39,7.43,1.38,11.54-2.21.05-4.25.42-5.25,2.78-4.62.92-7.82,6.01-11.78,6.13-5.49.17-10.54-3.26-13.73-8.48-2.71-4.42,1.84-5.62,3.31-8.21.94-1.65,2.83-3.3,1.36-5.36-1.49-2.08-3.22-.95-5.22-.14-5.42,2.2-10.71,6.57-17.03,1.62-1.11-.87-3.61-.65-5.16-.09-5.96,2.14-10.05-.53-14-4.56-3.38-3.44-3.87-6.26.65-8.96,3.76-2.25,4.8-6.15,5.68-10.02.3-1.31.88-3.49-1.19-3.92-2-.41-2.4,1.49-2.63,3.05-.63,4.28-2.37,4.51-5.75,2.16-5.05-3.51-8.86-12.4-7.47-18.39.39-1.66,1.07-3.1,2.8-3.27,4-.39,5.57-2,3.95-6.11-.57-1.46-.08-3.11,1.45-4.07,1.15-.72,2.11-.16,2.96.61,1.37,1.24,2.63,2.71,1.54,4.6-1.11,1.93-2.5,3.67-2.19,6.08-3.48.17-4.53,3.07-6.13,5.4-.88,1.29-2.03,2.42-.75,4.09,1.49,1.93,3.43,2.64,5.81,2.39,2-.21,3.4-1.19,3.57-3.23.2-2.42.11-4.86.14-7.3,2.51.01,5.45-1.39,3.69-3.61-5.36-6.73.1-13.41-.45-20.08-.39-4.78-1.96-10.69,1.81-15.72,1.17-1.56,1.41-5.42-2.58-6.15ZM702.37,1101.27c-3.84-1.19-4.12.23-4.31,1.96-.51,4.8,2.41,7.24,6.1,9.18,1.34.71,3.93,1.39,3.91,1.99-.68,15.11,4.55.28,6.63,1.27.53.25,1.56-.63,2.39-.92,2.89-1.03,2.32-2.74.89-4.57-4.38-5.6-10.21-8.56-15.6-8.91ZM740.36,1132.08c2.51-.1,5.56-.39,4.82-2.6-.99-2.95-1.83-7.83-5.75-7.49-2.44.21-7.79,1.28-7.33,4.79.48,3.64,5.61,3.75,8.27,5.3ZM737.88,1114.92c-1.23-1.63-1.08-5.11-4.05-4.97-3.4.15-6.79,2.59-7.19,5.76-.47,3.74,3.94,3.53,6.37,3.98,2.64.49,4.15-1.81,4.87-4.77ZM757.65,1113.34c1.75-.83,3.8-1.99,4.04-4.84.15-1.8-.63-3.21-2.62-2.93-2.6.37-4.42,2.14-4.93,4.61-.35,1.67,1.08,2.76,3.51,3.16ZM701.55,1118.29c-2.46-.64-5.02-1.38-7.6-1.95-1.22-.27-2.53.53-2.17,1.63,1.12,3.39,4.64,2.24,7.06,3.12,1.2.44,2.39-.66,2.71-2.8Z"/>
    <path class="cls-27" d="M753.79,1061.36c-3.64.89-4.14,4.23-5.4,6.97-1.66,3.61-.73,5.28,3.33,4.13,4.15-1.17,5.68.07,6.45,4.56.99,5.8,1.19,11.27-.14,17.02-.93,4.02-2.76,5.47-6.45,4.11-3.47-1.28-7.35-.34-10.69-2.91-2.15-1.66-4.94-.26-7.28,1.44-2.44,1.76-4.85,3.59-8.34,3.48-4.05-.13-8.15-1.91-7.76-5.33.38-3.31.87-8.71,6.49-9.4,2.82-.35,5.62-1.22,8.44-1.28,3.86-.08,6.22-2.11,7.75-5.24.81-1.66.59-4.1-1.25-4.65-3.46-1.05-7.17-3.76-10.71-1.5-4.16,2.66-8.5,3.16-13.15,3.33-4.04.15-6.88,1.58-5.78,6.59.95,4.31-2.68,5.8-5.38,6.08-4.21.44-2.46-2.92-2.07-5.14.04-.21.07-.5-.04-.65-7.83-10.38,4.28-16.12,5.68-24.36.27-1.58,1.84-2.31,3.52-2.59,1.45-.24,4.34.66,3.45-2.22-.74-2.39-2.76-3.62-5.83-2.33-4.81,2.02-9.62-1.24-9.2-5.92.29-3.33,2.03-5.39,5.21-3.29,5.34,3.51,4.95.15,5.47-3.66,1-7.37-.65-14.79,1.03-22.18,1.55-6.8,6.64-9.98,13.2-7.22,3.81,1.61,7.29,4.09,11.76,3.79,3.11-.21.84,3.6,2.93,4.28.14.87.28,1.74.42,2.61-1.22,5.03,2.4,7.67,5.22,10.71,8.26,3.72,9.94,7.59,7.6,15.92-1.41,5.02.15,9.98,1.53,14.84Z"/>
    <path class="cls-26" d="M689.84,1038.54c3.99.73,3.75,4.59,2.58,6.15-3.77,5.03-2.2,10.94-1.81,15.72.55,6.67-4.92,13.35.45,20.08,1.77,2.22-1.17,3.62-3.68,3.61-.88-.45-1.76-.9-2.64-1.36-.31-2.41,1.08-4.15,2.19-6.08,1.09-1.9-.17-3.36-1.54-4.6-.85-.77-1.81-1.33-2.96-.61-1.53.96-2.03,2.61-1.45,4.07,1.62,4.1.06,5.72-3.95,6.11-1.73.17-2.41,1.61-2.8,3.27-1.39,5.99,2.42,14.89,7.47,18.39,3.38,2.35,5.13,2.12,5.75-2.16.23-1.56.63-3.46,2.63-3.05,2.08.43,1.49,2.6,1.19,3.92-.87,3.87-1.92,7.78-5.68,10.02-4.52,2.7-4.03,5.52-.65,8.96,3.96,4.04,8.04,6.7,14,4.56,1.56-.56,4.06-.77,5.16.09,6.31,4.95,11.6.58,17.03-1.62,1.99-.81,3.72-1.95,5.22.14,1.48,2.06-.42,3.7-1.36,5.36-1.46,2.59-6.02,3.79-3.31,8.21,3.2,5.22,8.24,8.65,13.73,8.48,3.96-.12,7.16-5.21,11.78-6.13,1.08,5.38-1.84,8.78-6.33,10.07-3.54,1.02-4.22,2.56-4.52,5.88-.49,5.41-3.2,6.69-7.36,3.48-2.47-1.9-4.11-1.89-6.31-.15-.3.23-1.11-.19-2.04-.39.41-1.03.58-1.89,1.06-2.53.65-.86,1.7-1.52.35-2.78-.56.05-1.29-.09-1.79.18-6.32,3.51-7,3.27-9.28-3.98-.42-1.32-1.16-1.64-2.3-1.85-4.91-.91-7.68-4.25-9.23-9.77-2.83,4.74-5.51,5.23-6.35.35-.64-3.73-2.93-3.33-5.34-4.32-3.42-1.42-9.04,1.04-10.16-3.06-2.45-8.99-11.2-15.21-10.42-25.6.2-2.68-1.57-5.39,1.04-7.89.95-.92.89-2.69-.16-3.67-4.83-4.51-5.33-9.23-1.11-14.43.58-.72.18-1.68-.67-2.24.47-2.7,2.8-3.79,4.54-5.44,6.49-6.16,11.51-12.95,10.99-22.72-.29-5.39,2.77-9.07,8.03-10.68Z"/>
    <path class="cls-18" d="M666.29,1077.38c.85.56,1.26,1.52.67,2.24-4.22,5.21-3.72,9.92,1.11,14.43,1.05.98,1.11,2.75.16,3.67-2.61,2.5-.84,5.21-1.04,7.89-.78,10.39,7.97,16.61,10.42,25.6,1.12,4.1,6.75,1.64,10.16,3.06,2.41,1,4.7.59,5.34,4.32.84,4.88,3.52,4.39,6.35-.35,1.55,5.52,4.32,8.85,9.23,9.77,1.14.21,1.89.53,2.3,1.85,2.28,7.24,2.96,7.48,9.28,3.98.5-.28,1.24-.14,1.79-.18,1.35,1.26.3,1.91-.35,2.78-.48.64-.65,1.5-1.06,2.53.94.2,1.75.62,2.04.39,2.2-1.74,3.85-1.75,6.31.15,4.16,3.22,6.88,1.93,7.36-3.48.3-3.32.98-4.86,4.52-5.88,4.49-1.29,7.41-4.69,6.33-10.07,1-2.36,3.04-2.73,5.25-2.78,1.05-.15,2.83.01,3.05-.5,2.45-5.65,4.3-11.49,11.78-12.73,1.72-.29,1.24-3.46.93-5.44.13-1.73.25-3.46.37-5.2,3.96-1.11,3.16-5.99,6.16-7.86,3.19,2.65,3.44,5.78,1.3,9.14-2.62,4.11-5.16,8.29-8.13,12.13-1.17,1.51-1.93,2.87-1.93,4.69.01,6.39-3.79,9.14-9.5,9.7-4.63.45-7.53,1.87-6.54,7.36.81,4.5-1.51,7.59-5.51,9.24-3.74,1.55-7.25,3.86-9.61,6.76-3.97,4.88-8.87,5.16-14.22,5.09-5.53,1.7-6.47-6.02-11.38-5.59-4.84-1.49-8.9-2.94-10.93-8.98-1.55-4.64-8.02-3.65-12.34-3.84-4.14-.19-6.8-1.53-8.38-5.06-1-2.25-2.57-3.03-4.8-3.83-4.42-1.58-7.77-5-7.17-9.9.77-6.26-3.46-8.92-7.37-11.21-7.18-4.19-9.59-8.44-6.38-16.22,1.68-4.08,3.54-7.37,1.41-12.03-1.32-2.89,1.01-5.92,2.86-8.48,2.57-3.56,6.41-5.29,10.17-7.14ZM665.88,1107.91c-1.28-2.17-.59-5.91-4.5-6.35-1.77-.2-3.33.53-2.92,2.52.6,2.88,2.46,5.15,5.18,6.23,1.55.62,2.38-.59,2.24-2.41Z"/>
    <path class="cls-38" d="M709.23,1164.08c4.91-.42,5.85,7.29,11.38,5.59-.91,16.4-1.61,32.78,2.01,49,.5,2.25,2.04,5.63-.88,6.42-4.44,1.2-9.18,3.74-13.94.49-2.87-1.96-2.17-4.73-1.48-7.21,3.19-11.53,1.99-23.33,2.58-35.03.32-6.33-3.48-9.57-7.43-13.19-3.79-3.48-8.54-6.45-8.63-12.37,3.14,2.92,6.1,6.06,9.48,8.68,3.06,2.37,6.36,3.54,6.91-2.37Z"/>
    <path class="cls-26" d="M774.75,1105.57c-3.01,1.86-2.2,6.75-6.16,7.86-1.51-4.97-4.48-9.96.74-14.67.63-.57.41-2.1.59-3.18,3.54,2.39,1.75,7.38,4.83,10Z"/>
    <path class="cls-7" d="M744.67,1030.59c-2.83-3.04-6.44-5.68-5.22-10.71,5.21,1.86,4.18,6.79,5.22,10.71Z"/>
    <path class="cls-26" d="M768.22,1118.63c.31,1.98.8,5.15-.93,5.44-7.48,1.24-9.33,7.09-11.78,12.73-.22.52-2,.35-3.05.5,2.01-4.12,3.74-7.35-1.38-11.55-3.91-3.2-4.2-9.77-7.91-14.21-3.01-3.6,1.35-5.7,4.18-7.2,1.24-.66,2.58.3,3.24,1.61.7,1.37.45,2.49-1.03,3.29-3.88,2.09-2.3,3.17.64,4.57,1.69.81,3.57,2.34,4.24,4.01,2.78,6.85,6.21,6.54,10.69,1.66.61-.67,2.03-.59,3.07-.85Z"/>
    <path class="cls-27" d="M702.37,1101.27c5.39.35,11.22,3.31,15.6,8.91,1.43,1.82,2,3.54-.89,4.57-.82.29-1.86,1.17-2.39.92-2.08-.99-7.32,13.84-6.63-1.27.03-.6-2.57-1.29-3.91-1.99-3.69-1.94-6.61-4.39-6.1-9.18.19-1.73.47-3.15,4.31-1.96Z"/>
    <path class="cls-27" d="M740.36,1132.08c-2.65-1.55-7.79-1.66-8.27-5.3-.46-3.51,4.89-4.58,7.33-4.79,3.92-.34,4.76,4.54,5.75,7.49.74,2.21-2.3,2.51-4.82,2.6Z"/>
    <path class="cls-27" d="M684.73,1082.75c.88.45,1.76.9,2.64,1.36-.03,2.43.06,4.88-.14,7.3-.17,2.04-1.57,3.02-3.57,3.23-2.39.25-4.32-.45-5.81-2.39-1.29-1.67-.14-2.8.75-4.09,1.6-2.34,2.66-5.24,6.13-5.4Z"/>
    <path class="cls-27" d="M737.88,1114.92c-.71,2.96-2.23,5.25-4.87,4.77-2.43-.45-6.84-.24-6.37-3.98.4-3.17,3.78-5.61,7.19-5.76,2.98-.13,2.83,3.34,4.05,4.97Z"/>
    <path class="cls-27" d="M757.65,1113.34c-2.43-.4-3.86-1.49-3.51-3.16.51-2.47,2.33-4.24,4.93-4.61,1.99-.28,2.77,1.13,2.62,2.93-.24,2.86-2.29,4.01-4.04,4.84Z"/>
    <path class="cls-27" d="M701.55,1118.29c-.32,2.14-1.5,3.24-2.71,2.8-2.42-.88-5.94.27-7.06-3.12-.37-1.1.95-1.91,2.17-1.63,2.59.58,5.14,1.31,7.6,1.95Z"/>
    <path class="cls-26" d="M665.88,1107.91c.14,1.82-.69,3.03-2.24,2.41-2.72-1.09-4.59-3.35-5.18-6.23-.41-1.99,1.15-2.72,2.92-2.52,3.91.44,3.23,4.18,4.5,6.35Z"/>
  </g>
  <g>
    <path class="cls-26" d="M894.16,1150.04c5.48-3.47,8.29-8.58,9.32-14.87.21-1.31,1.34-2.86,2.52-2.75,2.88.25,3.9-2.18,5.79-3.3-.49,2.8-1.83,5.04-3.65,7.3-4.91,6.08-4.26,9.99,1.59,12.65,0,.99-.02,1.98-.03,2.96-.14,4.2,2.72,7.69,2.9,11.88.03.7,2.46,2.14,3.18,1.83,4.3-1.85,8.86,3.08,12.94-.64-.14,2,.32,3.75,2.08,4.95,2,3.09,3.99,3.12,5.97-.02,0-.66,0-1.32.01-1.98,1,0,2.01,0,3.01,0,.33.33.66.67.99,1,0,3.39,1.86,5.23,5.02,5.97h0c.25.52.42,1.42.76,1.5,1.08.23,1.07-.76,1.21-1.49.32-.02.64-.03.96-.04,2.11-.02,2.08-1.49,2.01-2.98-.64-2-3.44-4,.02-5.98.32.08.65.12.95.24,1.4.57,1.44,4.16,3.9,2.11,2.29-1.91.99-3.66-.94-5.2-.72-.57-1.15-1.59-1.51-2.49-.89-2.2.44-2.09,1.93-1.73,5.63,5.52,4.94,11.51-1.97,17.19-4.59.57-5.99,5.9-10.29,6.91.31-2.47-.61-3.92-3.15-4.65-2.24-.65-3.84-.12-5.27,1.52-.64.74-1.57,1.41-1.18,2.52.45,1.26,1.62,1.63,2.82,1.51,2.27-.23,4.52-.6,6.77-.91-.82,3.05-11.14,8.85-13.95,7.76-.72-.28-1.41-.9-1.87-1.54-1-1.38-2.1-1.5-3.39-.56-2.06,1.51-5.03,3.55-6.18.38-1.14-3.15-5.28-2.14-5.43-4.98-.22-4.22-2.83-3.88-5.8-4.23-3.48-.41-8.19-.24-6.74-6.31.33-1.38-1.52-1.23-1.8-1.84-1.47-3.19-6.15-5.28-4.08-9.68,1.9-4.04,1.53-7.96.57-12.01ZM927.84,1173.98c-.86-2.35-1.48-5.01-5.02-4.05-1.01,0-2.01.02-3.02.03-1.63-1.43-1.83-.21-1.98,1.08-.36,1.32-.73,2.65-1.09,3.97-1.32,1.41-1.58,3.54-.21,4.34,2.67,1.57,5.85,2.2,9.01,1.53,2.66-.57,2.22-2.87,2.31-4.8,0-.7,0-1.4,0-2.1ZM914.95,1167.61c-2.82-.22-6.94,1.4-5.71-2.69,1.4-4.66-1.43-6.43-3.88-8.69-1.74-1.61-4.42-2.37-6.42-1.69-2.39.81-.32,3.11-.29,4.77.01.64-.24,1.28-.39,1.92-.62,2.64-1.3,5.22,3.14,3.99,1-.28,1.7.74,2.24,1.64,3.83,6.34,4.99,6.47,11.29.74Z"/>
    <path class="cls-27" d="M950.77,1166.02c-3.46,1.98-.66,3.99-.02,5.98-1.96.12-1.99,1.54-2.01,2.97-.32.01-.64.03-.96.04-.66,0-1.31,0-1.97,0,0,0,0,0,0,0,1.01-4.24.49-7.2-5.02-5.97-.33-.33-.66-.67-.99-1-1.06-3.91-1.57-8.05-4.69-11.08-1.97-1.91-3.39-3.61-.16-5.9,1.73-1.23.53-3.11-.6-4.33-1.01-1.09-2.37-.6-2.93.51-2.97,5.86-5.82,2.15-8.32-.24-.97-.93-1.26-2-3.01-1.59-3.61.85-6.06-1.64-7.78-4.03-1.22-1.69-1.18-4.53.45-6.54,2.06-2.54,4.03-4.8,8.16-3.43,2.34.78,5.23-.12,7.87-.27,9.3-1.18,16.09,3.96,18.06,13.7.12,1.63-.38,3.78.48,4.79,4.16,4.93,3.64,10.64,3.44,16.37Z"/>
    <path class="cls-18" d="M942.83,1183.06c4.3-1.01,5.7-6.34,10.29-6.91-.36,3.54-1.91,6.55-5.27,7.75-2.85,1.01-2.96,4.14-3.26,5.46-1.16,5.08-4.91,5.15-8.46,5.68-2.43.36-4.76.48-6.26,2.76-2.29-1.37-4.74-.57-7.14-.53-7.15-2.47-14.37-4.75-21.41-7.51-3.4-1.33-4.74-4.61-4.44-8.19.25-2.96-.92-5.08-3.06-6.81-5.97-4.82-6.5-10.47-1.37-16.14.69-.77,1.34-1.43,1.23-2.53,0-1.74-.01-3.49-.02-5.24-.02-.38.15-.64.49-.8.96,4.06,1.33,7.97-.57,12.01-2.07,4.4,2.61,6.49,4.08,9.68.28.61,2.13.46,1.8,1.84-1.45,6.07,3.26,5.9,6.74,6.31,2.97.35,5.58,0,5.8,4.23.15,2.84,4.29,1.83,5.43,4.98,1.15,3.17,4.12,1.13,6.18-.38,1.29-.95,2.39-.83,3.39.56.46.64,1.15,1.25,1.87,1.54,2.81,1.09,13.13-4.71,13.95-7.76h0Z"/>
    <path class="cls-7" d="M928.79,1131.15c-2.64.14-5.54,1.04-7.87.27-4.12-1.38-6.1.89-8.16,3.43-1.63,2.01-1.67,4.84-.45,6.54,1.72,2.39,4.17,4.87,7.78,4.03,1.74-.41,2.03.66,3.01,1.59,2.49,2.39,5.35,6.09,8.32.24.56-1.11,1.92-1.6,2.93-.51,1.13,1.22,2.33,3.1.6,4.33-3.23,2.29-1.81,3.99.16,5.9,3.13,3.03,3.63,7.17,4.69,11.08-1,0-2.01,0-3.01,0-.83-.74-2.1-1.33-2.43-2.25-1.5-4.21-3.51-2.58-5.64-.7-4.09,3.72-8.64-1.2-12.94.64-.72.31-3.15-1.13-3.18-1.83-.18-4.19-3.04-7.67-2.9-11.87,1.03.2,1.29,2.33,2.71,1.28.89-.66,1.56-1.86,1.13-3.03-.69-1.9-2.48-1-3.82-1.21-5.85-2.66-6.5-6.57-1.59-12.65,1.82-2.26,3.16-4.5,3.65-7.3,3.53-1.98,6.76-3.39,10.27.56,1.4,1.57,4.82-.89,6.73,1.48ZM922.6,1163.97c.54-1.46,3.87.5,3.72-2.86-.12-2.7-5.94-9.09-8.15-8.62-2.72.58-3.19,3.34-3.83,5.29-.75,2.32,4.6,6.33,8.25,6.2Z"/>
    <path class="cls-38" d="M922.73,1197.26c2.4-.04,4.85-.84,7.14.53-2.34,1.78-3.84,4.24-3.77,7.07.33,14.25-1.33,28.56.99,42.74.5,3.07-1.13,3.95-3.26,4.04-2.85.13-2.29-2.57-2.1-4.03,1.02-7.94.85-15.89.92-23.86.06-7.05-1.75-13.48-5.68-19.3-1.15-1.7-2.88-3.05-3.02-6.04,3.71,2.62,5.74,5.92,8.67,9.82.53-4.28.78-7.6.12-10.97Z"/>
    <path class="cls-7" d="M950.77,1166.02c.2-5.73.72-11.45-3.44-16.37-.85-1.01-.35-3.16-.48-4.79,8.66,1.24,7.83,8.03,8.24,14.1-1.49-.37-2.81-.47-1.93,1.73.36.9.8,1.92,1.51,2.49,1.93,1.54,3.22,3.29.94,5.2-2.46,2.05-2.49-1.54-3.9-2.11-.3-.12-.63-.16-.95-.24Z"/>
    <path class="cls-26" d="M893.67,1150.84c0,1.75.01,3.49.02,5.24-1.09-1.74-1.52-3.49-.02-5.24Z"/>
    <path class="cls-7" d="M914.95,1167.61c-6.31,5.73-7.47,5.6-11.29-.74-.55-.91-1.24-1.92-2.24-1.64-4.44,1.22-3.76-1.35-3.14-3.99.15-.64.4-1.28.39-1.92-.03-1.66-2.11-3.96.29-4.77,2-.68,4.68.09,6.42,1.69,2.45,2.26,5.28,4.03,3.88,8.69-1.23,4.09,2.88,2.47,5.71,2.69Z"/>
    <path class="cls-7" d="M927.85,1176.08c-.09,1.93.35,4.23-2.31,4.8-3.16.68-6.34.04-9.01-1.53-1.37-.81-1.11-2.93.21-4.34,3.62,1.28,7.29,1.92,11.11,1.07Z"/>
    <path class="cls-7" d="M942.83,1183.05c-2.26.31-4.51.68-6.77.91-1.2.12-2.37-.25-2.82-1.51-.39-1.11.54-1.78,1.18-2.52,1.43-1.65,3.03-2.17,5.27-1.52,2.53.73,3.46,2.18,3.15,4.65,0,0,0,0,0,0Z"/>
    <path class="cls-27" d="M927.85,1176.08c-3.82.85-7.5.21-11.11-1.07.36-1.32.73-2.65,1.09-3.97.84-.02,1.59-.23,1.98-1.08,1.01,0,2.01-.02,3.02-.03-.28,3.77,2.79,3.39,5.02,4.04,0,.7,0,1.4,0,2.1Z"/>
    <path class="cls-27" d="M928.73,1165.08c2.13-1.88,4.14-3.51,5.64.7.33.92,1.59,1.51,2.43,2.25,0,.66,0,1.32-.01,1.98-1.99,0-3.98.01-5.97.02-1.76-1.2-2.22-2.95-2.08-4.95Z"/>
    <path class="cls-7" d="M940.79,1169.04c5.51-1.23,6.03,1.73,5.02,5.97-3.15-.75-5.01-2.58-5.02-5.97Z"/>
    <path class="cls-27" d="M909.73,1149.05c1.34.21,3.13-.69,3.82,1.21.43,1.17-.25,2.37-1.13,3.03-1.42,1.06-1.68-1.08-2.71-1.28,0-.99.02-1.98.02-2.96Z"/>
    <path class="cls-7" d="M927.84,1173.98c-2.23-.66-5.29-.28-5.02-4.04,3.54-.97,4.15,1.69,5.02,4.04Z"/>
    <path class="cls-7" d="M930.81,1170.03c1.99,0,3.98-.01,5.97-.02-1.98,3.14-3.97,3.11-5.97.02Z"/>
    <path class="cls-7" d="M948.74,1174.97c.02-1.43.05-2.85,2.01-2.97.07,1.49.1,2.96-2.01,2.97Z"/>
    <path class="cls-7" d="M919.81,1169.96c-.39.85-1.14,1.05-1.98,1.08.16-1.28.35-2.51,1.98-1.08Z"/>
    <path class="cls-7" d="M945.81,1175.01c.66,0,1.31,0,1.97,0-.13.73-.13,1.72-1.21,1.49-.34-.07-.51-.97-.76-1.5Z"/>
    <path class="cls-27" d="M922.6,1163.97c-3.64.14-9-3.88-8.25-6.2.63-1.95,1.11-4.71,3.83-5.29,2.2-.47,8.02,5.92,8.15,8.62.15,3.36-3.19,1.41-3.72,2.86Z"/>
  </g>
  <g>
    <path class="cls-26" d="M462.72,1000.92c5.48-3.47,8.29-8.58,9.32-14.87.21-1.31,1.34-2.86,2.52-2.75,2.88.25,3.9-2.18,5.79-3.3-.49,2.8-1.83,5.04-3.65,7.3-4.91,6.08-4.26,9.99,1.59,12.65,0,.99-.02,1.98-.03,2.96-.14,4.2,2.72,7.69,2.9,11.88.03.7,2.46,2.14,3.18,1.83,4.3-1.85,8.86,3.08,12.94-.64-.14,2,.32,3.75,2.08,4.95,2,3.09,3.99,3.12,5.97-.02,0-.66,0-1.32.01-1.98,1,0,2.01,0,3.01,0,.33.33.66.67.99,1,0,3.39,1.86,5.23,5.02,5.97h0c.25.52.42,1.42.76,1.5,1.08.23,1.07-.76,1.21-1.49.32-.02.64-.03.96-.04,2.11-.02,2.08-1.49,2.01-2.98-.64-2-3.44-4,.02-5.98.32.08.65.12.95.24,1.4.57,1.44,4.16,3.9,2.11,2.29-1.91.99-3.66-.94-5.2-.72-.57-1.15-1.59-1.51-2.49-.89-2.2.44-2.09,1.93-1.73,5.63,5.52,4.94,11.51-1.97,17.19-4.59.57-5.99,5.9-10.29,6.91.31-2.47-.61-3.92-3.15-4.65-2.24-.65-3.84-.12-5.27,1.52-.64.74-1.57,1.41-1.18,2.52.45,1.26,1.62,1.63,2.82,1.51,2.27-.23,4.52-.6,6.77-.91-.82,3.05-11.14,8.85-13.95,7.76-.72-.28-1.41-.9-1.87-1.54-1-1.38-2.1-1.5-3.39-.56-2.06,1.51-5.03,3.55-6.18.38-1.14-3.15-5.28-2.14-5.43-4.98-.22-4.22-2.83-3.88-5.8-4.23-3.48-.41-8.19-.24-6.74-6.31.33-1.38-1.52-1.23-1.8-1.84-1.47-3.19-6.15-5.28-4.08-9.68,1.9-4.04,1.53-7.96.57-12.01ZM496.41,1024.87c-.86-2.35-1.48-5.01-5.02-4.05-1.01,0-2.01.02-3.02.03-1.63-1.43-1.83-.21-1.98,1.08-.36,1.32-.73,2.65-1.09,3.97-1.32,1.41-1.58,3.54-.21,4.34,2.67,1.57,5.85,2.2,9.01,1.53,2.66-.57,2.22-2.87,2.31-4.8,0-.7,0-1.4,0-2.1ZM483.51,1018.5c-2.82-.22-6.94,1.4-5.71-2.69,1.4-4.66-1.43-6.43-3.88-8.69-1.74-1.61-4.42-2.37-6.42-1.69-2.39.81-.32,3.11-.29,4.77.01.64-.24,1.28-.39,1.92-.62,2.64-1.3,5.22,3.14,3.99,1-.28,1.7.74,2.24,1.64,3.83,6.34,4.99,6.47,11.29.74Z"/>
    <path class="cls-27" d="M519.34,1016.9c-3.46,1.98-.66,3.99-.02,5.98-1.96.12-1.99,1.54-2.01,2.97-.32.01-.64.03-.96.04-.66,0-1.31,0-1.97,0,0,0,0,0,0,0,1.01-4.24.49-7.2-5.02-5.97-.33-.33-.66-.67-.99-1-1.06-3.91-1.57-8.05-4.69-11.08-1.97-1.91-3.39-3.61-.16-5.9,1.73-1.23.53-3.11-.6-4.33-1.01-1.09-2.37-.6-2.93.51-2.97,5.86-5.82,2.15-8.32-.24-.97-.93-1.26-2-3.01-1.59-3.61.85-6.06-1.64-7.78-4.03-1.22-1.69-1.18-4.53.45-6.54,2.06-2.54,4.03-4.8,8.16-3.43,2.34.78,5.23-.12,7.87-.27,9.3-1.18,16.09,3.96,18.06,13.7.12,1.63-.38,3.78.48,4.79,4.16,4.93,3.64,10.64,3.44,16.37Z"/>
    <path class="cls-18" d="M511.39,1033.94c4.3-1.01,5.7-6.34,10.29-6.91-.36,3.54-1.91,6.55-5.27,7.75-2.85,1.01-2.96,4.14-3.26,5.46-1.16,5.08-4.91,5.15-8.46,5.68-2.43.36-4.76.48-6.26,2.76-2.29-1.37-4.74-.57-7.14-.53-7.15-2.47-14.37-4.75-21.41-7.51-3.4-1.33-4.74-4.61-4.44-8.19.25-2.96-.92-5.08-3.06-6.81-5.97-4.82-6.5-10.47-1.37-16.14.69-.77,1.34-1.43,1.23-2.53,0-1.74-.01-3.49-.02-5.24-.02-.38.15-.64.49-.8.96,4.06,1.33,7.97-.57,12.01-2.07,4.4,2.61,6.49,4.08,9.68.28.61,2.13.46,1.8,1.84-1.45,6.07,3.26,5.9,6.74,6.31,2.97.35,5.58,0,5.8,4.23.15,2.84,4.29,1.83,5.43,4.98,1.15,3.17,4.12,1.13,6.18-.38,1.29-.95,2.39-.83,3.39.56.46.64,1.15,1.25,1.87,1.54,2.81,1.09,13.13-4.71,13.95-7.76h0Z"/>
    <path class="cls-7" d="M497.36,982.04c-2.64.14-5.54,1.04-7.87.27-4.12-1.38-6.1.89-8.16,3.43-1.63,2.01-1.67,4.84-.45,6.54,1.72,2.39,4.17,4.87,7.78,4.03,1.74-.41,2.03.66,3.01,1.59,2.49,2.39,5.35,6.09,8.32.24.56-1.11,1.92-1.6,2.93-.51,1.13,1.22,2.33,3.1.6,4.33-3.23,2.29-1.81,3.99.16,5.9,3.13,3.03,3.63,7.17,4.69,11.08-1,0-2.01,0-3.01,0-.83-.74-2.1-1.33-2.43-2.25-1.5-4.21-3.51-2.58-5.64-.7-4.09,3.72-8.64-1.2-12.94.64-.72.31-3.15-1.13-3.18-1.83-.18-4.19-3.04-7.67-2.9-11.87,1.03.2,1.29,2.33,2.71,1.28.89-.66,1.56-1.86,1.13-3.03-.69-1.9-2.48-1-3.82-1.21-5.85-2.66-6.5-6.57-1.59-12.65,1.82-2.26,3.16-4.5,3.65-7.3,3.53-1.98,6.76-3.39,10.27.56,1.4,1.57,4.82-.89,6.73,1.48ZM491.17,1014.86c.54-1.46,3.87.5,3.72-2.86-.12-2.7-5.94-9.09-8.15-8.62-2.72.58-3.19,3.34-3.83,5.29-.75,2.32,4.6,6.33,8.25,6.2Z"/>
    <path class="cls-38" d="M491.29,1048.14c2.4-.04,4.85-.84,7.14.53-2.34,1.78-3.84,4.24-3.77,7.07.33,14.25-1.33,28.56.99,42.74.5,3.07-1.13,3.95-3.26,4.04-2.85.13-2.29-2.57-2.1-4.03,1.02-7.94.85-15.89.92-23.86.06-7.05-1.75-13.48-5.68-19.3-1.15-1.7-2.88-3.05-3.02-6.04,3.71,2.62,5.74,5.92,8.67,9.82.53-4.28.78-7.6.12-10.97Z"/>
    <path class="cls-7" d="M519.34,1016.9c.2-5.73.72-11.45-3.44-16.37-.85-1.01-.35-3.16-.48-4.79,8.66,1.24,7.83,8.03,8.24,14.1-1.49-.37-2.81-.47-1.93,1.73.36.9.8,1.92,1.51,2.49,1.93,1.54,3.22,3.29.94,5.2-2.46,2.05-2.49-1.54-3.9-2.11-.3-.12-.63-.16-.95-.24Z"/>
    <path class="cls-26" d="M462.23,1001.72c0,1.75.01,3.49.02,5.24-1.09-1.74-1.52-3.49-.02-5.24Z"/>
    <path class="cls-7" d="M483.51,1018.5c-6.31,5.73-7.47,5.6-11.29-.74-.55-.91-1.24-1.92-2.24-1.64-4.44,1.22-3.76-1.35-3.14-3.99.15-.64.4-1.28.39-1.92-.03-1.66-2.11-3.96.29-4.77,2-.68,4.68.09,6.42,1.69,2.45,2.26,5.28,4.03,3.88,8.69-1.23,4.09,2.88,2.47,5.71,2.69Z"/>
    <path class="cls-7" d="M496.41,1026.97c-.09,1.93.35,4.23-2.31,4.8-3.16.68-6.34.04-9.01-1.53-1.37-.81-1.11-2.93.21-4.34,3.62,1.28,7.29,1.92,11.11,1.07Z"/>
    <path class="cls-7" d="M511.4,1033.94c-2.26.31-4.51.68-6.77.91-1.2.12-2.37-.25-2.82-1.51-.39-1.11.54-1.78,1.18-2.52,1.43-1.65,3.03-2.17,5.27-1.52,2.53.73,3.46,2.18,3.15,4.65,0,0,0,0,0,0Z"/>
    <path class="cls-27" d="M496.41,1026.97c-3.82.85-7.5.21-11.11-1.07.36-1.32.73-2.65,1.09-3.97.84-.02,1.59-.23,1.98-1.08,1.01,0,2.01-.02,3.02-.03-.28,3.77,2.79,3.39,5.02,4.04,0,.7,0,1.4,0,2.1Z"/>
    <path class="cls-27" d="M497.29,1015.97c2.13-1.88,4.14-3.51,5.64.7.33.92,1.59,1.51,2.43,2.25,0,.66,0,1.32-.01,1.98-1.99,0-3.98.01-5.97.02-1.76-1.2-2.22-2.95-2.08-4.95Z"/>
    <path class="cls-7" d="M509.36,1019.92c5.51-1.23,6.03,1.73,5.02,5.97-3.15-.75-5.01-2.58-5.02-5.97Z"/>
    <path class="cls-27" d="M478.29,999.94c1.34.21,3.13-.69,3.82,1.21.43,1.17-.25,2.37-1.13,3.03-1.42,1.06-1.68-1.08-2.71-1.28,0-.99.02-1.98.02-2.96Z"/>
    <path class="cls-7" d="M496.41,1024.87c-2.23-.66-5.29-.28-5.02-4.04,3.54-.97,4.15,1.69,5.02,4.04Z"/>
    <path class="cls-7" d="M499.37,1020.92c1.99,0,3.98-.01,5.97-.02-1.98,3.14-3.97,3.11-5.97.02Z"/>
    <path class="cls-7" d="M517.31,1025.86c.02-1.43.05-2.85,2.01-2.97.07,1.49.1,2.96-2.01,2.97Z"/>
    <path class="cls-7" d="M488.38,1020.85c-.39.85-1.14,1.05-1.98,1.08.16-1.28.35-2.51,1.98-1.08Z"/>
    <path class="cls-7" d="M514.37,1025.9c.66,0,1.31,0,1.97,0-.13.73-.13,1.72-1.21,1.49-.34-.07-.51-.97-.76-1.5Z"/>
    <path class="cls-27" d="M491.17,1014.86c-3.64.14-9-3.88-8.25-6.2.63-1.95,1.11-4.71,3.83-5.29,2.2-.47,8.02,5.92,8.15,8.62.15,3.36-3.19,1.41-3.72,2.86Z"/>
  </g>
</svg>