<?xml version="1.0" encoding="UTF-8"?>
<svg id="Layer_1" data-name="Layer 1" xmlns="http://www.w3.org/2000/svg" viewBox="0 0 2000 2000">
  <defs>
    <style>
      .cls-1 {
        stroke-width: 9px;
      }

      .cls-1, .cls-2, .cls-3, .cls-4, .cls-5 {
        fill: none;
        stroke-miterlimit: 10;
      }

      .cls-1, .cls-4 {
        stroke: #73c69e;
      }

      .cls-6 {
        fill: #2d439b;
      }

      .cls-6, .cls-7, .cls-8, .cls-9, .cls-10, .cls-11, .cls-12, .cls-13, .cls-14, .cls-15, .cls-16, .cls-17, .cls-18, .cls-19, .cls-20, .cls-21, .cls-22, .cls-23, .cls-24, .cls-25, .cls-26, .cls-27, .cls-28, .cls-29, .cls-30, .cls-31, .cls-32, .cls-33, .cls-34 {
        stroke-width: 0px;
      }

      .cls-7 {
        fill: #9f6c29;
      }

      .cls-8 {
        fill: #878544;
      }

      .cls-9 {
        fill: #b3ae5b;
      }

      .cls-10 {
        fill: #d5cebd;
      }

      .cls-11 {
        fill: #724b23;
      }

      .cls-12 {
        fill: #aaa59e;
      }

      .cls-13 {
        fill: #dee56c;
      }

      .cls-14 {
        fill: #3c50a2;
      }

      .cls-15 {
        fill: #c92027;
      }

      .cls-16 {
        fill: #6f8387;
      }

      .cls-17 {
        fill: #293988;
      }

      .cls-2 {
        stroke: #72c69e;
        stroke-width: 25px;
      }

      .cls-18 {
        fill: #d7eff7;
      }

      .cls-19 {
        fill: #c8d6ee;
      }

      .cls-20 {
        fill: #f99c1c;
      }

      .cls-21 {
        fill: #cf96c3;
      }

      .cls-22 {
        fill: #bfbf5d;
      }

      .cls-23 {
        fill: #bcb7ac;
      }

      .cls-3 {
        stroke: #ce202d;
      }

      .cls-3, .cls-5 {
        stroke-width: 10px;
      }

      .cls-24 {
        fill: #d3a1ca;
      }

      .cls-25 {
        fill: #d3cb6d;
      }

      .cls-26 {
        fill: #819aa1;
      }

      .cls-27 {
        fill: #a61f2a;
      }

      .cls-28 {
        fill: #941a1d;
      }

      .cls-29 {
        fill: #d88328;
      }

      .cls-30 {
        fill: #e4b0d1;
      }

      .cls-31 {
        fill: #84647e;
      }

      .cls-32 {
        fill: #895d26;
      }

      .cls-33 {
        fill: #bf8eb5;
      }

      .cls-34 {
        fill: #bc6e29;
      }

      .cls-4 {
        stroke-width: 21px;
      }

      .cls-5 {
        stroke: #ed1c24;
      }
    </style>
  </defs>
  <polygon class="cls-10" points="899.58 1420.36 203.46 990.31 1181.24 423.17 1887.43 839.31 899.58 1420.36"/>
  <polygon class="cls-23" points="898.66 1716.52 203.47 1274.97 203.47 989.11 899.59 1419.16 898.66 1716.52"/>
  <polygon class="cls-12" points="1882.42 1073.72 898.66 1716.52 899.59 1419.16 1887.43 838.11 1882.42 1073.72"/>
  <path class="cls-26" d="M845.42,618.03s50.01,75.67,104.41,105.69c54.4,30.01,116.3,37.51,116.3,37.51,0,0,99.41,11.25,116.3,90.04,12.88,60.09,116.32,99.44,164.68,114.73,30.56,9.66,59.84,23.02,86.87,40.24,28.68,18.27,56.93,41.92,59.09,65.13l396.17-233.03-706.19-416.14-337.62,195.83Z"/>
  <polygon class="cls-16" points="1491.26 1071.14 1491.26 1329.31 1882.42 1073.72 1887.43 838.11 1491.26 1071.14"/>
  <g>
    <g>
      <polygon class="cls-20" points="418 1045.32 305.39 955.78 610.87 781.66 725.57 869.08 418 1045.32"/>
      <polygon class="cls-29" points="418 1068.29 305.92 974.63 305.39 955.78 418 1045.32 418 1068.29"/>
      <polygon class="cls-34" points="725.57 891.64 418 1068.29 418 1045.32 725.57 869.08 725.57 891.64"/>
    </g>
    <ellipse class="cls-2" cx="469.87" cy="724.2" rx="186.03" ry="135.59" transform="translate(-387.3 826.7) rotate(-63.84)"/>
    <g>
      <polygon class="cls-15" points="381.62 640.71 360.68 623.11 402.86 606.27 425.97 623.13 381.62 640.71"/>
      <polygon class="cls-15" points="427.99 660.96 369.12 685.33 346.18 667.62 405.88 645 427.99 660.96"/>
      <path class="cls-28" d="M381.62,640.71s-6.45,1.12-9.2,20.2l58.73-23.44s1.9-9.17-5.19-14.34l-44.35,17.58Z"/>
      <path class="cls-27" d="M346.18,667.62s-1.32,5.3,2.61,9.5l25.46,18.16s-5.23-3.73-5.12-9.95l-22.94-17.71Z"/>
      <path class="cls-28" d="M374.24,695.28l48.67-21.04s4.41-5.91,5.08-13.28l-58.87,24.37s-.61,6.06,5.12,9.95Z"/>
      <polygon class="cls-19" points="352.55 645.77 371.55 659.95 368.21 684.63 349.27 670.01 352.55 645.77"/>
      <polygon class="cls-19" points="374.53 660.06 427.54 638.91 424.23 662.52 371.25 684.3 374.53 660.06"/>
      <polygon class="cls-14" points="371.55 659.95 372.42 660.9 369.12 685.33 368.21 684.63 371.55 659.95"/>
      <polygon class="cls-17" points="372.42 660.9 374.53 660.06 371.25 684.3 369.12 685.33 372.42 660.9"/>
      <polygon class="cls-17" points="427.54 638.91 430.03 637.92 426.85 661.44 424.23 662.52 427.54 638.91"/>
      <path class="cls-27" d="M360.68,623.11s-9.53,5.34-11.22,20.31l22.97,17.49s5.29-19.61,9.2-20.2l-20.94-17.6Z"/>
    </g>
    <g>
      <polygon class="cls-15" points="586.91 613.09 565.97 595.49 608.14 578.65 631.26 595.51 586.91 613.09"/>
      <polygon class="cls-15" points="633.28 633.35 574.41 657.72 551.46 640.01 611.17 617.38 633.28 633.35"/>
      <path class="cls-28" d="M586.91,613.09s-6.45,1.12-9.2,20.2l58.73-23.44s1.9-9.17-5.19-14.34l-44.35,17.58Z"/>
      <path class="cls-27" d="M551.46,640.01s-1.32,5.3,2.61,9.5l25.46,18.16s-5.23-3.73-5.12-9.95l-22.94-17.71Z"/>
      <path class="cls-28" d="M579.53,667.67l48.67-21.04s4.41-5.91,5.08-13.28l-58.87,24.37s-.61,6.06,5.12,9.95Z"/>
      <polygon class="cls-19" points="557.83 618.15 576.84 632.33 573.5 657.01 554.55 642.39 557.83 618.15"/>
      <polygon class="cls-19" points="579.82 632.44 632.83 611.29 629.52 634.9 576.54 656.68 579.82 632.44"/>
      <polygon class="cls-14" points="576.84 632.33 577.71 633.29 574.41 657.72 573.5 657.01 576.84 632.33"/>
      <polygon class="cls-17" points="577.71 633.29 579.82 632.44 576.54 656.68 574.41 657.72 577.71 633.29"/>
      <polygon class="cls-17" points="632.83 611.29 635.31 610.3 632.13 633.82 629.52 634.9 632.83 611.29"/>
      <path class="cls-27" d="M565.97,595.49s-9.53,5.34-11.22,20.31l22.97,17.49s5.29-19.61,9.2-20.2l-20.94-17.6Z"/>
    </g>
    <g>
      <polygon class="cls-15" points="365.29 847.02 344.35 829.42 386.53 812.58 409.64 829.44 365.29 847.02"/>
      <polygon class="cls-15" points="411.66 867.27 352.79 891.64 329.85 873.94 389.55 851.31 411.66 867.27"/>
      <path class="cls-28" d="M365.29,847.02s-6.45,1.12-9.2,20.2l58.73-23.44s1.9-9.17-5.19-14.34l-44.35,17.58Z"/>
      <path class="cls-27" d="M329.85,873.94s-1.32,5.3,2.61,9.5l25.46,18.16s-5.23-3.73-5.12-9.95l-22.94-17.71Z"/>
      <path class="cls-28" d="M357.91,901.6l48.67-21.04s4.41-5.91,5.08-13.28l-58.87,24.37s-.61,6.06,5.12,9.95Z"/>
      <polygon class="cls-19" points="336.21 852.08 355.22 866.26 351.88 890.94 332.94 876.32 336.21 852.08"/>
      <polygon class="cls-19" points="358.2 866.37 411.21 845.22 407.9 868.83 354.92 890.61 358.2 866.37"/>
      <polygon class="cls-14" points="355.22 866.26 356.09 867.22 352.79 891.64 351.88 890.94 355.22 866.26"/>
      <polygon class="cls-17" points="356.09 867.22 358.2 866.37 354.92 890.61 352.79 891.64 356.09 867.22"/>
      <polygon class="cls-17" points="411.21 845.22 413.7 844.23 410.52 867.75 407.9 868.83 411.21 845.22"/>
      <path class="cls-27" d="M344.35,829.42s-9.53,5.34-11.22,20.31l22.97,17.49s5.29-19.61,9.2-20.2l-20.94-17.6Z"/>
    </g>
    <g>
      <polygon class="cls-15" points="576.28 811.04 555.34 793.44 597.52 776.61 620.63 793.46 576.28 811.04"/>
      <polygon class="cls-15" points="622.65 831.3 563.78 855.67 540.84 837.96 600.54 815.33 622.65 831.3"/>
      <path class="cls-28" d="M576.28,811.04s-6.45,1.12-9.2,20.2l58.73-23.44s1.9-9.17-5.19-14.34l-44.35,17.58Z"/>
      <path class="cls-27" d="M540.84,837.96s-1.32,5.3,2.61,9.5l25.46,18.16s-5.23-3.73-5.12-9.95l-22.94-17.71Z"/>
      <path class="cls-28" d="M568.9,865.62l48.67-21.04s4.41-5.91,5.08-13.28l-58.87,24.37s-.61,6.06,5.12,9.95Z"/>
      <polygon class="cls-19" points="547.2 816.1 566.21 830.29 562.87 854.97 543.93 840.34 547.2 816.1"/>
      <polygon class="cls-19" points="569.19 830.39 622.2 809.24 618.89 832.85 565.91 854.63 569.19 830.39"/>
      <polygon class="cls-14" points="566.21 830.29 567.08 831.24 563.78 855.67 562.87 854.97 566.21 830.29"/>
      <polygon class="cls-17" points="567.08 831.24 569.19 830.39 565.91 854.63 563.78 855.67 567.08 831.24"/>
      <polygon class="cls-17" points="622.2 809.24 624.68 808.25 621.5 831.77 618.89 832.85 622.2 809.24"/>
      <path class="cls-27" d="M555.34,793.44s-9.53,5.34-11.22,20.31l22.97,17.49s5.29-19.61,9.2-20.2l-20.94-17.6Z"/>
    </g>
    <g>
      <polygon class="cls-14" points="489.02 564.61 468.26 547.16 510.07 530.47 532.98 547.18 489.02 564.61"/>
      <path class="cls-6" d="M468.26,547.16s-9.44,5.29-11.13,20.13l22.77,17.33s5.24-19.44,9.12-20.02l-20.76-17.45Z"/>
      <polygon class="cls-14" points="534.99 584.68 476.63 608.84 453.88 591.29 513.07 568.86 534.99 584.68"/>
      <path class="cls-17" d="M489.02,564.61s-6.4,1.11-9.12,20.02l58.22-23.23s1.89-9.09-5.14-14.22l-43.96,17.43Z"/>
      <path class="cls-6" d="M453.88,591.29s-1.31,5.25,2.58,9.42l25.24,18s-5.18-3.7-5.08-9.86l-22.74-17.55Z"/>
      <path class="cls-6" d="M481.7,618.71l48.25-20.86s4.37-5.86,5.03-13.16l-58.36,24.16s-.61,6.01,5.08,9.86Z"/>
      <polygon class="cls-19" points="460.19 569.62 479.03 583.68 475.73 608.15 456.94 593.65 460.19 569.62"/>
      <polygon class="cls-19" points="481.99 583.79 534.54 562.82 531.26 586.23 478.74 607.82 481.99 583.79"/>
      <polygon class="cls-15" points="479.03 583.68 479.9 584.63 476.63 608.84 475.73 608.15 479.03 583.68"/>
      <polygon class="cls-28" points="479.9 584.63 481.99 583.79 478.74 607.82 476.63 608.84 479.9 584.63"/>
      <polygon class="cls-28" points="534.54 562.82 537 561.84 533.85 585.15 531.26 586.23 534.54 562.82"/>
    </g>
    <g>
      <polygon class="cls-14" points="328.95 742.13 308.19 724.69 350 708 372.91 724.71 328.95 742.13"/>
      <path class="cls-6" d="M308.19,724.69s-9.44,5.29-11.13,20.13l22.77,17.33s5.24-19.44,9.12-20.02l-20.76-17.45Z"/>
      <polygon class="cls-14" points="374.92 762.21 316.56 786.37 293.82 768.82 353 746.39 374.92 762.21"/>
      <path class="cls-17" d="M328.95,742.13s-6.4,1.11-9.12,20.02l58.22-23.23s1.89-9.09-5.14-14.22l-43.96,17.43Z"/>
      <path class="cls-6" d="M293.82,768.82s-1.31,5.25,2.58,9.42l25.24,18s-5.18-3.7-5.08-9.86l-22.74-17.55Z"/>
      <path class="cls-6" d="M321.64,796.24l48.25-20.86s4.37-5.86,5.03-13.16l-58.36,24.16s-.61,6.01,5.08,9.86Z"/>
      <polygon class="cls-19" points="300.13 747.15 318.97 761.21 315.66 785.68 296.88 771.18 300.13 747.15"/>
      <polygon class="cls-19" points="321.92 761.31 374.47 740.35 371.19 763.76 318.67 785.34 321.92 761.31"/>
      <polygon class="cls-15" points="318.97 761.21 319.83 762.15 316.56 786.37 315.66 785.68 318.97 761.21"/>
      <polygon class="cls-28" points="319.83 762.15 321.92 761.31 318.67 785.34 316.56 786.37 319.83 762.15"/>
      <polygon class="cls-28" points="374.47 740.35 376.93 739.37 373.78 762.68 371.19 763.76 374.47 740.35"/>
    </g>
    <g>
      <polygon class="cls-14" points="607.75 697.01 586.99 679.56 628.8 662.87 651.71 679.58 607.75 697.01"/>
      <path class="cls-6" d="M586.99,679.56s-9.44,5.29-11.13,20.13l22.77,17.33s5.24-19.44,9.12-20.02l-20.76-17.45Z"/>
      <polygon class="cls-14" points="653.72 717.09 595.36 741.25 572.62 723.69 631.8 701.26 653.72 717.09"/>
      <path class="cls-17" d="M607.75,697.01s-6.4,1.11-9.12,20.02l58.22-23.23s1.89-9.09-5.14-14.22l-43.96,17.43Z"/>
      <path class="cls-6" d="M572.62,723.69s-1.31,5.25,2.58,9.42l25.24,18s-5.18-3.7-5.08-9.86l-22.74-17.55Z"/>
      <path class="cls-6" d="M600.44,751.11l48.25-20.86s4.37-5.86,5.03-13.16l-58.36,24.16s-.61,6.01,5.08,9.86Z"/>
      <polygon class="cls-19" points="578.93 702.02 597.77 716.08 594.46 740.55 575.68 726.05 578.93 702.02"/>
      <polygon class="cls-19" points="600.72 716.19 653.27 695.23 649.99 718.63 597.47 740.22 600.72 716.19"/>
      <polygon class="cls-15" points="597.77 716.08 598.63 717.03 595.36 741.25 594.46 740.55 597.77 716.08"/>
      <polygon class="cls-28" points="598.63 717.03 600.72 716.19 597.47 740.22 595.36 741.25 598.63 717.03"/>
      <polygon class="cls-28" points="653.27 695.23 655.73 694.24 652.58 717.56 649.99 718.63 653.27 695.23"/>
    </g>
    <g>
      <polygon class="cls-14" points="464.65 900.8 443.89 883.35 485.7 866.66 508.61 883.37 464.65 900.8"/>
      <path class="cls-6" d="M443.89,883.35s-9.44,5.29-11.13,20.13l22.77,17.33s5.24-19.44,9.12-20.02l-20.76-17.45Z"/>
      <polygon class="cls-14" points="510.62 920.87 452.26 945.03 429.51 927.48 488.7 905.05 510.62 920.87"/>
      <path class="cls-17" d="M464.65,900.8s-6.4,1.11-9.12,20.02l58.22-23.23s1.89-9.09-5.14-14.22l-43.96,17.43Z"/>
      <path class="cls-6" d="M429.51,927.48s-1.31,5.25,2.58,9.42l25.24,18s-5.18-3.7-5.08-9.86l-22.74-17.55Z"/>
      <path class="cls-6" d="M457.33,954.9l48.25-20.86s4.37-5.86,5.03-13.16l-58.36,24.16s-.61,6.01,5.08,9.86Z"/>
      <polygon class="cls-19" points="435.83 905.81 454.67 919.87 451.36 944.34 432.58 929.84 435.83 905.81"/>
      <polygon class="cls-19" points="457.62 919.98 510.17 899.01 506.89 922.42 454.37 944.01 457.62 919.98"/>
      <polygon class="cls-15" points="454.67 919.87 455.53 920.82 452.26 945.03 451.36 944.34 454.67 919.87"/>
      <polygon class="cls-28" points="455.53 920.82 457.62 919.98 454.37 944.01 452.26 945.03 455.53 920.82"/>
      <polygon class="cls-28" points="510.17 899.01 512.63 898.03 509.48 921.34 506.89 922.42 510.17 899.01"/>
    </g>
    <ellipse class="cls-4" cx="551.53" cy="784.12" rx="186.03" ry="135.59" transform="translate(-395.42 933.5) rotate(-63.84)"/>
    <line class="cls-1" x1="396.36" y1="641.63" x2="456.25" y2="675.47"/>
    <line class="cls-1" x1="505.34" y1="563.6" x2="570.54" y2="601.54"/>
    <line class="cls-1" x1="347.43" y1="740.68" x2="407.33" y2="774.51"/>
    <line class="cls-1" x1="400.55" y1="855.71" x2="382.4" y2="845.46"/>
    <line class="cls-1" x1="628.56" y1="694.17" x2="693.76" y2="732.12"/>
    <line class="cls-1" x1="588.99" y1="812.18" x2="661.36" y2="850.93"/>
    <polyline class="cls-1" points="481.51 902.37 546.71 940.32 557.89 947.07"/>
  </g>
  <polygon class="cls-7" points="1375.63 1120.01 685.75 714.92 735.93 685.94 1420.89 1092.79 1375.63 1120.01"/>
  <polygon class="cls-32" points="1375.63 1140.35 684.99 732.12 685.75 714.92 1375.63 1120.01 1375.63 1140.35"/>
  <polygon class="cls-11" points="1420.89 1112.53 1375.63 1140.35 1375.63 1120.01 1420.89 1092.79 1420.89 1112.53"/>
  <g>
    <line class="cls-3" x1="864.8" y1="1229.3" x2="838.64" y2="1270.02"/>
    <path class="cls-3" d="M550.56,1062.21l28.54,15.17,19.22,9.66c12.89,6.48,27.94-3.49,27-17.88l-.41-6.34c-1.39-21.49,21.34-36.16,40.35-26.04l2.12,1.13c17.13,9.11,28.32,26.45,29.57,45.81l3.25,50.12c.33,5.11,3.28,9.68,7.8,12.08h0c11.71,6.22,25.7-2.81,24.85-16.04l-5.56-85.88c-2.39-36.83,36.51-62.04,69.16-44.82l2.96,1.56c32.55,17.17,53.83,50.01,56.21,86.73l9.19,141.82,206.72,25.63"/>
    <line class="cls-3" x1="857.44" y1="1115.62" x2="830.04" y2="1159.5"/>
    <line class="cls-3" x1="862.62" y1="1173.32" x2="835.22" y2="1217.21"/>
    <g>
      <line class="cls-3" x1="896.93" y1="1232.91" x2="870.77" y2="1273.64"/>
      <line class="cls-3" x1="934.57" y1="1237.38" x2="908.41" y2="1278.11"/>
      <line class="cls-3" x1="972.21" y1="1241.85" x2="946.05" y2="1282.58"/>
      <line class="cls-3" x1="1009.02" y1="1245.16" x2="982.86" y2="1285.89"/>
      <line class="cls-3" x1="1049.61" y1="1249.44" x2="1023.45" y2="1290.17"/>
      <line class="cls-3" x1="534.53" y1="1108.32" x2="559.64" y2="1068.26"/>
      <line class="cls-3" x1="562.99" y1="1119.92" x2="584.05" y2="1079.88"/>
      <line class="cls-3" x1="589.4" y1="1128.97" x2="615.79" y2="1086.68"/>
      <line class="cls-3" x1="662.06" y1="1103.81" x2="689.84" y2="1059.83"/>
      <line class="cls-3" x1="671.18" y1="1130.53" x2="694.83" y2="1093.11"/>
      <line class="cls-3" x1="672.97" y1="1158.02" x2="697.14" y2="1128.85"/>
      <line class="cls-3" x1="686.17" y1="1183" x2="708" y2="1145.93"/>
      <line class="cls-3" x1="631.33" y1="1074.74" x2="644.61" y2="1037.35"/>
      <line class="cls-3" x1="655.02" y1="1083.85" x2="667.84" y2="1039.49"/>
      <line class="cls-3" x1="700.87" y1="1080.87" x2="731.44" y2="1071.16"/>
      <line class="cls-3" x1="705.4" y1="1110.57" x2="735.97" y2="1100.85"/>
      <line class="cls-3" x1="704.62" y1="1138.75" x2="735.19" y2="1129.03"/>
      <line class="cls-3" x1="771.08" y1="993.77" x2="750.65" y2="1034.44"/>
      <line class="cls-3" x1="801.57" y1="1000.31" x2="781.14" y2="1040.97"/>
      <line class="cls-3" x1="829.55" y1="1029.33" x2="809.12" y2="1069.99"/>
      <line class="cls-3" x1="854.29" y1="1067.06" x2="826.9" y2="1110.95"/>
      <line class="cls-3" x1="703.75" y1="1183.62" x2="728.33" y2="1144.61"/>
    </g>
    <path class="cls-5" d="M524.4,1102.94l28.54,15.17,19.22,9.66c12.89,6.48,27.94-3.49,27-17.88l-.41-6.34c-1.39-21.49,21.34-36.16,40.35-26.04l2.12,1.13c17.13,9.11,28.32,26.45,29.57,45.81l3.25,50.12c.33,5.11,3.28,9.68,7.8,12.08h0c11.71,6.22,25.7-2.81,24.85-16.04l-5.56-85.88c-2.39-36.83,36.51-62.04,69.16-44.82l2.96,1.56c32.55,17.17,53.83,50.01,56.21,86.73l9.19,141.82,219.64,28.19"/>
  </g>
  <g>
    <polyline class="cls-22" points="740.93 703.52 764.86 693.78 867.55 745.01 837.34 755.64"/>
    <g>
      <path class="cls-22" d="M837.34,755.64l30.2-10.63s9.67,3.7,9.09,18.02l-29.78,12.37-9.52-19.76Z"/>
      <polygon class="cls-13" points="843.57 893.24 726.48 833.46 726.93 710.31 846.86 775.4 843.57 893.24"/>
      <polygon class="cls-22" points="871.99 878.71 843.57 893.24 846.86 775.4 876.64 763.03 871.99 878.71"/>
      <path class="cls-13" d="M726.93,710.31h0c0-6.23,7.88-10.05,14-6.79l90.59,48.15c9.53,5.06,15.33,14.05,15.33,23.73h0s-119.93-65.09-119.93-65.09Z"/>
      <path class="cls-22" d="M764.86,693.78l-23.93,9.74s-6.59-2.96-11.74,1.55l22.99-9.36s8.23-2.66,12.67-1.93Z"/>
      <polygon class="cls-8" points="824.46 850.4 738.92 807.21 740.04 747.36 825.57 790.55 824.46 850.4"/>
      <polygon class="cls-9" points="754.86 754.84 754.86 795.4 738.92 807.21 740.04 747.36 754.86 754.84"/>
      <polygon class="cls-25" points="754.86 795.4 824.8 831.78 824.46 850.4 738.92 807.21 754.86 795.4"/>
    </g>
  </g>
  <g>
    <polyline class="cls-21" points="911.14 803.02 935.06 793.28 1037.75 844.51 1007.55 855.14"/>
    <g>
      <path class="cls-21" d="M1007.55,855.14l30.2-10.63s9.67,3.7,9.09,18.02l-29.78,12.37-9.52-19.76Z"/>
      <polygon class="cls-30" points="1013.78 992.74 896.69 932.96 897.13 809.81 1017.06 874.9 1013.78 992.74"/>
      <polygon class="cls-21" points="1042.19 978.21 1013.78 992.74 1017.06 874.9 1046.84 862.53 1042.19 978.21"/>
      <path class="cls-30" d="M897.13,809.81h0c0-6.23,7.88-10.05,14-6.79l90.59,48.15c9.53,5.06,15.33,14.05,15.33,23.73h0s-119.93-65.09-119.93-65.09Z"/>
      <path class="cls-21" d="M935.06,793.28l-23.93,9.74s-6.59-2.96-11.74,1.55l22.99-9.36s8.23-2.66,12.67-1.93Z"/>
      <polygon class="cls-31" points="994.66 949.9 909.13 906.71 910.24 846.86 995.77 890.05 994.66 949.9"/>
      <polygon class="cls-33" points="925.06 854.34 925.06 894.9 909.13 906.71 910.24 846.86 925.06 854.34"/>
      <polygon class="cls-24" points="925.06 894.9 995.01 931.28 994.66 949.9 909.13 906.71 925.06 894.9"/>
    </g>
  </g>
  <g>
    <polyline class="cls-22" points="1085.97 903.85 1109.9 894.11 1212.59 945.34 1182.38 955.97"/>
    <g>
      <path class="cls-22" d="M1182.38,955.97l30.2-10.63s9.67,3.7,9.09,18.02l-29.78,12.37-9.52-19.76Z"/>
      <polygon class="cls-13" points="1188.61 1093.57 1071.52 1033.79 1071.97 910.64 1191.9 975.73 1188.61 1093.57"/>
      <polygon class="cls-22" points="1217.03 1079.04 1188.61 1093.57 1191.9 975.73 1221.68 963.36 1217.03 1079.04"/>
      <path class="cls-13" d="M1071.97,910.64h0c0-6.23,7.88-10.05,14-6.79l90.59,48.15c9.53,5.06,15.33,14.05,15.33,23.73h0s-119.93-65.09-119.93-65.09Z"/>
      <path class="cls-22" d="M1109.9,894.11l-23.93,9.74s-6.59-2.96-11.74,1.55l22.99-9.36s8.23-2.66,12.67-1.93Z"/>
      <polygon class="cls-8" points="1169.5 1050.73 1083.97 1007.54 1085.08 947.69 1170.61 990.88 1169.5 1050.73"/>
      <polygon class="cls-9" points="1099.9 955.17 1099.9 995.73 1083.97 1007.54 1085.08 947.69 1099.9 955.17"/>
      <polygon class="cls-25" points="1099.9 995.73 1169.84 1032.11 1169.5 1050.73 1083.97 1007.54 1099.9 995.73"/>
    </g>
  </g>
  <path class="cls-18" d="M836.45,623.16s-20.24,9.86,8.07,21.32,41.58,38.31,41.58,38.31c0,0,51.27,63.48,86,69.7s89.88,5.37,89.88,5.37c0,0,59.81,17.16,59.81,32.14s31.81,20.77,31.81,20.77c0,0,18.8,19.14,20.24,48.61,1.45,29.47,78.08,82.81,78.08,82.81,0,0,66.51,69.57,124.35,42.09,0,0,33.98,2.54,57.12,41.03,23.14,38.5,44,49.45,44,49.45l11.52-6.78s.49-37.13-24.43-47.91c-24.92-10.78-68.57-56.04-68.57-56.04,0,0-42.05-21.56-60.85-17.29-18.8,4.27-104.83-51.52-104.83-51.52,0,0-43.01-116.94-71.34-114.83s-85.94-45.99-130.93-44.68-113.22-52.93-113.22-52.93l-58.64-71.04-19.66,11.4Z"/>
  <path class="cls-18" d="M1469.95,1069.57l10.67,7.83v258.64l10.64-6.73,1.8-257.94s4.32-22.06-6.7-22.14-16.4,20.35-16.4,20.35Z"/>
</svg>