<?xml version="1.0" encoding="UTF-8"?>
<svg id="Layer_1" data-name="Layer 1" xmlns="http://www.w3.org/2000/svg" viewBox="0 0 2000 2000">
  <defs>
    <style>
      .cls-1 {
        fill: #893630;
      }

      .cls-1, .cls-2, .cls-3, .cls-4, .cls-5, .cls-6, .cls-7, .cls-8, .cls-9, .cls-10, .cls-11, .cls-12, .cls-13, .cls-14, .cls-15, .cls-16, .cls-17 {
        stroke-width: 0px;
      }

      .cls-2 {
        fill: #f1604c;
      }

      .cls-3 {
        fill: #ddb791;
      }

      .cls-4 {
        fill: #7850a1;
      }

      .cls-5 {
        fill: #a14039;
      }

      .cls-6 {
        fill: #d63d96;
      }

      .cls-7 {
        fill: #b0afa8;
      }

      .cls-8 {
        fill: #e45d44;
      }

      .cls-9 {
        fill: #e85025;
      }

      .cls-10 {
        fill: #d7eff7;
      }

      .cls-11 {
        fill: #c24d3e;
      }

      .cls-12 {
        fill: #d1cec1;
      }

      .cls-13 {
        fill: #446f82;
      }

      .cls-14 {
        fill: #f39720;
      }

      .cls-15 {
        fill: #3c606d;
      }

      .cls-16 {
        fill: #bfbdb4;
      }

      .cls-17 {
        fill: #cebfb2;
      }
    </style>
  </defs>
  <polygon class="cls-12" points="853.13 1351.22 157.01 921.17 1134.78 354.04 1840.97 770.17 853.13 1351.22"/>
  <polygon class="cls-16" points="852.2 1647.38 157.02 1205.83 157.01 919.97 853.13 1350.03 852.2 1647.38"/>
  <polygon class="cls-7" points="1835.96 1004.58 852.2 1647.38 853.13 1350.03 1840.98 768.98 1835.96 1004.58"/>
  <path class="cls-13" d="M506.53,718.17s48.55,73.51,102.94,103.53c54.4,30.01,116.3,37.51,116.3,37.51,0,0,99.41,11.25,116.3,90.04,12.88,60.09,116.32,99.44,164.68,114.73,30.56,9.66,59.84,23.02,86.87,40.24,28.68,18.27,41.72,55.33,43.88,78.54l703.47-413.78-706.19-414.94-628.25,364.14Z"/>
  <polygon class="cls-15" points="1159.55 1169.39 1157.87 1447.66 1835.96 1004.58 1840.98 768.98 1159.55 1169.39"/>
  <path class="cls-10" d="M493.35,726.08s-18.49,9.89,9.82,21.35c28.31,11.46,41.58,38.31,41.58,38.31,0,0,51.27,63.48,86,69.7,34.73,6.22,89.88,5.37,89.88,5.37,0,0,59.81,17.16,59.81,32.14s31.81,20.77,31.81,20.77c0,0,18.8,19.14,20.24,48.61,1.45,29.47,78.08,82.81,78.08,82.81,0,0,66.51,69.57,124.35,42.09,0,0,33.98,2.54,57.12,41.03,23.14,38.5,45.45,54.49,45.45,54.49l10.07-4.73s.49-44.22-24.43-54.99c-24.92-10.78-68.57-56.04-68.57-56.04,0,0-42.05-21.56-60.85-17.29-18.8,4.27-104.83-51.52-104.83-51.52,0,0-43.01-116.94-71.34-114.83-28.32,2.11-85.94-45.99-130.93-44.68-44.99,1.3-113.22-52.93-113.22-52.93l-58.54-72.4-21.51,12.74Z"/>
  <path class="cls-10" d="M1136.32,1134.39l1.19,48.37-1.19,278.98,21.55-14.08,4.25-264.9s4.31-12.01-10.1-21.92c-9.08-6.24-15.69-26.45-15.69-26.45Z"/>
  <ellipse class="cls-7" cx="364.47" cy="922.56" rx="106.66" ry="13.66"/>
  <ellipse class="cls-7" cx="594.76" cy="969.01" rx="59.79" ry="7.65"/>
  <ellipse class="cls-7" cx="794.62" cy="1203.51" rx="74.23" ry="9.5"/>
  <g>
    <path class="cls-3" d="M465.81,897.4c.33.62.98.94,1.5,1.37,3.04,2.47,6.09,4.93,9.16,7.37.43.35.58.59.08,1.02-.61.53-1.17,1.12-1.72,1.7-.27.28-.48.29-.76.03-.26-.24-.61-.41-.83-.67-.38-.44-.69-.37-1.13-.05-3.61,2.62-7.23,5.23-10.85,7.83-4.02,2.9-8.04,5.79-12.06,8.69-1.53,1.1-3.06,2.22-4.6,3.31-.33.24-.35.37-.05.65.91.83.89.84-.04,1.74-.94.92-1.89,1.84-2.8,2.78-.27.28-.42.3-.71.05-3.58-3.14-7.17-6.27-10.76-9.39-3.8-3.31-7.6-6.61-11.4-9.91-.41-.36-.85-.69-1.22-1.08-.34-.36-.7-.36-1.16-.27-2.45.52-4.9,1.02-7.35,1.54-3.41.72-6.81,1.45-10.22,2.17-1.41.3-2.82.57-4.22.87-3.69.77-7.37,1.54-11.06,2.31-2.24.46-4.48.9-6.72,1.36-2.75.56-5.5,1.13-8.25,1.73-.39.09-.52-.01-.61-.3-.37-1.28-.73-2.57-1.1-3.86-.06-.22,0-.34.26-.39.36-.07.72-.17,1.08-.25.64-.16.87-.39.8-1.02-.4-3.51-.74-7.02-1.1-10.53-.2-1.96-.39-3.92-.59-5.87-.32-3.19-.64-6.38-.96-9.57-.2-2-.4-4-.6-5.99-.31-3.13-.63-6.26-.94-9.39-.2-2-.4-4-.6-6-.09-.93-.19-1.86-.27-2.79-.03-.33-.18-.55-.44-.77-1.99-1.7-3.95-3.41-5.94-5.12-.23-.19-.25-.34-.04-.56,1.19-1.18,2.38-2.36,3.55-3.56.22-.22.36-.21.58,0,.56.5,1.14.98,1.71,1.47.16.14.31.29.56.21-.16.25.06.36.21.48.39.34.79.68,1.19,1.02,2.06,1.77,4.11,3.55,6.17,5.32,1.65,1.56,3.42,3.02,5.15,4.5,2.08,1.81,4.16,3.61,6.23,5.42.15.14.29.29.45.43,1.55,1.33,3.1,2.66,4.65,4,1.5,1.32,2.98,2.65,4.5,3.96,1.1.95,2.13,1.98,3.33,2.83,1.48,1.46,3.08,2.79,4.69,4.11.08.09.16.19.25.27,3.07,2.66,6.13,5.32,9.2,7.98,1.55,1.34,3.1,2.68,4.65,4.02.73.64,1.45,1.29,2.18,1.92.45.38.81.87,1.42,1.08.11.48.63.63.91.97.33.41.73.48,1.25.35.76-.18,1.55-.26,2.29-.49.81-.25,1.68-.21,2.46-.54.56-.07,1.12-.14,1.68-.21.33.08.65-.01.97-.06,2.03-.28,4.06-.55,6.09-.86,1.12-.17,2.25-.26,3.34-.61,1.74-.21,3.44-.59,5.15-.92,1.02-.2,2.08-.25,3.07-.62,2.83-.35,5.63-.97,8.49-1.12.54.06,1.08.12,1.59.28,1.22.39,1.94,1.37,1.88,2.59-.43-.5-.94-.11-1.37-.03-4.03.82-8.05,1.69-12.08,2.54-2.49.52-4.99,1.04-7.48,1.56-3.9.81-7.8,1.61-11.7,2.42-.14.03-.34-.02-.4.15-.06.17.14.23.24.32,1.73,1.51,3.47,3.01,5.2,4.52,3.64,3.17,7.28,6.33,10.9,9.52.43.38.72.33,1.14.02,1.83-1.34,3.68-2.67,5.52-4,7.25-5.23,14.51-10.46,21.77-15.68.39-.28.4-.45.05-.73-1.08-.86-2.17-1.72-3.23-2.6-.96-.8-2.02-1.51-2.9-2.4.89-.87,1.78-1.73,2.67-2.6ZM369.51,870.99c-.04.14-.07.18-.06.21.36,3.76.71,7.51,1.1,11.27.22,2.08.43,4.16.63,6.24.29,3.17.61,6.34.96,9.51.22,2,.4,4,.6,6,.31,3.07.67,6.13.91,9.21.04.49.23.48.6.22,1.91-1.38,3.83-2.76,5.74-4.14,4.38-3.16,8.77-6.32,13.15-9.48,1.63-1.18,3.26-2.37,4.9-3.55.31-.22.39-.36.04-.63-.64-.5-1.23-1.06-1.85-1.6-4.08-3.55-8.16-7.11-12.24-10.66-3.43-2.99-6.86-5.99-10.3-8.98-1.37-1.19-2.75-2.37-4.18-3.61ZM377.77,915.65s.03.08.05.13c1.74-.38,3.48-.76,5.23-1.13,3.22-.67,6.44-1.33,9.66-2,3.11-.65,6.22-1.3,9.33-1.95,3.26-.68,6.52-1.35,9.78-2.03.21-.04.52.02.59-.17.1-.24-.2-.36-.37-.51-3.43-2.99-6.88-5.97-10.3-8.98-.33-.29-.54-.27-.87-.03-1.03.76-2.09,1.5-3.13,2.26-4.68,3.37-9.36,6.75-14.04,10.13-1.98,1.43-3.96,2.85-5.94,4.28Z"/>
    <path class="cls-9" d="M371.59,865.08c-2.06-1.77-4.11-3.55-6.17-5.32-.4-.34-.79-.68-1.19-1.02-.15-.13-.37-.24-.21-.48,2.11-.85,4.23-1.69,6.33-2.55,8.14-3.33,16.28-6.67,24.42-10,.2-.08.39-.18.59-.27.3-.12.6-.23.9-.37,1.19-.54,2.22-.35,3.08.58.29.32.58.65.87.97,1.11,1.24,2.22,2.49,3.33,3.73-.14.05-.29.09-.42.16-1.38.8-2.75,1.62-4.13,2.41-3.39,1.94-6.88,3.69-10.42,5.36-3.6,1.69-7.25,3.26-10.99,4.67-1.98.75-3.95,1.54-5.99,2.13Z"/>
    <path class="cls-3" d="M403.54,850.34c-1.11-1.24-2.22-2.49-3.33-3.73-.29-.32-.57-.65-.87-.97-.86-.92-1.89-1.11-3.08-.58-.29.13-.6.25-.9.37-.84-.67-1.66-1.34-2.51-1.99-.26-.2-.3-.32-.04-.57.7-.66,1.37-1.33,2.02-2.02.25-.26.4-.2.63-.01,4.54,3.67,9.1,7.33,13.64,11,5.62,4.54,11.23,9.08,16.85,13.62,3.19,2.58,6.41,5.13,9.6,7.71,4.52,3.64,9.02,7.29,13.54,10.93-.74.12-1.49.24-2.23.36-.95.12-1.9.23-2.86.35-.06-.28-.32-.42-.52-.59-1.31-1.07-2.64-2.13-3.96-3.2-3.7-2.98-7.41-5.96-11.11-8.94-4.97-4.01-9.93-8.03-14.92-12.02-.64-.51-1.18-1.17-2-1.48-.17-.17-.35-.34-.52-.52-1.13-1.16-2.27-2.33-3.4-3.49-1.29-1.46-2.62-2.88-4.03-4.24Z"/>
    <path class="cls-9" d="M457.46,904.37c.06-1.22-.66-2.2-1.88-2.59-.52-.17-1.06-.22-1.59-.28,1.12-1.29,2.23-2.58,3.37-3.84,2.81-3.11,5.78-6.09,8.86-8.97,2.09-1.95,4.22-3.87,6.44-5.7,1.07-.88,2.11-1.78,3.17-2.66.32-.06.64-.13.97-.16.87-.1,1.53.19,1.95.9.64,1.07.62,2.25.56,3.43-.01.21-.21.3-.34.43-4.38,4.16-8.76,8.31-13.14,12.47-.89.87-1.78,1.73-2.67,2.6-.18.15-.37.28-.54.44-1.71,1.62-3.42,3.24-5.2,4.92.02-.39.04-.68.06-.98Z"/>
    <path class="cls-14" d="M475.82,880.32c-1.06.89-2.1,1.79-3.17,2.66-2.22,1.83-4.34,3.75-6.44,5.7-3.08,2.88-6.05,5.86-8.86,8.97-1.14,1.27-2.26,2.56-3.37,3.84-2.86.15-5.65.77-8.48,1.12,0-.3.24-.48.4-.68,2.66-3.36,5.48-6.61,8.43-9.76,2.31-2.46,4.68-4.87,7.16-7.18,1.1-1.03,2.2-2.06,3.29-3.09,3.68-.53,7.35-1.06,11.03-1.59Z"/>
    <path class="cls-14" d="M446.87,884.46c.74-.12,1.49-.24,2.23-.36,2.03-.28,4.07-.55,6.1-.83-1.13,1.83-2.54,3.48-3.86,5.19-1.85,2.41-3.84,4.72-5.86,7.02-1.43,1.63-2.9,3.23-4.42,4.78-1.27,1.3-2.53,2.6-3.8,3.9-1.08.35-2.22.44-3.34.61-2.03.31-4.06.58-6.09.86-.32.04-.64.14-.97.06,2.04-1.83,4.06-3.68,6.01-5.59,2.01-1.97,3.96-3.99,5.86-6.05,1.45-1.57,2.85-3.17,4.24-4.78,1.35-1.57,2.66-3.16,3.88-4.81Z"/>
    <path class="cls-9" d="M437.27,904.16c1.26-1.3,2.53-2.6,3.8-3.9,1.52-1.56,2.99-3.16,4.42-4.78,2.02-2.29,4-4.61,5.86-7.02,1.32-1.71,2.72-3.37,3.86-5.19,3.2-.45,6.39-.91,9.59-1.36-1.1,1.03-2.19,2.06-3.29,3.09-2.48,2.31-4.85,4.72-7.16,7.18-2.95,3.15-5.77,6.4-8.43,9.76-.17.21-.41.39-.4.68-.99.36-2.05.41-3.07.62-1.71.34-3.41.72-5.15.92Z"/>
    <path class="cls-9" d="M410.04,898.58c-3.07-2.66-6.13-5.32-9.2-7.98-.09-.08-.17-.18-.25-.27,4.44-2.19,8.75-4.57,12.97-7.12,3.6-2.18,7.11-4.49,10.52-6.93.97-.7,1.99-1.34,2.84-2.18,2.14,2,4.28,4,6.42,6-.44.42-.89.84-1.33,1.27-2.21,2.14-4.54,4.15-6.91,6.13-3.22,2.69-6.54,5.26-9.99,7.68-1.66,1.17-3.28,2.4-5.06,3.41Z"/>
    <path class="cls-9" d="M407.57,854.58c1.13,1.16,2.27,2.33,3.4,3.49.17.18.35.35.52.52.72.75,1.44,1.51,2.17,2.26-.14.1-.26.22-.41.3-1.37.78-2.73,1.55-4.11,2.31-4.63,2.57-9.41,4.89-14.3,6.99-2.38,1.02-4.78,2.02-7.22,2.92-1.54.57-3.05,1.22-4.66,1.63-2.08-1.81-4.16-3.61-6.23-5.42.11-.17.29-.24.48-.3,4.29-1.53,8.47-3.3,12.59-5.18,3.8-1.73,7.52-3.61,11.16-5.63,2.24-1.24,4.5-2.45,6.61-3.89Z"/>
    <path class="cls-9" d="M446.87,884.46c-1.23,1.65-2.54,3.24-3.88,4.81-1.39,1.61-2.79,3.21-4.24,4.78-1.91,2.06-3.85,4.08-5.86,6.05-1.95,1.91-3.97,3.76-6.01,5.59-.56.07-1.12.14-1.68.21-.24,0-.48-.03-.71-.01-2.08.12-4.15.09-6.2-.28-.6-.21-.97-.7-1.42-1.08-.74-.63-1.46-1.28-2.18-1.92,3.09-2.09,6.13-4.24,9.07-6.51,3.37-2.59,6.65-5.28,9.77-8.12,1.65-1.5,3.25-3.03,4.88-4.55.21.09.43.17.64.26,1.45.62,2.95,1.1,4.58,1.12.04.04.08.06.13,0,.08,0,.17,0,.25,0,.95-.12,1.9-.23,2.86-.35Z"/>
    <path class="cls-9" d="M395.9,886.21c-1.2-.85-2.23-1.88-3.33-2.83-1.52-1.3-3-2.64-4.5-3.96,2.9-1.14,5.81-2.23,8.67-3.45,4.5-1.93,8.9-4.03,13.21-6.31,2.7-1.43,5.34-2.96,7.99-4.49,1.61,1.61,3.22,3.22,4.84,4.84-1.39,1-2.77,2.02-4.18,2.99-3.08,2.1-6.22,4.14-9.45,6.05-3.7,2.2-7.48,4.26-11.36,6.17-.63.31-1.32.54-1.87,1Z"/>
    <path class="cls-14" d="M407.57,854.58c-2.11,1.44-4.37,2.65-6.61,3.89-3.64,2.02-7.36,3.89-11.16,5.63-4.13,1.88-8.31,3.65-12.59,5.18-.19.07-.37.14-.48.3-1.73-1.49-3.49-2.94-5.15-4.51,2.04-.59,4.01-1.39,5.99-2.13,3.73-1.41,7.39-2.97,10.99-4.67,3.54-1.67,7.04-3.42,10.42-5.36,1.38-.79,2.75-1.61,4.13-2.41.13-.07.28-.11.42-.16,1.41,1.36,2.74,2.78,4.03,4.24Z"/>
    <path class="cls-14" d="M417.92,865.16c-2.64,1.53-5.28,3.06-7.99,4.49-4.31,2.29-8.71,4.38-13.21,6.31-2.86,1.23-5.77,2.32-8.67,3.45-1.55-1.33-3.1-2.66-4.65-4-.16-.14-.3-.29-.45-.43,1.6-.41,3.12-1.06,4.66-1.63,2.44-.9,4.83-1.9,7.22-2.92,4.89-2.1,9.66-4.42,14.3-6.99,1.37-.76,2.74-1.54,4.11-2.31.15-.08.27-.2.41-.3,1.46,1.41,2.89,2.84,4.27,4.32Z"/>
    <path class="cls-14" d="M395.9,886.21c.55-.46,1.23-.69,1.87-1,3.88-1.91,7.66-3.98,11.36-6.17,3.23-1.91,6.36-3.94,9.45-6.05,1.42-.97,2.79-1.99,4.18-2.99,1.43,1.32,2.82,2.68,4.15,4.09-.84.84-1.87,1.48-2.84,2.18-3.41,2.44-6.92,4.75-10.52,6.93-4.21,2.55-8.53,4.94-12.97,7.12-1.61-1.32-3.21-2.66-4.69-4.11Z"/>
    <path class="cls-14" d="M438.41,883.42c-1.63,1.52-3.23,3.06-4.88,4.55-3.13,2.84-6.41,5.53-9.77,8.12-2.94,2.27-5.98,4.42-9.07,6.51-1.55-1.34-3.1-2.68-4.65-4.02,1.78-1.01,3.4-2.24,5.06-3.41,3.45-2.42,6.77-5,9.99-7.68,2.37-1.98,4.7-3.99,6.91-6.13.44-.43.89-.85,1.33-1.27,1.6,1.23,3.26,2.39,5.08,3.34Z"/>
    <path class="cls-3" d="M443.63,884.8s.08,0,.13,0c-.04.06-.09.04-.13,0Z"/>
  </g>
  <g>
    <path class="cls-3" d="M638.22,947.13c.33.62.98.94,1.5,1.37,3.04,2.47,6.09,4.93,9.16,7.37.43.35.58.59.08,1.02-.61.53-1.17,1.12-1.72,1.7-.27.28-.48.29-.76.03-.26-.24-.61-.41-.83-.67-.38-.44-.69-.37-1.13-.05-3.61,2.62-7.23,5.23-10.85,7.83-4.02,2.9-8.04,5.79-12.06,8.69-1.53,1.1-3.06,2.22-4.6,3.31-.33.24-.35.37-.05.65.91.83.89.84-.04,1.74-.94.92-1.89,1.84-2.8,2.78-.27.28-.42.3-.71.05-3.58-3.14-7.17-6.27-10.76-9.39-3.8-3.31-7.6-6.61-11.4-9.91-.41-.36-.85-.69-1.22-1.08-.34-.36-.7-.36-1.16-.27-2.45.52-4.9,1.02-7.35,1.54-3.41.72-6.81,1.45-10.22,2.17-1.41.3-2.82.57-4.22.87-3.69.77-7.37,1.54-11.06,2.31-2.24.46-4.48.9-6.72,1.36-2.75.56-5.5,1.13-8.25,1.73-.39.09-.52-.01-.61-.3-.37-1.28-.73-2.57-1.1-3.86-.06-.22,0-.34.26-.39.36-.07.72-.17,1.08-.25.64-.16.87-.39.8-1.02-.4-3.51-.74-7.02-1.1-10.53-.2-1.96-.39-3.92-.59-5.87-.32-3.19-.64-6.38-.96-9.57-.2-2-.4-4-.6-5.99-.31-3.13-.63-6.26-.94-9.39-.2-2-.4-4-.6-6-.09-.93-.19-1.86-.27-2.79-.03-.33-.18-.55-.44-.77-1.99-1.7-3.95-3.41-5.94-5.12-.23-.19-.25-.34-.04-.56,1.19-1.18,2.38-2.36,3.55-3.56.22-.22.36-.21.58,0,.56.5,1.14.98,1.71,1.47.16.14.31.29.56.21-.16.25.06.36.21.48.39.34.79.68,1.19,1.02,2.06,1.77,4.11,3.55,6.17,5.32,1.65,1.56,3.42,3.02,5.15,4.5,2.08,1.81,4.16,3.61,6.23,5.42.15.14.29.29.45.43,1.55,1.33,3.1,2.66,4.65,4,1.5,1.32,2.98,2.65,4.5,3.96,1.1.95,2.13,1.98,3.33,2.83,1.48,1.46,3.08,2.79,4.69,4.11.08.09.16.19.25.27,3.07,2.66,6.13,5.32,9.2,7.98,1.55,1.34,3.1,2.68,4.65,4.02.73.64,1.45,1.29,2.18,1.92.45.38.81.87,1.42,1.08.11.48.63.63.91.97.33.41.73.48,1.25.35.76-.18,1.55-.26,2.29-.49.81-.25,1.68-.21,2.46-.54.56-.07,1.12-.14,1.68-.21.33.08.65-.01.97-.06,2.03-.28,4.06-.55,6.09-.86,1.12-.17,2.25-.26,3.34-.61,1.74-.21,3.44-.59,5.15-.92,1.02-.2,2.08-.25,3.07-.62,2.83-.35,5.63-.97,8.49-1.12.54.06,1.08.12,1.59.28,1.22.39,1.94,1.37,1.88,2.59-.43-.5-.94-.11-1.37-.03-4.03.82-8.05,1.69-12.08,2.54-2.49.52-4.99,1.04-7.48,1.56-3.9.81-7.8,1.61-11.7,2.42-.14.03-.34-.02-.4.15-.06.17.14.23.24.32,1.73,1.51,3.47,3.01,5.2,4.52,3.64,3.17,7.28,6.33,10.9,9.52.43.38.72.33,1.14.02,1.83-1.34,3.68-2.67,5.52-4,7.25-5.23,14.51-10.46,21.77-15.68.39-.28.4-.45.05-.73-1.08-.86-2.17-1.72-3.23-2.6-.96-.8-2.02-1.51-2.9-2.4.89-.87,1.78-1.73,2.67-2.6ZM541.92,920.72c-.04.14-.07.18-.06.21.36,3.76.71,7.51,1.1,11.27.22,2.08.43,4.16.63,6.24.29,3.17.61,6.34.96,9.51.22,2,.4,4,.6,6,.31,3.07.67,6.13.91,9.21.04.49.23.48.6.22,1.91-1.38,3.83-2.76,5.74-4.14,4.38-3.16,8.77-6.32,13.15-9.48,1.63-1.18,3.26-2.37,4.9-3.55.31-.22.39-.36.04-.63-.64-.5-1.23-1.06-1.85-1.6-4.08-3.55-8.16-7.11-12.24-10.66-3.43-2.99-6.86-5.99-10.3-8.98-1.37-1.19-2.75-2.37-4.18-3.61ZM550.18,965.38s.03.08.05.13c1.74-.38,3.48-.76,5.23-1.13,3.22-.67,6.44-1.33,9.66-2,3.11-.65,6.22-1.3,9.33-1.95,3.26-.68,6.52-1.35,9.78-2.03.21-.04.52.02.59-.17.1-.24-.2-.36-.37-.51-3.43-2.99-6.88-5.97-10.3-8.98-.33-.29-.54-.27-.87-.03-1.03.76-2.09,1.5-3.13,2.26-4.68,3.37-9.36,6.75-14.04,10.13-1.98,1.43-3.96,2.85-5.94,4.28Z"/>
    <path class="cls-6" d="M543.99,914.81c-2.06-1.77-4.11-3.55-6.17-5.32-.4-.34-.79-.68-1.19-1.02-.15-.13-.37-.24-.21-.48,2.11-.85,4.23-1.69,6.33-2.55,8.14-3.33,16.28-6.67,24.42-10,.2-.08.39-.18.59-.27.3-.12.6-.23.9-.37,1.19-.54,2.22-.35,3.08.58.29.32.58.65.87.97,1.11,1.24,2.22,2.49,3.33,3.73-.14.05-.29.09-.42.16-1.38.8-2.75,1.62-4.13,2.41-3.39,1.94-6.88,3.69-10.42,5.36-3.6,1.69-7.25,3.26-10.99,4.67-1.98.75-3.95,1.54-5.99,2.13Z"/>
    <path class="cls-3" d="M575.95,900.08c-1.11-1.24-2.22-2.49-3.33-3.73-.29-.32-.57-.65-.87-.97-.86-.92-1.89-1.11-3.08-.58-.29.13-.6.25-.9.37-.84-.67-1.66-1.34-2.51-1.99-.26-.2-.3-.32-.04-.57.7-.66,1.37-1.33,2.02-2.02.25-.26.4-.2.63-.01,4.54,3.67,9.1,7.33,13.64,11,5.62,4.54,11.23,9.08,16.85,13.62,3.19,2.58,6.41,5.13,9.6,7.71,4.52,3.64,9.02,7.29,13.54,10.93-.74.12-1.49.24-2.23.36-.95.12-1.9.23-2.86.35-.06-.28-.32-.42-.52-.59-1.31-1.07-2.64-2.13-3.96-3.2-3.7-2.98-7.41-5.96-11.11-8.94-4.97-4.01-9.93-8.03-14.92-12.02-.64-.51-1.18-1.17-2-1.48-.17-.17-.35-.34-.52-.52-1.13-1.16-2.27-2.33-3.4-3.49-1.29-1.46-2.62-2.88-4.03-4.24Z"/>
    <path class="cls-6" d="M629.86,954.11c.06-1.22-.66-2.2-1.88-2.59-.52-.17-1.06-.22-1.59-.28,1.12-1.29,2.23-2.58,3.37-3.84,2.81-3.11,5.78-6.09,8.86-8.97,2.09-1.95,4.22-3.87,6.44-5.7,1.07-.88,2.11-1.78,3.17-2.66.32-.06.64-.13.97-.16.87-.1,1.53.19,1.95.9.64,1.07.62,2.25.56,3.43-.01.21-.21.3-.34.43-4.38,4.16-8.76,8.31-13.14,12.47-.89.87-1.78,1.73-2.67,2.6-.18.15-.37.28-.54.44-1.71,1.62-3.42,3.24-5.2,4.92.02-.39.04-.68.06-.98Z"/>
    <path class="cls-6" d="M648.23,930.06c-1.06.89-2.1,1.79-3.17,2.66-2.22,1.83-4.34,3.75-6.44,5.7-3.08,2.88-6.05,5.86-8.86,8.97-1.14,1.27-2.26,2.56-3.37,3.84-2.86.15-5.65.77-8.48,1.12,0-.3.24-.48.4-.68,2.66-3.36,5.48-6.61,8.43-9.76,2.31-2.46,4.68-4.87,7.16-7.18,1.1-1.03,2.2-2.06,3.29-3.09,3.68-.53,7.35-1.06,11.03-1.59Z"/>
    <path class="cls-6" d="M619.28,934.19c.74-.12,1.49-.24,2.23-.36,2.03-.28,4.07-.55,6.1-.83-1.13,1.83-2.54,3.48-3.86,5.19-1.85,2.41-3.84,4.72-5.86,7.02-1.43,1.63-2.9,3.23-4.42,4.78-1.27,1.3-2.53,2.6-3.8,3.9-1.08.35-2.22.44-3.34.61-2.03.31-4.06.58-6.09.86-.32.04-.64.14-.97.06,2.04-1.83,4.06-3.68,6.01-5.59,2.01-1.97,3.96-3.99,5.86-6.05,1.45-1.57,2.85-3.17,4.24-4.78,1.35-1.57,2.66-3.16,3.88-4.81Z"/>
    <path class="cls-6" d="M609.68,953.9c1.26-1.3,2.53-2.6,3.8-3.9,1.52-1.56,2.99-3.16,4.42-4.78,2.02-2.29,4-4.61,5.86-7.02,1.32-1.71,2.72-3.37,3.86-5.19,3.2-.45,6.39-.91,9.59-1.36-1.1,1.03-2.19,2.06-3.29,3.09-2.48,2.31-4.85,4.72-7.16,7.18-2.95,3.15-5.77,6.4-8.43,9.76-.17.21-.41.39-.4.68-.99.36-2.05.41-3.07.62-1.71.34-3.41.72-5.15.92Z"/>
    <path class="cls-6" d="M582.45,948.31c-3.07-2.66-6.13-5.32-9.2-7.98-.09-.08-.17-.18-.25-.27,4.44-2.19,8.75-4.57,12.97-7.12,3.6-2.18,7.11-4.49,10.52-6.93.97-.7,1.99-1.34,2.84-2.18,2.14,2,4.28,4,6.42,6-.44.42-.89.84-1.33,1.27-2.21,2.14-4.54,4.15-6.91,6.13-3.22,2.69-6.54,5.26-9.99,7.68-1.66,1.17-3.28,2.4-5.06,3.41Z"/>
    <path class="cls-6" d="M579.98,904.31c1.13,1.16,2.27,2.33,3.4,3.49.17.18.35.35.52.52.72.75,1.44,1.51,2.17,2.26-.14.1-.26.22-.41.3-1.37.78-2.73,1.55-4.11,2.31-4.63,2.57-9.41,4.89-14.3,6.99-2.38,1.02-4.78,2.02-7.22,2.92-1.54.57-3.05,1.22-4.66,1.63-2.08-1.81-4.16-3.61-6.23-5.42.11-.17.29-.24.48-.3,4.29-1.53,8.47-3.3,12.59-5.18,3.8-1.73,7.52-3.61,11.16-5.63,2.24-1.24,4.5-2.45,6.61-3.89Z"/>
    <path class="cls-6" d="M619.28,934.19c-1.23,1.65-2.54,3.24-3.88,4.81-1.39,1.61-2.79,3.21-4.24,4.78-1.91,2.06-3.85,4.08-5.86,6.05-1.95,1.91-3.97,3.76-6.01,5.59-.56.07-1.12.14-1.68.21-.24,0-.48-.03-.71-.01-2.08.12-4.15.09-6.2-.28-.6-.21-.97-.7-1.42-1.08-.74-.63-1.46-1.28-2.18-1.92,3.09-2.09,6.13-4.24,9.07-6.51,3.37-2.59,6.65-5.28,9.77-8.12,1.65-1.5,3.25-3.03,4.88-4.55.21.09.43.17.64.26,1.45.62,2.95,1.1,4.58,1.12.04.04.08.06.13,0,.08,0,.17,0,.25,0,.95-.12,1.9-.23,2.86-.35Z"/>
    <path class="cls-6" d="M568.31,935.94c-1.2-.85-2.23-1.88-3.33-2.83-1.52-1.3-3-2.64-4.5-3.96,2.9-1.14,5.81-2.23,8.67-3.45,4.5-1.93,8.9-4.03,13.21-6.31,2.7-1.43,5.34-2.96,7.99-4.49,1.61,1.61,3.22,3.22,4.84,4.84-1.39,1-2.77,2.02-4.18,2.99-3.08,2.1-6.22,4.14-9.45,6.05-3.7,2.2-7.48,4.26-11.36,6.17-.63.31-1.32.54-1.87,1Z"/>
    <path class="cls-6" d="M579.98,904.31c-2.11,1.44-4.37,2.65-6.61,3.89-3.64,2.02-7.36,3.89-11.16,5.63-4.13,1.88-8.31,3.65-12.59,5.18-.19.07-.37.14-.48.3-1.73-1.49-3.49-2.94-5.15-4.51,2.04-.59,4.01-1.39,5.99-2.13,3.73-1.41,7.39-2.97,10.99-4.67,3.54-1.67,7.04-3.42,10.42-5.36,1.38-.79,2.75-1.61,4.13-2.41.13-.07.28-.11.42-.16,1.41,1.36,2.74,2.78,4.03,4.24Z"/>
    <path class="cls-6" d="M590.33,914.9c-2.64,1.53-5.28,3.06-7.99,4.49-4.31,2.29-8.71,4.38-13.21,6.31-2.86,1.23-5.77,2.32-8.67,3.45-1.55-1.33-3.1-2.66-4.65-4-.16-.14-.3-.29-.45-.43,1.6-.41,3.12-1.06,4.66-1.63,2.44-.9,4.83-1.9,7.22-2.92,4.89-2.1,9.66-4.42,14.3-6.99,1.37-.76,2.74-1.54,4.11-2.31.15-.08.27-.2.41-.3,1.46,1.41,2.89,2.84,4.27,4.32Z"/>
    <path class="cls-6" d="M568.31,935.94c.55-.46,1.23-.69,1.87-1,3.88-1.91,7.66-3.98,11.36-6.17,3.23-1.91,6.36-3.94,9.45-6.05,1.42-.97,2.79-1.99,4.18-2.99,1.43,1.32,2.82,2.68,4.15,4.09-.84.84-1.87,1.48-2.84,2.18-3.41,2.44-6.92,4.75-10.52,6.93-4.21,2.55-8.53,4.94-12.97,7.12-1.61-1.32-3.21-2.66-4.69-4.11Z"/>
    <path class="cls-6" d="M610.82,933.15c-1.63,1.52-3.23,3.06-4.88,4.55-3.13,2.84-6.41,5.53-9.77,8.12-2.94,2.27-5.98,4.42-9.07,6.51-1.55-1.34-3.1-2.68-4.65-4.02,1.78-1.01,3.4-2.24,5.06-3.41,3.45-2.42,6.77-5,9.99-7.68,2.37-1.98,4.7-3.99,6.91-6.13.44-.43.89-.85,1.33-1.27,1.6,1.23,3.26,2.39,5.08,3.34Z"/>
    <path class="cls-3" d="M616.04,934.53s.08,0,.13,0c-.04.06-.09.04-.13,0Z"/>
  </g>
  <g>
    <path class="cls-3" d="M846.37,1180.22c.33.62.98.94,1.5,1.37,3.04,2.47,6.09,4.93,9.16,7.37.43.35.58.59.08,1.02-.61.53-1.17,1.12-1.72,1.7-.27.28-.48.29-.76.03-.26-.24-.61-.41-.83-.67-.38-.44-.69-.37-1.13-.05-3.61,2.62-7.23,5.23-10.85,7.83-4.02,2.9-8.04,5.79-12.06,8.69-1.53,1.1-3.06,2.22-4.6,3.31-.33.24-.35.37-.05.65.91.83.89.84-.04,1.74-.94.92-1.89,1.84-2.8,2.78-.27.28-.42.3-.71.05-3.58-3.14-7.17-6.27-10.76-9.39-3.8-3.31-7.6-6.61-11.4-9.91-.41-.36-.85-.69-1.22-1.08-.34-.36-.7-.36-1.16-.27-2.45.52-4.9,1.02-7.35,1.54-3.41.72-6.81,1.45-10.22,2.17-1.41.3-2.82.57-4.22.87-3.69.77-7.37,1.54-11.06,2.31-2.24.46-4.48.9-6.72,1.36-2.75.56-5.5,1.13-8.25,1.73-.39.09-.52-.01-.61-.3-.37-1.28-.73-2.57-1.1-3.86-.06-.22,0-.34.26-.39.36-.07.72-.17,1.08-.25.64-.16.87-.39.8-1.02-.4-3.51-.74-7.02-1.1-10.53-.2-1.96-.39-3.92-.59-5.87-.32-3.19-.64-6.38-.96-9.57-.2-2-.4-4-.6-5.99-.31-3.13-.63-6.26-.94-9.39-.2-2-.4-4-.6-6-.09-.93-.19-1.86-.27-2.79-.03-.33-.18-.55-.44-.77-1.99-1.7-3.95-3.41-5.94-5.12-.23-.19-.25-.34-.04-.56,1.19-1.18,2.38-2.36,3.55-3.56.22-.22.36-.21.58,0,.56.5,1.14.98,1.71,1.47.16.14.31.29.56.21-.16.25.06.36.21.48.39.34.79.68,1.19,1.02,2.06,1.77,4.11,3.55,6.17,5.32,1.65,1.56,3.42,3.02,5.15,4.5,2.08,1.81,4.16,3.61,6.23,5.42.15.14.29.29.45.43,1.55,1.33,3.1,2.66,4.65,4,1.5,1.32,2.98,2.65,4.5,3.96,1.1.95,2.13,1.98,3.33,2.83,1.48,1.46,3.08,2.79,4.69,4.11.08.09.16.19.25.27,3.07,2.66,6.13,5.32,9.2,7.98,1.55,1.34,3.1,2.68,4.65,4.02.73.64,1.45,1.29,2.18,1.92.45.38.81.87,1.42,1.08.11.48.63.63.91.97.33.41.73.48,1.25.35.76-.18,1.55-.26,2.29-.49.81-.25,1.68-.21,2.46-.54.56-.07,1.12-.14,1.68-.21.33.08.65-.01.97-.06,2.03-.28,4.06-.55,6.09-.86,1.12-.17,2.25-.26,3.34-.61,1.74-.21,3.44-.59,5.15-.92,1.02-.2,2.08-.25,3.07-.62,2.83-.35,5.63-.97,8.49-1.12.54.06,1.08.12,1.59.28,1.22.39,1.94,1.37,1.88,2.59-.43-.5-.94-.11-1.37-.03-4.03.82-8.05,1.69-12.08,2.54-2.49.52-4.99,1.04-7.48,1.56-3.9.81-7.8,1.61-11.7,2.42-.14.03-.34-.02-.4.15-.06.17.14.23.24.32,1.73,1.51,3.47,3.01,5.2,4.52,3.64,3.17,7.28,6.33,10.9,9.52.43.38.72.33,1.14.02,1.83-1.34,3.68-2.67,5.52-4,7.25-5.23,14.51-10.46,21.77-15.68.39-.28.4-.45.05-.73-1.08-.86-2.17-1.72-3.23-2.6-.96-.8-2.02-1.51-2.9-2.4.89-.87,1.78-1.73,2.67-2.6ZM750.08,1153.81c-.04.14-.07.18-.06.21.36,3.76.71,7.51,1.1,11.27.22,2.08.43,4.16.63,6.24.29,3.17.61,6.34.96,9.51.22,2,.4,4,.6,6,.31,3.07.67,6.13.91,9.21.04.49.23.48.6.22,1.91-1.38,3.83-2.76,5.74-4.14,4.38-3.16,8.77-6.32,13.15-9.48,1.63-1.18,3.26-2.37,4.9-3.55.31-.22.39-.36.04-.63-.64-.5-1.23-1.06-1.85-1.6-4.08-3.55-8.16-7.11-12.24-10.66-3.43-2.99-6.86-5.99-10.3-8.98-1.37-1.19-2.75-2.37-4.18-3.61ZM758.33,1198.47s.03.08.05.13c1.74-.38,3.48-.76,5.23-1.13,3.22-.67,6.44-1.33,9.66-2,3.11-.65,6.22-1.3,9.33-1.95,3.26-.68,6.52-1.35,9.78-2.03.21-.04.52.02.59-.17.1-.24-.2-.36-.37-.51-3.43-2.99-6.88-5.97-10.3-8.98-.33-.29-.54-.27-.87-.03-1.03.76-2.09,1.5-3.13,2.26-4.68,3.37-9.36,6.75-14.04,10.13-1.98,1.43-3.96,2.85-5.94,4.28Z"/>
    <path class="cls-4" d="M752.15,1147.9c-2.06-1.77-4.11-3.55-6.17-5.32-.4-.34-.79-.68-1.19-1.02-.15-.13-.37-.24-.21-.48,2.11-.85,4.23-1.69,6.33-2.55,8.14-3.33,16.28-6.67,24.42-10,.2-.08.39-.18.59-.27.3-.12.6-.23.9-.37,1.19-.54,2.22-.35,3.08.58.29.32.58.65.87.97,1.11,1.24,2.22,2.49,3.33,3.73-.14.05-.29.09-.42.16-1.38.8-2.75,1.62-4.13,2.41-3.39,1.94-6.88,3.69-10.42,5.36-3.6,1.69-7.25,3.26-10.99,4.67-1.98.75-3.95,1.54-5.99,2.13Z"/>
    <path class="cls-3" d="M784.1,1133.16c-1.11-1.24-2.22-2.49-3.33-3.73-.29-.32-.57-.65-.87-.97-.86-.92-1.89-1.11-3.08-.58-.29.13-.6.25-.9.37-.84-.67-1.66-1.34-2.51-1.99-.26-.2-.3-.32-.04-.57.7-.66,1.37-1.33,2.02-2.02.25-.26.4-.2.63-.01,4.54,3.67,9.1,7.33,13.64,11,5.62,4.54,11.23,9.08,16.85,13.62,3.19,2.58,6.41,5.13,9.6,7.71,4.52,3.64,9.02,7.29,13.54,10.93-.74.12-1.49.24-2.23.36-.95.12-1.9.23-2.86.35-.06-.28-.32-.42-.52-.59-1.31-1.07-2.64-2.13-3.96-3.2-3.7-2.98-7.41-5.96-11.11-8.94-4.97-4.01-9.93-8.03-14.92-12.02-.64-.51-1.18-1.17-2-1.48-.17-.17-.35-.34-.52-.52-1.13-1.16-2.27-2.33-3.4-3.49-1.29-1.46-2.62-2.88-4.03-4.24Z"/>
    <path class="cls-4" d="M838.02,1187.2c.06-1.22-.66-2.2-1.88-2.59-.52-.17-1.06-.22-1.59-.28,1.12-1.29,2.23-2.58,3.37-3.84,2.81-3.11,5.78-6.09,8.86-8.97,2.09-1.95,4.22-3.87,6.44-5.7,1.07-.88,2.11-1.78,3.17-2.66.32-.06.64-.13.97-.16.87-.1,1.53.19,1.95.9.64,1.07.62,2.25.56,3.43-.01.21-.21.3-.34.43-4.38,4.16-8.76,8.31-13.14,12.47-.89.87-1.78,1.73-2.67,2.6-.18.15-.37.28-.54.44-1.71,1.62-3.42,3.24-5.2,4.92.02-.39.04-.68.06-.98Z"/>
    <path class="cls-4" d="M856.38,1163.14c-1.06.89-2.1,1.79-3.17,2.66-2.22,1.83-4.34,3.75-6.44,5.7-3.08,2.88-6.05,5.86-8.86,8.97-1.14,1.27-2.26,2.56-3.37,3.84-2.86.15-5.65.77-8.48,1.12,0-.3.24-.48.4-.68,2.66-3.36,5.48-6.61,8.43-9.76,2.31-2.46,4.68-4.87,7.16-7.18,1.1-1.03,2.2-2.06,3.29-3.09,3.68-.53,7.35-1.06,11.03-1.59Z"/>
    <path class="cls-4" d="M827.43,1167.28c.74-.12,1.49-.24,2.23-.36,2.03-.28,4.07-.55,6.1-.83-1.13,1.83-2.54,3.48-3.86,5.19-1.85,2.41-3.84,4.72-5.86,7.02-1.43,1.63-2.9,3.23-4.42,4.78-1.27,1.3-2.53,2.6-3.8,3.9-1.08.35-2.22.44-3.34.61-2.03.31-4.06.58-6.09.86-.32.04-.64.14-.97.06,2.04-1.83,4.06-3.68,6.01-5.59,2.01-1.97,3.96-3.99,5.86-6.05,1.45-1.57,2.85-3.17,4.24-4.78,1.35-1.57,2.66-3.16,3.88-4.81Z"/>
    <path class="cls-4" d="M817.84,1186.98c1.26-1.3,2.53-2.6,3.8-3.9,1.52-1.56,2.99-3.16,4.42-4.78,2.02-2.29,4-4.61,5.86-7.02,1.32-1.71,2.72-3.37,3.86-5.19,3.2-.45,6.39-.91,9.59-1.36-1.1,1.03-2.19,2.06-3.29,3.09-2.48,2.31-4.85,4.72-7.16,7.18-2.95,3.15-5.77,6.4-8.43,9.76-.17.21-.41.39-.4.68-.99.36-2.05.41-3.07.62-1.71.34-3.41.72-5.15.92Z"/>
    <path class="cls-4" d="M790.6,1181.4c-3.07-2.66-6.13-5.32-9.2-7.98-.09-.08-.17-.18-.25-.27,4.44-2.19,8.75-4.57,12.97-7.12,3.6-2.18,7.11-4.49,10.52-6.93.97-.7,1.99-1.34,2.84-2.18,2.14,2,4.28,4,6.42,6-.44.42-.89.84-1.33,1.27-2.21,2.14-4.54,4.15-6.91,6.13-3.22,2.69-6.54,5.26-9.99,7.68-1.66,1.17-3.28,2.4-5.06,3.41Z"/>
    <path class="cls-4" d="M788.13,1137.4c1.13,1.16,2.27,2.33,3.4,3.49.17.18.35.35.52.52.72.75,1.44,1.51,2.17,2.26-.14.1-.26.22-.41.3-1.37.78-2.73,1.55-4.11,2.31-4.63,2.57-9.41,4.89-14.3,6.99-2.38,1.02-4.78,2.02-7.22,2.92-1.54.57-3.05,1.22-4.66,1.63-2.08-1.81-4.16-3.61-6.23-5.42.11-.17.29-.24.48-.3,4.29-1.53,8.47-3.3,12.59-5.18,3.8-1.73,7.52-3.61,11.16-5.63,2.24-1.24,4.5-2.45,6.61-3.89Z"/>
    <path class="cls-4" d="M827.43,1167.28c-1.23,1.65-2.54,3.24-3.88,4.81-1.39,1.61-2.79,3.21-4.24,4.78-1.91,2.06-3.85,4.08-5.86,6.05-1.95,1.91-3.97,3.76-6.01,5.59-.56.07-1.12.14-1.68.21-.24,0-.48-.03-.71-.01-2.08.12-4.15.09-6.2-.28-.6-.21-.97-.7-1.42-1.08-.74-.63-1.46-1.28-2.18-1.92,3.09-2.09,6.13-4.24,9.07-6.51,3.37-2.59,6.65-5.28,9.77-8.12,1.65-1.5,3.25-3.03,4.88-4.55.21.09.43.17.64.26,1.45.62,2.95,1.1,4.58,1.12.04.04.08.06.13,0,.08,0,.17,0,.25,0,.95-.12,1.9-.23,2.86-.35Z"/>
    <path class="cls-4" d="M776.46,1169.03c-1.2-.85-2.23-1.88-3.33-2.83-1.52-1.3-3-2.64-4.5-3.96,2.9-1.14,5.81-2.23,8.67-3.45,4.5-1.93,8.9-4.03,13.21-6.31,2.7-1.43,5.34-2.96,7.99-4.49,1.61,1.61,3.22,3.22,4.84,4.84-1.39,1-2.77,2.02-4.18,2.99-3.08,2.1-6.22,4.14-9.45,6.05-3.7,2.2-7.48,4.26-11.36,6.17-.63.31-1.32.54-1.87,1Z"/>
    <path class="cls-4" d="M788.13,1137.4c-2.11,1.44-4.37,2.65-6.61,3.89-3.64,2.02-7.36,3.89-11.16,5.63-4.13,1.88-8.31,3.65-12.59,5.18-.19.07-.37.14-.48.3-1.73-1.49-3.49-2.94-5.15-4.51,2.04-.59,4.01-1.39,5.99-2.13,3.73-1.41,7.39-2.97,10.99-4.67,3.54-1.67,7.04-3.42,10.42-5.36,1.38-.79,2.75-1.61,4.13-2.41.13-.07.28-.11.42-.16,1.41,1.36,2.74,2.78,4.03,4.24Z"/>
    <path class="cls-4" d="M798.49,1147.98c-2.64,1.53-5.28,3.06-7.99,4.49-4.31,2.29-8.71,4.38-13.21,6.31-2.86,1.23-5.77,2.32-8.67,3.45-1.55-1.33-3.1-2.66-4.65-4-.16-.14-.3-.29-.45-.43,1.6-.41,3.12-1.06,4.66-1.63,2.44-.9,4.83-1.9,7.22-2.92,4.89-2.1,9.66-4.42,14.3-6.99,1.37-.76,2.74-1.54,4.11-2.31.15-.08.27-.2.41-.3,1.46,1.41,2.89,2.84,4.27,4.32Z"/>
    <path class="cls-4" d="M776.46,1169.03c.55-.46,1.23-.69,1.87-1,3.88-1.91,7.66-3.98,11.36-6.17,3.23-1.91,6.36-3.94,9.45-6.05,1.42-.97,2.79-1.99,4.18-2.99,1.43,1.32,2.82,2.68,4.15,4.09-.84.84-1.87,1.48-2.84,2.18-3.41,2.44-6.92,4.75-10.52,6.93-4.21,2.55-8.53,4.94-12.97,7.12-1.61-1.32-3.21-2.66-4.69-4.11Z"/>
    <path class="cls-4" d="M818.98,1166.24c-1.63,1.52-3.23,3.06-4.88,4.55-3.13,2.84-6.41,5.53-9.77,8.12-2.94,2.27-5.98,4.42-9.07,6.51-1.55-1.34-3.1-2.68-4.65-4.02,1.78-1.01,3.4-2.24,5.06-3.41,3.45-2.42,6.77-5,9.99-7.68,2.37-1.98,4.7-3.99,6.91-6.13.44-.43.89-.85,1.33-1.27,1.6,1.23,3.26,2.39,5.08,3.34Z"/>
    <path class="cls-3" d="M824.2,1167.62s.08,0,.13,0c-.04.06-.09.04-.13,0Z"/>
  </g>
  <g>
    <path class="cls-1" d="M390.35,792.7s-16.24,19.71-33.2,22.65c0,0-24.53,25.5-50.51,23.85,0,0-23.52,21.12-49.06,19.29,0,0-4.67,6.99-22.72,14.8,0,0,15.46-21.69,16.36-29.93,0,0,40.95-8.65,62.08-37.61,0,0,48.32-9.19,61.96-20.54l15.08,7.48Z"/>
    <polygon class="cls-17" points="372.67 923.02 363.79 923.02 300.81 814.05 305.87 811.9 372.67 923.02"/>
    <path class="cls-8" d="M295.72,780.43s14.6,9.98,17.58,25.33c0,0-25.1,35.95-62.08,37.61,0,0-12.31-30.9,44.5-62.94Z"/>
    <path class="cls-11" d="M295.72,780.43s16,13.18,17.58,25.33c0,0,33,11.2,61.96-20.54,0,0-29.76-25.69-79.55-4.79Z"/>
    <path class="cls-5" d="M375.26,785.23s6.54,8.83,15.09,7.48c0,0-17.77-9.98-22.42-12.22l7.32,4.74Z"/>
    <path class="cls-2" d="M251.22,843.37s-4.55,17.64-16.36,29.93c0,0-4.68-1.89-6.31-8.74,0,0,18.89-44.98,35.06-59.46.01,0-13.53,27.72-12.39,38.27Z"/>
  </g>
</svg>