<?xml version="1.0" encoding="utf-8"?>
<!-- Generator: Adobe Illustrator 28.3.0, SVG Export Plug-In . SVG Version: 6.00 Build 0)  -->
<svg version="1.1" id="Layer_1" xmlns="http://www.w3.org/2000/svg" xmlns:xlink="http://www.w3.org/1999/xlink" x="0px" y="0px"
	 viewBox="0 0 2000 2000" style="enable-background:new 0 0 2000 2000;" xml:space="preserve">
<style type="text/css">
	.st0{fill:none;stroke:#130C0D;stroke-miterlimit:10;}
	.st1{fill:#517FC0;}
	.st2{fill:#E6CEB8;}
	.st3{fill:#EFDBCE;}
	.st4{fill:#FEE8D7;}
	.st5{fill:#EAF6F9;}
	.st6{fill:#4973A6;}
	.st7{fill:#D7E6F6;}
	.st8{fill:#93BDD3;}
	.st9{fill:#CEE7EF;}
	.st10{fill:#5EA8DD;}
	.st11{fill:#7DA8B6;}
	.st12{fill:#81ACC0;}
	.st13{fill:#7E8284;}
	.st14{fill:#757273;}
	.st15{fill:#A09B9A;}
	.st16{fill:#918F8E;}
	.st17{fill:#9B5F31;}
	.st18{fill:#CEBFB2;}
	.st19{fill:#E89143;}
	.st20{fill:#F99E42;}
	.st21{fill:#F9A456;}
	.st22{fill:#D88743;}
	.st23{opacity:0.2;fill:#CEBFB2;}
	.st24{fill:#88A049;}
	.st25{fill:#E3E880;}
	.st26{fill:#A4CF5C;}
	.st27{fill:#A0C45A;}
	.st28{opacity:0.3;fill:#EAF6F9;}
	.st29{fill:#E6E7E8;}
	.st30{fill:#BDBFC1;}
	.st31{fill:#5D5F62;}
	.st32{fill:#D1D2D4;}
	.st33{fill:#E69436;}
	.st34{fill:#4672A6;}
</style>
<path class="st0" d="M495.51,861.69"/>
<g>
	<path class="st1" d="M1675.86,773.81c-58.62-34.54-117.24-69.09-175.86-103.63c-137.35-80.94-274.7-161.87-412.05-242.81
		L388.2,833.25c0,0,0,0,0,0.01h-0.01v0.01c0,0-0.01,0-0.01,0.01l-278,161.24l696.11,423.53l201.21-117.03c0.01,0,0.02,0,0.03-0.01
		h0.01l9.02-5.25l11.93-6.94c0.01,0,0.02,0,0.02-0.01l765.63-445.28C1754.71,820.28,1715.29,797.05,1675.86,773.81z M935.21,617.25
		c4.07,1.2,8.65,2.64,13.05,4.03c9.09,2.87,17.48,5.55,19.33,5.64c3.89,0.17,5.84,10.46,7.62,10.99c0.88,0.27,2.57,3,4.03,5.68
		c1.47,2.67,2.71,5.29,2.72,5.3c-0.01,0.04-0.19,10.04,2.3,11.17c2.47,1.12,0.99,7.74,0.98,7.82c0,0.01,0,0.01-0.01,0.01l-4.13,2.41
		c-0.01,0-0.02,0-0.02-0.01c0.2-0.44,2.72-6.15-0.01-6.15c-2.83,0-0.87-11.24-1.44-12.95c-0.58-1.7-2.99-6.84-5.11-7.44
		c-2.13-0.61-5.05-9.43-5.05-9.43s-7.6-6.36-13.75-7.28c-2.17-0.33-6.16-1.7-10.96-3.18c-4.35-1.35-9.38-2.79-14.33-3.67
		c-2.76-0.48-5.48-0.79-8.07-0.81l6.78-3.85C930.94,616,933,616.59,935.21,617.25z"/>
	<polygon class="st2" points="110.18,994.51 806.3,1519.98 806.3,1418.03 	"/>
	<polygon class="st3" points="806.3,1418.03 806.3,1519.98 1794.14,952.2 1794.14,843.51 	"/>
	<path class="st4" d="M110.18,994.51l278.03-161.27c0,0-81.2,262.85,277.73,214.7c358.93-48.15,350.62,247.8,350.62,247.8
		L806.3,1418.03L110.18,994.51z"/>
	<path class="st5" d="M491.92,1012.96c-0.4-0.08-70.07-14.47-79.03-49.39c-8.98-35.02-28.74-32.33-17.96-66.46
		c10.58-33.5-6.08-62.77-6.7-63.83c-0.01-0.03-0.02-0.03-0.04-0.01c-0.74,0.78-18.75,19.79-18.75,33.97
		c0,14.42,9.31,48.42,9.39,48.71c0,0.01,0,0,0,0c-0.12,0.32-17.14,44.26,0,47.4c17.21,3.15,39.76,46.62,39.76,46.62
		s25.9,46.86,54.86,50.81c28.97,3.95,63.57-9.64,63.57-9.64s77.62,11.04,141.97-4.8c64.36-15.84,168.79,30.8,199.97,35.5
		s69.66,36.89,69.66,36.89s14.77,44.75,25.55,47.79s23.03,29.04,25.93,37.69c2.9,8.65-7.07,65.59,7.3,65.59
		c13.83,0,0.09,31.22,0.14,31.19l20.95-12.19c0.01-0.01,0.02,0,0.02-0.02c0.1-0.47,7.6-33.97-4.95-39.65
		c-12.62-5.71-11.68-56.41-11.67-56.58c0,0,0,0,0,0c-0.08-0.17-25.16-52.99-34.13-55.68c-8.98-2.69-18.86-54.78-38.62-55.68
		c-19.76-0.9-186.79-60.17-223.61-63.76c-36.79-3.59-94.19,12.54-94.3,12.57c0,0,0,0,0,0L491.92,1012.96z"/>
	<polygon class="st2" points="110.18,994.51 110.18,1273.85 805.36,1708.86 806.3,1418.03 	"/>
	<polygon class="st3" points="1794.14,850.05 1794.14,1146.77 805.36,1715.39 806.3,1424.57 	"/>
	<polygon class="st6" points="1028.51,1288.79 1031.19,1585.52 1794.14,1146.77 1794.14,843.51 	"/>
	<polygon class="st5" points="1007.54,1301 1007.54,1599.15 1031.19,1585.52 1028.51,1288.79 	"/>
</g>
<path class="st7" d="M106.43,886.39"/>
<path class="st8" d="M930.42,620.18c4.95,0.87,9.98,2.32,14.33,3.67l-90.13,66.13l-10.74,1.79l-21.96,3.67l-12.21,2.04l-19.52,3.27
	l-15.67,2.61l0.01-0.01l147.82-83.98C924.94,619.4,927.66,619.7,930.42,620.18z"/>
<path class="st8" d="M1048.65,547.63l-100.38,73.64c-4.4-1.38-8.98-2.82-13.05-4.03c-2.22-0.65-4.27-1.25-6.08-1.72L1048.65,547.63z
	"/>
<g>
	<g>
		<polygon class="st9" points="821.91,823.96 821.91,976.81 790.01,957.24 789.82,836.94 789.81,827.59 790.63,827.98 
			790.65,827.98 790.65,837.34 		"/>
		<path class="st9" d="M821.92,588.7v94.1l-16.56,7.17l-15.81-27.2c-0.02-11.99-2.73-23.89-8.42-34.39
			c-7.86-14.57-17.6-19.91-26.87-20.75c0,0-0.54-0.06-1.48-0.07h-0.02c-0.21-0.02-0.45-0.02-0.69-0.02
			c-1.98-0.06-3.93,0.15-5.78,0.54c-0.34,0.06-0.67,0.11-1.03,0.21c-9.14,2.19-16.65,8.91-20.36,17.73
			c-0.17,0.43-0.34,0.84-0.5,1.28c-0.13,0.34-0.26,0.67-0.36,1.03c-0.09,0.24-0.17,0.49-0.24,0.75c-0.19,0.52-0.34,1.07-0.47,1.61
			c-0.11,0.52-0.24,1.05-0.36,1.59v0.06c-0.39,1.95-0.58,3.95-0.58,5.99v278.25l-29.82-16.09V510.8l80.71,48.6l48.6,29.3H821.92z"/>
		<polygon class="st10" points="692.58,510.79 719.22,510.79 843.86,585.2 821.9,588.71 		"/>
		<polygon class="st10" points="843.88,585.21 843.88,673.29 821.92,682.81 821.92,588.7 843.86,585.21 		"/>
		<polygon class="st10" points="843.87,814.57 843.87,962.06 821.91,976.81 821.91,823.96 		"/>
		<path class="st10" d="M722.41,916.56l17.89-8.34c0,0-3.89-310.6,13.96-300.59c0,0-26.83-3.26-31.85,27.59V916.56z"/>
	</g>
	<polygon class="st9" points="821.92,788.6 821.92,823.96 789.85,843.21 789.83,843.21 789.83,836.95 789.81,827.59 789.78,802.37 
		789.78,802.35 789.76,792.83 789.61,696.82 789.61,696.8 789.55,662.77 805.36,689.97 790.19,696.56 790.19,802.19 	"/>
	<polygon class="st10" points="843.88,779.21 843.88,814.57 821.92,823.96 821.92,788.6 	"/>
</g>
<g>
	<polygon class="st11" points="736.96,815.61 736.96,824.96 736.94,824.96 736.14,824.57 686.32,800.87 668.71,792.48 638.89,778.3 
		631.5,774.79 631.5,765.36 638.89,768.88 668.71,783.09 686.36,791.49 736.12,815.22 736.94,815.61 	"/>
	<g>
		<polygon class="st8" points="790.19,696.57 790.19,792.65 789.76,792.84 768.22,802.12 768.22,706.09 789.61,696.83 
			789.61,696.81 		"/>
		<polygon class="st9" points="821.92,682.82 821.92,718.47 805.36,689.98 		"/>
		<polygon class="st9" points="821.92,718.47 821.92,778.98 790.19,792.65 790.19,696.57 805.36,689.98 		"/>
		<polygon class="st10" points="843.88,673.29 843.88,708.95 821.92,718.47 821.92,682.82 		"/>
		<polygon class="st10" points="843.88,708.95 843.88,769.51 821.92,778.98 821.92,718.47 		"/>
		<path class="st8" d="M935.21,617.25c4.07,1.2,8.65,2.64,13.05,4.03c9.09,2.87,17.48,5.55,19.33,5.64
			c3.89,0.17,5.84,10.46,7.62,10.99c0.88,0.27,2.57,3,4.03,5.68c1.47,2.67,2.71,5.29,2.72,5.3c-0.01,0.04-0.19,10.04,2.3,11.17
			c2.47,1.12,0.99,7.74,0.98,7.82c0,0.01,0,0.01-0.01,0.01l-4.13,2.41c-0.01,0-0.02,0-0.02-0.01c0.2-0.44,2.72-6.15-0.01-6.15
			c-2.83,0-0.87-11.24-1.44-12.95c-0.58-1.7-2.99-6.84-5.11-7.44c-2.13-0.61-5.05-9.43-5.05-9.43s-7.6-6.36-13.75-7.28
			c-2.17-0.33-6.16-1.7-10.96-3.18c-4.35-1.35-9.38-2.79-14.33-3.67l-86.54,53.12v96.21l204.77-124.96v-96.92L935.21,617.25z"/>
		<path class="st8" d="M1262.09,552.55l-62.15,26.79l-21.96,9.47l-32.07,13.83l-49.86,21.5c-0.09-26.14-0.07-61.29,0.41-97.23
			l49.3-21.37l0.41-0.19l5.86-2.54l25.95,11.73l21.96,9.93L1262.09,552.55z"/>
		<polygon class="st12" points="768.22,802.12 768.22,811.59 736.96,824.96 736.96,815.61 		"/>
		<polygon class="st8" points="736.94,815.61 736.96,815.61 736.96,824.96 736.94,824.98 		"/>
		<polygon class="st12" points="790.19,792.65 790.19,802.19 789.78,802.36 789.78,802.38 768.22,811.59 768.22,802.12 
			789.76,792.84 		"/>
		<polygon class="st9" points="821.92,778.98 821.92,788.61 790.19,802.19 790.19,792.65 		"/>
		<polygon class="st10" points="843.88,769.51 843.88,779.22 821.92,788.61 821.92,778.98 		"/>
		<polygon class="st12" points="1048.64,644.55 1048.64,655.22 843.88,779.22 843.88,769.51 		"/>
		<path class="st12" d="M1262.09,552.55v11.34l-62.15,26.6l-21.96,9.39l-32.05,13.71l-49.82,21.33c-0.02-3.39-0.04-7-0.06-10.79
			l49.86-21.5l32.07-13.83l21.96-9.47L1262.09,552.55z"/>
		<polygon class="st8" points="768.22,706.09 768.22,802.12 736.96,815.61 736.94,815.61 736.12,815.22 735.97,720.07 		"/>
		<polygon class="st8" points="736.12,815.22 686.36,791.49 668.71,783.09 638.89,768.88 631.5,765.36 638.89,762.16 668.71,749.23 
			686.92,741.34 735.97,720.07 		"/>
	</g>
</g>
<g>
	<polygon class="st8" points="1078.48,534.68 1078.48,631.7 1048.64,644.55 1048.64,547.63 	"/>
	<polygon class="st12" points="1078.48,631.7 1078.48,642.46 1048.64,655.22 1048.64,644.55 	"/>
	<polygon class="st9" points="1078.48,642.46 1078.48,675.55 1048.64,659.46 1048.64,655.22 	"/>
	<path class="st9" d="M1177.97,347.71v388.09l-31.9-19.57l-0.15-102.63l-0.02-10.96l-0.15-97.1l-0.13-83.78
		c-0.02-11.99-2.75-23.89-8.42-34.39c-7.88-14.57-17.6-19.91-26.88-20.75c0,0-0.06,0-0.15-0.02c-0.15,0-0.39-0.02-0.71-0.04
		c-0.21-0.02-0.41-0.04-0.6-0.04c-2.53-0.09-4.98,0.15-7.31,0.71c-0.06,0-0.13,0.02-0.21,0.04c-9.26,2.23-16.89,9.13-20.54,18.13
		c-0.07,0.19-0.15,0.36-0.21,0.54c-0.49,1.22-0.88,2.45-1.18,3.72c-0.11,0.51-0.24,1.03-0.36,1.55c-0.37,1.98-0.58,4-0.58,6.08
		v137.38l-29.84,12.95V269.79L1177.97,347.71z"/>
	<polygon class="st10" points="1048.65,269.78 1075.29,269.78 1199.94,344.19 1177.97,347.7 	"/>
	<polygon class="st10" points="1177.97,347.7 1199.94,344.19 1199.94,721.05 1177.97,735.8 	"/>
	<path class="st8" d="M1096.05,624.12l-17.57,7.58v-97.02l17.98-7.78C1095.98,562.84,1095.96,597.99,1096.05,624.12z"/>
	<path class="st12" d="M1096.11,634.92l-17.62,7.54V631.7l17.57-7.58C1096.07,627.92,1096.09,631.53,1096.11,634.92z"/>
	<path class="st10" d="M1096.37,667.21l-17.89,8.34v-33.1l17.62-7.54C1096.22,654.75,1096.37,667.21,1096.37,667.21z"/>
	<path class="st10" d="M1108.83,366.55c-8.33,3.97-11.37,83.91-12.37,160.35l-17.98,7.78V394.22c0.17-1.03,0.36-2.04,0.58-2.99
		c0.11-0.52,0.24-1.05,0.36-1.55c0.36-1.31,0.75-2.56,1.18-3.72c0.06-0.19,0.13-0.36,0.21-0.54c4.68-12.25,13.69-16.63,20.54-18.13
		c0.07-0.02,0.15-0.04,0.21-0.04c0.32-0.07,0.64-0.13,0.95-0.19C1105.2,366.55,1107.44,366.49,1108.83,366.55z"/>
	<path class="st13" d="M1110.33,366.62c0,0-0.06,0-0.15-0.02c-0.15,0-0.39-0.02-0.71-0.04c-0.19-0.02-0.39-0.02-0.64-0.02
		c0.02-0.02,0.02-0.02,0.04-0.02C1109.33,366.3,1109.82,366.34,1110.33,366.62z"/>
</g>
<g>
	<path class="st14" d="M216.57,993.67c11.03-24.65,32.56-25.58,50.06-35.62c5.04-4.98-1.89-11.14,1.2-16.6
		c1.31,0.28,1.69,3.6,4.06,2.04c-1.41-4.56-1.61-9.53-1.82-14.49c-2.31-7.77-1.82-12.47,6.27-13.38c7.46-0.84,14.56-5.62,22.24-5.38
		c4.69,0.15,3.53-4.61,5.12-8.79c7.33,14.61,11.26,30.22,16.81,44.8c1.06,2.8-0.4,4.54-1.52,6.4c-3.9,6.48-7.93,12.85-11.75,19.4
		c-1.63,2.79-3.76,3.61-6.27,3.98c-7.25,1.09-14.5,2.27-21.74,3.51c-1.97,0.34-4.62-0.72-5.09,3.36c-0.79,0.19-1.98,0.03-2.3,0.63
		c-6.23,11.51-12.39,23.08-18.48,34.72c-1.11,2.12-1.37,4.11,0.97,5.91c9.67,7.45,19.19,15.2,28.8,22.76
		c1.11,0.87,2.48,1.93,3.67,1.82c8.58-0.76,17.35,0.8,25.66-3.48c1.55-0.8,3.2,0.04,3.91,2.41c-9.91,3.49-19.89,6.7-29.7,10.61
		c-3.56,1.42-5.65-0.45-8.01-2.84c-7.42-7.51-15.03-14.74-22.22-22.58c-5.37-5.85-10.22-9.09-18.09-6.49
		c-9.73,3.21-20.16,2.9-30.22,4.69c-8.88,1.59-13.89-5.25-18.88-12.56c4.41-1.57,7.71,1.99,11.37,3.9c2.19,1.14,4.71,3.43,5.94-1.15
		C209.14,1011.61,214.88,1003.83,216.57,993.67z"/>
	<path class="st14" d="M291.22,1021.74c1.63-13.76,9.8-17.84,18.87-21.15c5.57-2.03,11.62-3.91,12.34-13.71
		c0.33-4.54,3.76-4.04,6.42-4.25c9.12-0.74,18.24-1.48,28.79-2.33c-5.73-5.4-10.54-9.92-15.33-14.45c0.6-0.68,1.2-1.36,1.8-2.05
		c6.32,3.87,12.63,7.8,18.98,11.58c2.46,1.46,3.74,3.48,3.59,7.12c-0.64,15.08-1.2,30.18-1.67,45.27c-0.13,4.12-2.16,4.86-4.75,5.53
		c-9.71,2.51-18.83,8.29-29.06,8c-2.63-0.07-4.11,4.41-7.12,3.92c0.03-6.83-0.02-13.65,0.13-20.48c0.09-4.12-0.71-7.16-3.96-9.05
		c-5.06-2.95-8.82-4.49-11.82,4.37c-2.58,7.62-9.52,10.25-15.39,11.28C290,1031.87,292.39,1024.96,291.22,1021.74z"/>
	<path class="st15" d="M291.22,1021.74c1.18,3.22-1.22,10.12,1.81,9.6c5.86-1.02,12.81-3.66,15.39-11.28
		c3-8.86,6.76-7.31,11.82-4.37c3.25,1.89,4.06,4.93,3.96,9.05c-0.15,6.82-0.1,13.65-0.13,20.48c-2.18,2.73-5.08,1.91-7.69,2.47
		c-0.7-2.37-2.36-3.21-3.91-2.41c-8.31,4.29-17.08,2.72-25.66,3.48c-1.19,0.11-2.56-0.95-3.67-1.82
		c-9.61-7.57-19.14-15.31-28.8-22.76c-2.34-1.81-2.08-3.8-0.97-5.91c6.08-11.64,12.25-23.21,18.48-34.72
		c0.32-0.6,1.51-0.44,2.3-0.63C286.13,991.41,292.25,1004.05,291.22,1021.74z"/>
	<path class="st15" d="M216.57,993.67c-1.69,10.15-7.44,17.94-10.02,27.6c-1.23,4.58-3.75,2.3-5.94,1.15
		c-3.65-1.91-6.96-5.47-11.37-3.9c-15.48-4.12-19.98-12.36-16.68-30.45c1.95-10.67,3.98-21.31,5.68-32.04
		c0.82-5.15,2.14-5.91,5.87-3.4c9.3,6.27,18.63,12.64,28.35,17.73c7.32,3.83,8.31,8.93,5.01,17.14
		C216.79,989.21,214.43,991.09,216.57,993.67z"/>
	<path class="st15" d="M270.08,929c0.21,4.96,0.41,9.93,1.82,14.49c-2.37,1.56-2.76-1.76-4.06-2.04c-3.09,5.46,3.84,11.63-1.2,16.6
		c-9.55-6.02-18.21-14.52-29.14-16.61c-0.45-0.56-0.9-1.12-1.35-1.68c9.04-7.9,6.92-21.16,9.47-32.14
		c0.83-3.55,0.62-7.49,2.98-11.83c6.83,9.03,13.79,17.43,18.09,28.68C267.46,926.54,267.27,929.49,270.08,929z"/>
	<path class="st14" d="M236.14,939.76c0.45,0.56,0.9,1.12,1.35,1.68c-6.69,0.96-13.38,1.93-20.06,2.89
		C223.29,939.66,229.23,935.96,236.14,939.76z"/>
	<path class="st14" d="M339.57,963.52c-0.97-0.73-3.2-0.75-1.99-2.96c0.89-1.62,2.32-0.11,3.22,1.19
		C340.39,962.34,339.98,962.93,339.57,963.52z"/>
	<path class="st14" d="M340.8,961.74c1.1,0.69,2.2,1.37,3.3,2.06c-0.6,0.68-1.2,1.36-1.8,2.05c-0.91-0.78-1.82-1.56-2.72-2.34
		C339.98,962.93,340.39,962.34,340.8,961.74z"/>
	<polygon class="st16" points="217.43,944.33 180.68,951.24 215.64,980.13 212.84,996.74 216.57,993.67 225.59,980.13 
		266.64,958.05 252.54,948.25 245.83,944.33 237.49,941.44 	"/>
	<path class="st16" d="M248.59,895.8l11.85,16.37l6.23,12.31l1.12,3.57l0.49,0.61l0.71,0.34l1.08,0.01l-0.95-3.9l-0.16-3.96
		l2.47-4.01l10.93-1.92l18.41-5.45l0.93-0.94c0,0,2.06-2.74,1.99-7.36C303.7,901.46,269.89,891.78,248.59,895.8z"/>
	<path class="st16" d="M274.15,982.92l0.64-2.8l4.45-0.56l25.14-4.56l10.24-15.15l6.27-12.16l18.14,12.28c0,0-2.17,1.21,0.56,3.54
		l18.06,16.78l-32.13,2.62c0,0-2.45,0.22-3.07,3.96c0,0,2.12,11.46-12.34,13.71c0,0-14.18,4.94-18.87,21.15L274.15,982.92z"/>
</g>
<g>
	<path class="st17" d="M774.1,1159.81c0,0,15.55,18.87,31.78,21.68c0,0,23.48,24.41,48.35,22.83c0,0,22.52,20.22,46.97,18.47
		c0,0,4.47,6.69,21.75,14.17c0,0-14.8-20.76-15.66-28.65c0,0-39.2-8.28-59.43-36c0,0-46.26-8.8-59.32-19.66L774.1,1159.81z"/>
	<polygon class="st18" points="791.02,1284.57 799.52,1284.57 859.82,1180.25 854.97,1178.2 	"/>
	<path class="st19" d="M864.69,1148.07c0,0-13.98,9.55-16.83,24.25c0,0,24.03,34.42,59.43,36
		C907.29,1208.32,919.07,1178.74,864.69,1148.07z"/>
	<path class="st20" d="M864.69,1148.07c0,0-15.32,12.62-16.83,24.25c0,0-31.59,10.72-59.32-19.66
		C788.54,1152.66,817.03,1128.07,864.69,1148.07z"/>
	<path class="st21" d="M788.54,1152.66c0,0-6.26,8.45-14.45,7.16c0,0,17.01-9.55,21.46-11.7L788.54,1152.66z"/>
	<path class="st22" d="M907.29,1208.32c0,0,4.36,16.89,15.66,28.65c0,0,4.48-1.81,6.04-8.37c0,0-18.08-43.06-33.56-56.92
		C895.42,1171.68,908.38,1198.22,907.29,1208.32z"/>
</g>
<ellipse class="st23" cx="848.52" cy="1282.72" rx="72.62" ry="8.87"/>
<g>
	<path class="st24" d="M722.72,1109.85c0,0-19.25,15.14-35.76,14.43c0,0-28.2,18.86-52.25,12.04c0,0-26.37,14.97-49.97,8.07
		c0,0-5.8,5.58-24.33,9.23c0,0,18.91-17.15,21.42-24.67c0,0,40.19,0.24,65.9-22.55c0,0,47.22,1.23,62.33-6.61L722.72,1109.85z"/>
	<polygon class="st18" points="679.7,1228.18 671.36,1226.38 634.33,1111.61 639.53,1110.63 	"/>
	<path class="st25" d="M636.37,1079.12c0,0,11.69,12.31,11.37,27.27c0,0-30.86,28.53-65.9,22.55
		C581.84,1128.95,576.56,1097.54,636.37,1079.12z"/>
	<path class="st26" d="M636.37,1079.12c0,0,12.35,15.59,11.37,27.27c0,0,28.7,17.19,62.33-6.61
		C710.07,1099.79,687.34,1069.71,636.37,1079.12z"/>
	<path class="st25" d="M710.07,1099.79c0,0,4.35,9.59,12.65,10.07c0,0-14.66-12.95-18.56-15.99L710.07,1099.79z"/>
	<path class="st27" d="M581.84,1128.95c0,0-7.85,15.57-21.42,24.67c0,0-4.01-2.72-4.15-9.46c0,0,26.85-38.24,44.97-48.49
		C601.24,1095.66,582.91,1118.85,581.84,1128.95z"/>
</g>
<ellipse class="st23" cx="665.71" cy="1231.38" rx="72.62" ry="8.87"/>
<path class="st18" d="M1616.7,841.78"/>
<path class="st28" d="M1319.5,662.6c-0.08-0.02-13.83-2.86-15.6-9.75c-1.77-6.91-5.67-6.38-3.55-13.12
	c2.09-6.61-1.2-12.39-1.32-12.6c0-0.01,0-0.01-0.01,0c-0.15,0.15-3.7,3.91-3.7,6.7c0,2.85,1.84,9.56,1.85,9.61c0,0,0,0,0,0
	c-0.02,0.06-3.38,8.74,0,9.35c3.4,0.62,7.85,9.2,7.85,9.2s5.11,9.25,10.83,10.03c5.72,0.78,12.55-1.9,12.55-1.9
	s15.32,2.18,28.02-0.95c12.7-3.13,33.31,6.08,39.47,7.01s13.75,7.28,13.75,7.28s2.92,8.83,5.04,9.43c2.13,0.6,4.54,5.73,5.12,7.44
	c0.57,1.71-1.39,12.95,1.44,12.95c2.73,0,0.21,5.72,0.01,6.15c0,0.01,0.01,0.01,0.02,0.01l4.14-2.41c0,0,0,0,0,0
	c0.02-0.09,1.5-6.7-0.98-7.83c-2.49-1.13-2.3-11.13-2.3-11.17c0,0,0,0,0,0c-0.02-0.03-4.97-10.46-6.74-10.99
	c-1.77-0.53-3.72-10.81-7.62-10.99s-36.87-11.88-44.14-12.58c-7.26-0.71-18.59,2.48-18.61,2.48c0,0,0,0,0,0"/>
<path class="st28" d="M1551.69,790.89c-0.08-0.02-13.83-2.86-15.6-9.75c-1.77-6.91-5.67-6.38-3.55-13.12
	c2.09-6.61-1.2-12.39-1.32-12.6c0-0.01,0-0.01-0.01,0c-0.15,0.15-3.7,3.91-3.7,6.7c0,2.85,1.84,9.56,1.85,9.61c0,0,0,0,0,0
	c-0.02,0.06-3.38,8.73,0,9.35c3.4,0.62,7.85,9.2,7.85,9.2s5.11,9.25,10.83,10.03c5.72,0.78,12.55-1.9,12.55-1.9
	s15.32,2.18,28.02-0.95c12.7-3.13,33.31,6.08,39.47,7.01s13.75,7.28,13.75,7.28s2.92,8.83,5.04,9.43c2.13,0.6,4.54,5.73,5.12,7.44
	s-1.39,12.95,1.44,12.95c2.73,0,0.21,5.72,0.01,6.15c0,0.01,0.01,0.01,0.02,0.01l4.14-2.41c0,0,0,0,0,0c0.02-0.09,1.5-6.7-0.98-7.83
	c-2.49-1.13-2.3-11.13-2.3-11.17c0,0,0,0,0,0c-0.02-0.03-4.97-10.46-6.74-10.99c-1.77-0.53-3.72-10.81-7.62-10.99
	c-3.9-0.18-36.87-11.88-44.14-12.58c-7.26-0.71-18.59,2.48-18.61,2.48c0,0,0,0,0,0"/>
<path class="st28" d="M1369.58,777.92c-0.08-0.02-13.83-2.86-15.6-9.75c-1.77-6.91-5.67-6.38-3.55-13.12
	c2.09-6.61-1.2-12.39-1.32-12.6c0-0.01,0-0.01-0.01,0c-0.15,0.15-3.7,3.91-3.7,6.7c0,2.85,1.84,9.56,1.85,9.61c0,0,0,0,0,0
	c-0.02,0.06-3.38,8.74,0,9.35c3.4,0.62,7.85,9.2,7.85,9.2s5.11,9.25,10.83,10.03c5.72,0.78,12.55-1.9,12.55-1.9
	s15.32,2.18,28.02-0.95c12.7-3.13,33.31,6.08,39.47,7.01c6.15,0.93,13.75,7.28,13.75,7.28s2.92,8.83,5.04,9.43
	c2.13,0.6,4.54,5.73,5.12,7.44c0.57,1.71-1.39,12.95,1.44,12.95c2.73,0,0.21,5.72,0.01,6.15c0,0.01,0.01,0.01,0.02,0.01l4.14-2.41
	c0,0,0,0,0,0c0.02-0.09,1.5-6.7-0.98-7.83c-2.49-1.13-2.3-11.13-2.3-11.17c0,0,0,0,0,0c-0.02-0.03-4.97-10.46-6.74-10.99
	c-1.77-0.53-3.72-10.81-7.62-10.99s-36.87-11.88-44.14-12.58c-7.26-0.71-18.59,2.48-18.61,2.48c0,0,0,0,0,0"/>
<path class="st28" d="M1055.37,751.29c-0.08-0.02-13.83-2.86-15.6-9.75c-1.77-6.91-5.67-6.38-3.55-13.12
	c2.09-6.61-1.2-12.39-1.32-12.6c0-0.01,0-0.01-0.01,0c-0.15,0.15-3.7,3.91-3.7,6.7c0,2.85,1.84,9.56,1.85,9.61c0,0,0,0,0,0
	c-0.02,0.06-3.38,8.74,0,9.35c3.4,0.62,7.85,9.2,7.85,9.2s5.11,9.25,10.83,10.03c5.72,0.78,12.55-1.9,12.55-1.9
	s15.32,2.18,28.02-0.95c12.7-3.13,33.31,6.08,39.47,7.01s13.75,7.28,13.75,7.28s2.92,8.83,5.04,9.43c2.13,0.6,4.54,5.73,5.12,7.44
	c0.57,1.71-1.39,12.95,1.44,12.95c2.73,0,0.21,5.72,0.01,6.15c0,0.01,0.01,0.01,0.02,0.01l4.14-2.41c0,0,0,0,0,0
	c0.02-0.09,1.5-6.7-0.98-7.83c-2.49-1.13-2.3-11.13-2.3-11.17c0,0,0,0,0,0c-0.02-0.03-4.97-10.46-6.74-10.99
	c-1.77-0.53-3.72-10.81-7.62-10.99s-36.87-11.88-44.14-12.58c-7.26-0.71-18.59,2.48-18.61,2.48c0,0,0,0,0,0"/>
<path class="st28" d="M1220.99,781.96c-0.08-0.02-13.83-2.86-15.6-9.75c-1.77-6.91-5.67-6.38-3.55-13.12
	c2.09-6.61-1.2-12.39-1.32-12.6c0-0.01,0-0.01-0.01,0c-0.15,0.15-3.7,3.91-3.7,6.7c0,2.85,1.84,9.56,1.85,9.61c0,0,0,0,0,0
	c-0.02,0.06-3.38,8.74,0,9.35c3.4,0.62,7.85,9.2,7.85,9.2s5.11,9.25,10.83,10.03c5.72,0.78,12.55-1.9,12.55-1.9
	s15.32,2.18,28.02-0.95c12.7-3.13,33.31,6.08,39.47,7.01s13.75,7.28,13.75,7.28s2.92,8.83,5.04,9.43c2.13,0.6,4.54,5.73,5.12,7.44
	c0.57,1.71-1.39,12.95,1.44,12.95c2.73,0,0.21,5.72,0.01,6.15c0,0.01,0.01,0.01,0.02,0.01l4.14-2.41c0,0,0,0,0,0
	c0.02-0.09,1.5-6.7-0.98-7.83c-2.49-1.13-2.3-11.13-2.3-11.17c0,0,0,0,0,0c-0.02-0.03-4.97-10.46-6.74-10.99
	c-1.77-0.53-3.72-10.81-7.62-10.99s-36.87-11.88-44.14-12.58c-7.26-0.71-18.59,2.48-18.61,2.48c0,0,0,0,0,0"/>
<path class="st28" d="M1403.89,885c-0.08-0.02-13.83-2.86-15.6-9.75c-1.77-6.91-5.67-6.38-3.55-13.12c2.09-6.61-1.2-12.39-1.32-12.6
	c0-0.01,0-0.01-0.01,0c-0.15,0.15-3.7,3.91-3.7,6.7c0,2.85,1.84,9.56,1.85,9.61c0,0,0,0,0,0c-0.02,0.06-3.38,8.74,0,9.35
	c3.4,0.62,7.85,9.2,7.85,9.2s5.11,9.25,10.83,10.03c5.72,0.78,12.55-1.9,12.55-1.9s15.32,2.18,28.02-0.95
	c12.7-3.13,33.31,6.08,39.47,7.01s13.75,7.28,13.75,7.28s2.92,8.83,5.04,9.43c2.13,0.6,4.54,5.73,5.12,7.44s-1.39,12.95,1.44,12.95
	c2.73,0,0.21,5.72,0.01,6.15c0,0.01,0.01,0.01,0.02,0.01l4.14-2.41c0,0,0,0,0,0c0.02-0.09,1.5-6.7-0.98-7.83
	c-2.49-1.13-2.3-11.13-2.3-11.17c0,0,0,0,0,0c-0.02-0.03-4.97-10.46-6.74-10.99c-1.77-0.53-3.72-10.81-7.62-10.99
	s-36.87-11.88-44.14-12.58c-7.26-0.71-18.59,2.48-18.61,2.48c0,0,0,0,0,0"/>
<path class="st28" d="M1220.99,884.97c-0.08-0.02-13.83-2.86-15.6-9.75c-1.77-6.91-5.67-6.38-3.55-13.12
	c2.09-6.61-1.2-12.39-1.32-12.6c0-0.01,0-0.01-0.01,0c-0.15,0.15-3.7,3.91-3.7,6.7c0,2.85,1.84,9.56,1.85,9.61c0,0,0,0,0,0
	c-0.02,0.06-3.38,8.73,0,9.35c3.4,0.62,7.85,9.2,7.85,9.2s5.11,9.25,10.83,10.03c5.72,0.78,12.55-1.9,12.55-1.9
	s15.32,2.18,28.02-0.95c12.7-3.13,33.31,6.08,39.47,7.01s13.75,7.28,13.75,7.28s2.92,8.83,5.04,9.43c2.13,0.6,4.54,5.73,5.12,7.44
	s-1.39,12.95,1.44,12.95c2.73,0,0.21,5.72,0.01,6.15c0,0.01,0.01,0.01,0.02,0.01l4.14-2.41c0,0,0,0,0,0c0.02-0.09,1.5-6.7-0.98-7.83
	c-2.49-1.13-2.3-11.13-2.3-11.17c0,0,0,0,0,0c-0.02-0.03-4.97-10.46-6.74-10.99c-1.77-0.53-3.72-10.81-7.62-10.99
	c-3.9-0.18-36.87-11.88-44.14-12.58c-7.26-0.71-18.59,2.48-18.61,2.48c0,0,0,0,0,0"/>
<path class="st28" d="M936.38,791.43c-0.08-0.02-13.83-2.86-15.6-9.75c-1.77-6.91-5.67-6.38-3.55-13.12
	c2.09-6.61-1.2-12.39-1.32-12.6c0-0.01,0-0.01-0.01,0c-0.15,0.15-3.7,3.91-3.7,6.7c0,2.85,1.84,9.56,1.85,9.61c0,0,0,0,0,0
	c-0.02,0.06-3.38,8.74,0,9.35c3.4,0.62,7.85,9.2,7.85,9.2s5.11,9.25,10.83,10.03s12.55-1.9,12.55-1.9s15.32,2.18,28.02-0.95
	c12.7-3.13,33.31,6.08,39.47,7.01s13.75,7.28,13.75,7.28s2.92,8.83,5.04,9.43c2.13,0.6,4.54,5.73,5.12,7.44
	c0.57,1.71-1.39,12.95,1.44,12.95c2.73,0,0.21,5.72,0.01,6.15c0,0.01,0.01,0.01,0.02,0.01l4.14-2.41c0,0,0,0,0,0
	c0.02-0.09,1.5-6.7-0.98-7.83c-2.49-1.13-2.3-11.13-2.3-11.17c0,0,0,0,0,0c-0.02-0.03-4.97-10.46-6.74-10.99
	c-1.77-0.53-3.72-10.81-7.62-10.99s-36.87-11.88-44.14-12.58c-7.26-0.71-18.59,2.48-18.61,2.48c0,0,0,0,0,0"/>
<path class="st28" d="M1083.2,912.01c-0.08-0.02-13.83-2.86-15.6-9.75c-1.77-6.91-5.67-6.38-3.55-13.12
	c2.09-6.61-1.2-12.39-1.32-12.6c0-0.01,0-0.01-0.01,0c-0.15,0.15-3.7,3.91-3.7,6.7c0,2.85,1.84,9.56,1.85,9.61c0,0,0,0,0,0
	c-0.02,0.06-3.38,8.74,0,9.35c3.4,0.62,7.85,9.2,7.85,9.2s5.11,9.25,10.83,10.03c5.72,0.78,12.55-1.9,12.55-1.9
	s15.32,2.18,28.02-0.95c12.7-3.13,33.31,6.08,39.47,7.01s13.75,7.28,13.75,7.28s2.92,8.83,5.04,9.43c2.13,0.6,4.54,5.73,5.12,7.44
	s-1.39,12.95,1.44,12.95c2.73,0,0.21,5.72,0.01,6.15c0,0.01,0.01,0.01,0.02,0.01l4.14-2.41c0,0,0,0,0,0c0.02-0.09,1.5-6.7-0.98-7.83
	c-2.49-1.13-2.3-11.13-2.3-11.17c0,0,0,0,0,0c-0.02-0.03-4.97-10.46-6.74-10.99c-1.77-0.53-3.72-10.81-7.62-10.99
	s-36.87-11.88-44.14-12.58c-7.26-0.71-18.59,2.48-18.61,2.48c0,0,0,0,0,0"/>
<path class="st28" d="M1136.88,1056.44c-0.08-0.02-13.83-2.86-15.6-9.75c-1.77-6.91-5.67-6.38-3.55-13.12
	c2.09-6.61-1.2-12.39-1.32-12.6c0-0.01,0-0.01-0.01,0c-0.15,0.15-3.7,3.91-3.7,6.7c0,2.85,1.84,9.56,1.85,9.61c0,0,0,0,0,0
	c-0.02,0.06-3.38,8.73,0,9.35c3.4,0.62,7.85,9.2,7.85,9.2s5.11,9.25,10.83,10.03c5.72,0.78,12.55-1.9,12.55-1.9
	s15.32,2.18,28.02-0.95c12.7-3.13,33.31,6.08,39.47,7.01s13.75,7.28,13.75,7.28s2.92,8.83,5.04,9.43c2.13,0.6,4.54,5.73,5.12,7.44
	c0.57,1.71-1.39,12.95,1.44,12.95c2.73,0,0.21,5.72,0.01,6.15c0,0.01,0.01,0.01,0.02,0.01l4.14-2.41c0,0,0,0,0,0
	c0.02-0.09,1.5-6.7-0.98-7.83c-2.49-1.13-2.3-11.13-2.3-11.17c0,0,0,0,0,0c-0.02-0.03-4.97-10.46-6.74-10.99
	c-1.77-0.53-3.72-10.81-7.62-10.99s-36.87-11.88-44.14-12.58c-7.26-0.71-18.59,2.48-18.61,2.48c0,0,0,0,0,0"/>
<path class="st28" d="M911.06,983.82c-0.08-0.02-13.83-2.86-15.6-9.75c-1.77-6.91-5.67-6.38-3.55-13.12
	c2.09-6.61-1.2-12.39-1.32-12.6c0-0.01,0-0.01-0.01,0c-0.15,0.15-3.7,3.91-3.7,6.7c0,2.85,1.84,9.56,1.85,9.61c0,0,0,0,0,0
	c-0.02,0.06-3.38,8.74,0,9.35c3.4,0.62,7.85,9.2,7.85,9.2s5.11,9.25,10.83,10.03s12.55-1.9,12.55-1.9s15.32,2.18,28.02-0.95
	c12.7-3.13,33.31,6.08,39.47,7.01c6.15,0.93,13.75,7.28,13.75,7.28s2.92,8.83,5.04,9.43s4.54,5.73,5.12,7.44
	c0.57,1.71-1.39,12.95,1.44,12.95c2.73,0,0.21,5.71,0.01,6.15c0,0.01,0.01,0.01,0.02,0.01l4.14-2.41c0,0,0,0,0,0
	c0.02-0.09,1.5-6.7-0.98-7.83c-2.49-1.13-2.3-11.13-2.3-11.17c0,0,0,0,0,0c-0.02-0.03-4.97-10.46-6.74-10.99
	c-1.77-0.53-3.72-10.81-7.62-10.99s-36.87-11.88-44.14-12.58c-7.26-0.71-18.59,2.48-18.61,2.48c0,0,0,0,0,0"/>
<path class="st28" d="M482.41,905.87c-0.08-0.02-13.83-2.86-15.6-9.75c-1.77-6.91-5.67-6.38-3.55-13.12
	c2.09-6.61-1.2-12.39-1.32-12.6c0-0.01,0-0.01-0.01,0c-0.15,0.15-3.7,3.91-3.7,6.7c0,2.85,1.84,9.56,1.85,9.61c0,0,0,0,0,0
	c-0.02,0.06-3.38,8.74,0,9.35c3.4,0.62,7.85,9.2,7.85,9.2s5.11,9.25,10.83,10.03s12.55-1.9,12.55-1.9s15.32,2.18,28.02-0.95
	c12.7-3.13,33.31,6.08,39.47,7.01c6.15,0.93,13.75,7.28,13.75,7.28s2.92,8.83,5.04,9.43s4.54,5.73,5.12,7.44
	c0.57,1.71-1.39,12.95,1.44,12.95c2.73,0,0.21,5.72,0.01,6.15c0,0.01,0.01,0.01,0.02,0.01l4.14-2.41c0,0,0,0,0,0
	c0.02-0.09,1.5-6.7-0.98-7.83c-2.49-1.13-2.3-11.13-2.3-11.17c0,0,0,0,0,0c-0.02-0.03-4.97-10.46-6.74-10.99
	c-1.77-0.53-3.72-10.81-7.62-10.99s-36.87-11.88-44.14-12.58c-7.26-0.71-18.59,2.48-18.61,2.48c0,0,0,0,0,0"/>
<path class="st28" d="M540.63,809.6c-0.08-0.02-13.83-2.86-15.6-9.75c-1.77-6.91-5.67-6.38-3.55-13.12
	c2.09-6.61-1.2-12.39-1.32-12.6c0-0.01,0-0.01-0.01,0c-0.15,0.15-3.7,3.91-3.7,6.7c0,2.85,1.84,9.56,1.85,9.61c0,0,0,0,0,0
	c-0.02,0.06-3.38,8.74,0,9.35c3.4,0.62,7.85,9.2,7.85,9.2s5.11,9.25,10.83,10.03c5.72,0.78,12.55-1.9,12.55-1.9
	s15.32,2.18,28.02-0.95c12.7-3.13,33.31,6.08,39.47,7.01c6.15,0.93,13.75,7.28,13.75,7.28s2.92,8.83,5.04,9.43
	c2.13,0.6,4.54,5.73,5.12,7.44c0.57,1.71-1.39,12.95,1.44,12.95c2.73,0,0.21,5.72,0.01,6.15c0,0.01,0.01,0.01,0.02,0.01l4.14-2.41
	c0,0,0,0,0,0c0.02-0.09,1.5-6.7-0.98-7.83c-2.49-1.13-2.3-11.13-2.3-11.17c0,0,0,0,0,0c-0.02-0.03-4.97-10.46-6.74-10.99
	c-1.77-0.53-3.72-10.81-7.62-10.99s-36.87-11.88-44.14-12.58c-7.26-0.71-18.59,2.48-18.61,2.48c0,0,0,0,0,0"/>
<path class="st8" d="M985.23,667.87C985.23,667.88,985.23,667.88,985.23,667.87l-4.14,2.42c-0.01,0-0.02,0-0.02-0.01
	c0.2-0.44,2.72-6.15-0.01-6.15c-2.83,0-0.87-11.24-1.44-12.95c-0.58-1.7-2.99-6.84-5.11-7.44c-2.13-0.61-5.05-9.43-5.05-9.43
	s-7.6-6.36-13.75-7.28c-2.17-0.33-6.16-1.7-10.96-3.18l3.51-2.58c9.09,2.87,17.48,5.55,19.33,5.64c3.89,0.17,5.84,10.46,7.62,10.99
	c0.88,0.27,2.57,3,4.03,5.68c1.47,2.67,2.71,5.29,2.72,5.3c-0.01,0.04-0.19,10.04,2.3,11.17
	C986.73,661.17,985.25,667.79,985.23,667.87z"/>
<path class="st8" d="M948.26,621.27l-3.51,2.58c-4.35-1.35-9.38-2.79-14.33-3.67l4.79-2.94
	C939.29,618.45,943.86,619.89,948.26,621.27z"/>
<path class="st8" d="M935.21,617.25l-4.79,2.94c-2.76-0.48-5.48-0.79-8.07-0.81l6.78-3.85C930.94,616,933,616.59,935.21,617.25z"/>
<path class="st28" d="M929.13,615.52l-6.78,3.85c-2.16-0.01-4.22,0.18-6.11,0.64c-12.7,3.13-28.02,0.95-28.02,0.95
	s-6.83,2.68-12.55,1.9c-5.71-0.78-10.83-10.03-10.83-10.03s-4.45-8.58-7.85-9.2c-1.13-0.21-1.51-1.32-1.51-2.7
	c0-2.76,1.5-6.61,1.51-6.66c-0.01-0.06-1.85-6.77-1.85-9.61c0-1.4,0.89-3.04,1.79-4.35c0.91-1.31,1.84-2.28,1.91-2.36
	c0.12,0.21,3.42,5.99,1.33,12.6c-2.12,6.73,1.77,6.2,3.54,13.12c1.77,6.9,15.52,9.74,15.6,9.75l25.53,3.37
	c0.02-0.01,11.35-3.19,18.61-2.48C924.69,614.44,926.68,614.88,929.13,615.52z"/>
<g>
	<path class="st29" d="M1446.22,569.67c-0.71-0.68-1.43-1.36-2.14-2.03c-0.2-1.07-0.88-1.58-1.92-1.66
		c-6.35-5.49-13.06-10.21-21.21-12.96c-4.83-1.63-9.59-4.19-11.97-9.36c5.34-1.14,5.35-1.15,2.52-5.46
		c-0.84-1.28-1.77-2.51-2.66-3.76c6.48-6.12,14-5.56,21.57-2.98c7.11,2.43,13.99,5.57,21.36,7.23c3.04,1.38,6.41,1.27,9.56,2.1
		c2.89,0.76,3.61-0.56,3.6-3.12c-0.04-10.78-0.27-21.57,0.86-32.32c0.24-9.74,1.65-19.36,2.82-29.02
		c2.16-17.87,13.11-30.07,25.78-41.27c3.82,6.43,6.29,13.31,6.83,20.82c-8.32,18.77-8.12,37.86-2,57.12
		c3.24,10.19,6.8,20.28,10.08,30.46c0.69,2.13,2.11,2.42,3.92,2.6c7.52,0.73,15.03,1.53,22.54,2.3c-1.53,4.85-4.51,8.98-6.73,13.49
		c-1.25,1.33-2.5,2.67-3.75,4c-0.24,0.23-0.48,0.46-0.72,0.69c-0.72,0.69-1.45,1.38-2.17,2.07c-1.79,0.11-3.28,0.93-4.75,1.88
		c-13.84,8.91-28.83,11.31-44.94,8.3c-8.05-1.5-15.4-5.06-23.25-7.06c-0.84-0.46-1.67-0.92-2.51-1.38
		C1446.7,570.14,1446.46,569.91,1446.22,569.67z M1423.68,538.54c0.03-2.09-0.9-3.64-2.62-3.56c-1.75,0.08-3.66,1.08-3.73,3.3
		c-0.06,1.79,1.01,2.96,2.91,3.06C1422.36,541.45,1423.4,540.27,1423.68,538.54z"/>
	<path class="st30" d="M1465.79,505.36c-1.13,10.75-0.89,21.54-0.86,32.32c0.01,2.56-0.71,3.88-3.6,3.12
		c-3.15-0.83-6.52-0.72-9.56-2.1c-3.59-6.39-7.56-12.61-10.67-19.23c-5.28-11.23-10.04-22.69-8.38-35.65
		c0.45-3.54,1.92-6.58,3.74-9.48c3.92-6.26,7.95-12.45,11.94-18.67c6.18,1.3,8.62,6.5,11.61,11.13c-0.45,6.39-0.94,12.76-0.97,19.18
		c-0.03,5.65,1.73,10.78,3.37,15.98C1462.92,503.57,1463.56,505.35,1465.79,505.36z"/>
	<path class="st31" d="M1501.22,455.9c-0.54-7.51-3.01-14.39-6.83-20.82c9.9-8.19,19.97-16.14,30.85-22.99
		c0.77-0.48,1.55-0.93,2.99-0.92C1518.1,425.47,1507.4,439.36,1501.22,455.9z"/>
	<path class="st32" d="M1449.46,571.75c7.86,2,15.2,5.56,23.25,7.06c16.12,3.01,31.1,0.61,44.94-8.3c1.47-0.95,2.97-1.77,4.75-1.88
		c-0.21,1.85-1.43,3.72,0.16,5.52c-0.23,0.64-0.46,1.28-0.69,1.92c-0.63,0.78-1.25,1.55-1.88,2.33c-0.34,0.29-0.69,0.57-1.03,0.86
		c-2.96-0.25-5.57-2.82-8.87-1.13c-3.28,1.68-6.68,3.11-10.04,4.65c-2.88,0.43-5.76,0.85-8.63,1.28c-0.29,0.06-0.54,0.2-0.73,0.44
		c-13,1.61-25.05-1.17-36.22-7.92C1452.44,575.34,1450.43,574.08,1449.46,571.75z"/>
	<path class="st31" d="M1460.01,466.82c-2.99-4.63-5.43-9.83-11.61-11.13c5.83-9.18,11.73-18.3,18.41-26.88
		c0.41,0.17,0.82,0.33,1.23,0.5C1465.36,441.81,1462.69,454.31,1460.01,466.82z"/>
	<path class="st31" d="M1529.05,561.87c2.21-4.51,5.2-8.64,6.73-13.49c8.42,0.06,16.7-2.29,26.25-1.88
		C1551.31,553.97,1540.57,558.76,1529.05,561.87z"/>
	<path class="st33" d="M1515.91,581.83c2.67,1.76,2.49,5.7,5.56,7.19c0.82,0.4,1.45,1.19,2.19,1.77c0.58,0.45,1.15,0.34,1.6-0.24
		c0.05-0.06-0.08-0.3-0.17-0.42c-0.06-0.08-0.22-0.16-0.3-0.13c-0.97,0.35-0.59,1-0.14,1.36c4.32,3.47,7.95,8.17,14.11,8.52
		c3.78,0.22,6.45,0.91,7.58,5.51c0.63,2.59-0.5,3.12-1.61,4.3c-1.66,1.75-2.35-0.12-3.34-0.94c-7.57-6.33-15.03-12.78-22.77-18.9
		c-3.07-2.42-6.74-4.09-10.13-6.1C1510.12,579.89,1513.62,583.19,1515.91,581.83z"/>
	<path class="st33" d="M1521.87,576.07c0.23-0.64,0.46-1.28,0.69-1.92c2.34,0.1,4.68,0.27,7.03,0.27c1.43,0,2.5,0.49,3.04,1.76
		c3.27,7.77,11.13,10.56,16.96,15.54c0.9,0.77,2.72,0.48,4.12,0.62c5.69,0.57,7.44,2.17,8.27,7.46c0.29,1.83-1.77,0.93-2.28,2.14
		c-0.76,1.79-1.82,0.74-2.89-0.16c-7.29-6.13-14.79-12.02-21.92-18.34c-2.93-2.59-7.19-3.07-9.43-6.51
		C1524.26,576.64,1523.07,576.35,1521.87,576.07z"/>
	<path class="st33" d="M1408.85,534.45c0.89,1.25,1.82,2.47,2.66,3.76c2.83,4.31,2.82,4.31-2.52,5.46
		c-6.35-1.87-12.16-5.4-19.12-5.89C1395.13,531.53,1401.03,530.58,1408.85,534.45z"/>
	<path class="st30" d="M1515.91,581.83c-2.29,1.35-5.79-1.95-7.43,1.93c-3.13,2.39-5.85,1.26-8.43-0.99
		c3.35-1.54,6.76-2.97,10.04-4.65c3.3-1.69,5.9,0.88,8.87,1.13C1518.6,580.9,1516.65,580.66,1515.91,581.83z"/>
	<path class="st30" d="M1521.87,576.07c1.2,0.29,2.4,0.57,3.59,0.86c-1.83,0.49-3.65,0.98-5.47,1.47
		C1520.61,577.62,1521.24,576.84,1521.87,576.07z"/>
	<path class="st32" d="M1442.15,565.98c1.05,0.08,1.73,0.6,1.92,1.66C1443.02,567.57,1442.4,566.99,1442.15,565.98z"/>
	<path class="st32" d="M1524.57,566.56c0.24-0.23,0.48-0.46,0.72-0.69C1525.05,566.1,1524.81,566.33,1524.57,566.56z"/>
	<path class="st32" d="M1446.22,569.67c0.24,0.23,0.49,0.47,0.73,0.7C1446.7,570.14,1446.46,569.91,1446.22,569.67z"/>
	<path class="st30" d="M1490.69,584.49c0.19-0.23,0.44-0.38,0.73-0.44C1491.25,584.32,1491,584.47,1490.69,584.49z"/>
	<path class="st31" d="M1423.68,538.54c-0.28,1.74-1.33,2.91-3.44,2.8c-1.9-0.1-2.98-1.27-2.91-3.06c0.08-2.22,1.98-3.22,3.73-3.3
		C1422.78,534.9,1423.71,536.45,1423.68,538.54z"/>
</g>
<g>
	<path class="st29" d="M399.63,677.63c-1,0.68-2,1.36-3.01,2.04c-5.02-0.91-9.4,1.35-13.94,2.83c-0.77-5.91-6.56-7.91-9.48-12.14
		l-0.15-0.15c-0.02-2.89-0.04-5.78-0.05-8.67c0.02-0.27,0.09-0.54,0.19-0.79c0.67-0.55,0.73-1.14,0.11-1.77
		c0.22-0.69,0.43-1.39,0.65-2.08c1.25-0.95,1.04-2.33,1.04-3.64c0.66-1.6,1.33-3.19,1.99-4.79c5.4-6.16,11.44-11.5,18.71-15.42
		c2.95-1.59,2.17-3.61,0.3-5.76c-6.49-7.46-12.61-15.27-19.38-22.46c-6.93-7.35-14.8-13.44-24.51-17.18
		c-5.44-2.09-11.22-3.23-16.41-6.42c-3.01-1.85-6.01-4.76-10.11-4.67c0.11-0.78,0.22-1.55,0.34-2.33
		c17.12,7.61,36.1,11.83,49.61,26.08c8.31,8.77,16.04,18.1,23.84,27.35c1.8,2.13,3.25,2.58,5.97,1.96
		c11.06-2.53,21.6-1.31,30.99,5.59c5.07,3.73,8.48,8.41,7.93,15.13c-0.88,0.51-1.76,1.03-2.63,1.54c-6.26,0.55-6.26,0.55-4.42,4.94
		c-2.19,0.06-4.44,0.43-6.58,0.12c-11.52-1.72-16.99,6.18-22.56,13.96c0,0-0.22,0.18-0.22,0.18c-0.49,0.28-0.98,0.57-1.47,0.85
		c-1.43,1.54-2.37,3.64-4.69,4.19C400.63,676.1,399.94,676.6,399.63,677.63z M437.57,647.94c-0.58-1.33-0.51-3.33-2.73-3.18
		c-1.8,0.12-2.98,1.25-2.84,3.08c0.12,1.48,1.01,2.65,2.77,2.6C436.35,650.39,437.49,649.79,437.57,647.94z"/>
	<path class="st32" d="M325.59,576.58c4.09-0.08,7.09,2.82,10.11,4.67c5.18,3.18,10.97,4.32,16.41,6.42
		c9.71,3.74,17.59,9.83,24.51,17.18c6.78,7.19,12.89,15,19.38,22.46c1.88,2.16,2.65,4.17-0.3,5.76
		c-7.27,3.92-13.31,9.26-18.71,15.42c-2.65-2.18-3.84-5.38-5.26-8.27c-9.23-18.82-22.14-33.73-42.44-41.05
		c-1.24-0.45-2.22-1.14-2.92-2.25C324.51,590.2,322.89,583.47,325.59,576.58z"/>
	<path class="st32" d="M408.08,670.93c5.58-7.78,11.04-15.68,22.56-13.96c2.14,0.32,4.38-0.06,6.58-0.12
		c4.81,3.3,10.13,5.88,14.21,10.51c1.89-5.24-0.2-9.11-3.16-12.76c6.22-2.76,12.09,0.34,16.81,2.91
		c9.88,5.38,18.85,12.43,28.2,18.77c4.62,3.13,8.42,7.73,14.52,8.25c-2.54,6.54-8,8.58-14.33,9.15c-2.62,0.24-5.26,0.25-7.89,0.37
		c-8.16-4.36-15.5-10.06-23.98-13.97c-11.99-5.52-24.64-7.22-37.56-7.93C418.71,671.87,413.34,672.1,408.08,670.93z"/>
	<path class="st31" d="M325.59,576.58c-2.7,6.9-1.08,13.63,0.78,20.35c-16.15-6.3-29.24-15.96-35.76-32.74
		c-0.54-1.38-1.79-3.16-0.56-4.44c1.41-1.47,2.89,0.43,4.16,0.96c10.61,4.41,21.15,9,31.71,13.54
		C325.81,575.02,325.7,575.8,325.59,576.58z"/>
	<path class="st32" d="M373.01,661.55c0.02,2.89,0.04,5.78,0.06,8.67c-0.08,0.08-0.16,0.15-0.24,0.23c0.05,0.05,0.1,0.1,0.15,0.15
		c0.08-0.08,0.15-0.16,0.23-0.24c2.92,4.23,8.71,6.23,9.48,12.14c-0.17,0.22-0.33,0.44-0.49,0.66c-3.65,4.07-4.08,10.23-8.85,13.6
		c-0.28,0.2-0.02,1.18-0.01,1.79c-1.6-0.57-3.33-0.92-4.77-1.76c-5.29-3.09-10.51-6.33-11.58-13.17c3.54-2.98,6.5-6.62,10.74-8.94
		c-4.3,2.21-8.71,3.42-13.38,3.75c-0.27-3.25-0.53-6.51-0.8-9.76C360.04,666.31,366.53,663.93,373.01,661.55z"/>
	<path class="st31" d="M485.58,694.05c2.63-0.12,5.27-0.13,7.89-0.37c6.33-0.57,11.79-2.6,14.33-9.15c0.19-0.11,0.29-0.27,0.31-0.48
		c8.61,6.2,17.21,12.39,26.76,19.27C515.83,709.55,500.36,703.64,485.58,694.05z"/>
	<path class="st31" d="M353.56,668.69c0.27,3.25,0.53,6.51,0.8,9.76c0,0-0.05-0.26-0.05-0.26c0.31,1.01,0.62,2.02,0.93,3.03
		l-0.03-0.12c0.29,1.05,0.01,2.52,1.8,2.48l-0.01,0.07c1.07,6.84,6.28,10.08,11.58,13.17c1.44,0.84,3.17,1.18,4.77,1.76
		c1.38,0.93,2.93,0.85,4.48,0.77c5.56,1.07,10.58-1.05,15.68-2.66c0.03,0.47,0.08,0.94,0.08,1.41c0.05,9.31-0.42,9.75-9.69,9.1
		c-19.16-1.34-32.9-12.71-37.4-30.46c-0.98-3.85-0.52-5.94,3.55-6.73C351.26,669.76,352.39,669.13,353.56,668.69z"/>
	<path class="st32" d="M393.52,696.67c-5.11,1.61-10.12,3.73-15.68,2.66c-0.44-3.9,0.65-7.36,2.88-10.57
		c1.14-1.65,2.35-3.38,1.49-5.6c0.16-0.22,0.32-0.44,0.49-0.66c4.54-1.48,8.92-3.74,13.94-2.83
		C395.59,685.34,394.55,691.01,393.52,696.67z"/>
	<path class="st29" d="M508.11,684.05c-0.01,0.22-0.12,0.38-0.31,0.48c-6.1-0.52-9.9-5.12-14.52-8.25
		c-9.36-6.34-18.32-13.4-28.2-18.77c-4.72-2.57-10.59-5.67-16.81-2.91c0,0-0.27-0.2-0.27-0.2c-0.4-0.36-0.81-0.73-1.21-1.09
		c-0.29,0-0.53-0.11-0.71-0.35c-0.33-0.56-0.65-1.12-0.98-1.68c10.52-0.85,19.86,2.75,28.32,8.4
		C485.18,667.53,496.57,675.9,508.11,684.05z"/>
	<path class="st32" d="M445.11,651.27c0.33,0.56,0.65,1.12,0.98,1.68c-1.72,0.64-2.97-0.69-4.45-1.05c0.88-0.51,1.75-1.03,2.63-1.54
		C444.55,650.67,444.83,650.97,445.11,651.27z"/>
	<path class="st32" d="M375,653.28c0,1.31,0.21,2.68-1.04,3.64C374.04,655.63,374.03,654.31,375,653.28z"/>
	<path class="st32" d="M399.63,677.63c0.31-1.03,0.99-1.53,2.07-1.48C401.3,677.04,400.67,677.63,399.63,677.63z"/>
	<path class="st32" d="M373.31,658.99c0.62,0.63,0.56,1.22-0.11,1.77C373.23,660.17,373.27,659.58,373.31,658.99z"/>
	<path class="st32" d="M406.39,671.96c0.49-0.28,0.98-0.57,1.47-0.85C407.6,671.78,407.07,672,406.39,671.96z"/>
	<path class="st33" d="M441.64,651.9c1.48,0.37,2.73,1.7,4.45,1.05c0.18,0.24,0.41,0.35,0.71,0.35c0.4,0.36,0.81,0.73,1.21,1.09
		c0,0,0.27,0.2,0.27,0.2c2.96,3.65,5.05,7.52,3.16,12.76c-4.07-4.64-9.4-7.21-14.21-10.51C435.38,652.46,435.38,652.46,441.64,651.9
		z"/>
	<path class="st31" d="M437.57,647.94c-0.08,1.85-1.21,2.45-2.8,2.49c-1.77,0.05-2.66-1.12-2.77-2.6c-0.14-1.82,1.04-2.96,2.84-3.08
		C437.06,644.61,436.98,646.61,437.57,647.94z"/>
	<path class="st33" d="M382.2,683.17c0.87,2.23-0.35,3.96-1.49,5.6c-2.23,3.2-3.32,6.66-2.88,10.57c-1.55,0.07-3.11,0.15-4.49-0.77
		c-0.01-0.62-0.28-1.59,0.01-1.79C378.12,693.39,378.56,687.23,382.2,683.17z"/>
	<path class="st33" d="M354.3,678.18c0,0,0.05,0.25,0.05,0.26c4.67-0.33,9.08-1.54,13.38-3.75c-4.24,2.32-7.2,5.96-10.74,8.94
		c0,0,0.01-0.07,0.01-0.07c1.46-2.33-0.79-1.95-1.8-2.48c0,0,0.03,0.12,0.03,0.12C356.72,679.65,356.57,678.59,354.3,678.18z"/>
	<path class="st29" d="M373.21,670.36c-0.08,0.08-0.15,0.16-0.23,0.24c-0.05-0.05-0.1-0.1-0.15-0.15c0.08-0.08,0.16-0.15,0.24-0.23
		C373.06,670.21,373.21,670.36,373.21,670.36z"/>
	<path class="st32" d="M354.3,678.18c2.27,0.41,2.42,1.46,0.93,3.03C354.92,680.2,354.61,679.19,354.3,678.18z"/>
	<path class="st32" d="M355.2,681.09c1.01,0.53,3.27,0.15,1.8,2.48C355.22,683.61,355.5,682.14,355.2,681.09z"/>
	<path class="st32" d="M448,654.4c-0.4-0.36-0.81-0.73-1.21-1.09C447.19,653.67,447.6,654.03,448,654.4z"/>
</g>
<polygon class="st34" points="1028.51,1288.79 1031.19,1390.72 1794.14,952.2 1794.14,843.51 "/>
<polyline class="st5" points="1007.49,1301.02 1011.45,1402.07 1031.19,1390.72 1028.51,1288.79 "/>
</svg>
